<?xml version="1.0" encoding="UTF-8"?>
<svg id="_レイヤー_2" data-name="レイヤー 2" xmlns="http://www.w3.org/2000/svg" viewBox="0 0 475 272.31">
  <defs>
    <style>
      .cls-1 {
        fill: #fff;
      }

      .cls-2 {
        fill: none;
      }
    </style>
  </defs>
  <g id="_レイヤー_1-2" data-name="レイヤー 1">
    <g>
      <rect class="cls-2" width="475" height="272.31"/>
      <polygon class="cls-1" points="464.11 242.76 464.11 263.41 443.47 263.41 464.11 242.76"/>
    </g>
    <g>
      <g>
        <path class="cls-1" d="m174.95,146.94c.19-.13.54-.22,1.03-.28.39-.02.62-.05.69-.1.05-.04.09-.08.11-.14.09-.23.16-.84.2-1.85.06-1.31.15-3.06.27-5.24.1-1.66.15-2.7.15-3.11v-.24c-.45-.09-1.15-.19-2.11-.3-.06-.09-.09-.16-.09-.21,0-.03.02-.09.06-.17.1-.04.18-.06.24-.06.05,0,.16.01.32.04.3.04.72.06,1.24.06.17,0,.47-.01.89-.04.29-.02.46-.03.5-.03.1,0,.21.02.34.06.06.06.11.12.14.18l.39.87,2.62,5.78,1.09,2.43c.85-1.69,1.52-3.2,1.99-4.52.03-.1.07-.19.11-.27.06-.1.11-.22.16-.35.05-.13.25-.62.6-1.48.14-.34.25-.64.34-.89.35-.99.56-1.55.62-1.69.12-.05.22-.07.31-.07.1,0,.23,0,.38.03.35.02.91.03,1.69.03.48,0,.88,0,1.19-.02.01.07.02.12.02.15,0,.04,0,.1-.03.18-.2.1-.43.16-.71.18-.55.03-.9.07-1.04.13-.15.06-.24.13-.28.21-.04.09-.08.37-.11.85v.42s0,.44,0,.44c0,.92.02,2.48.07,4.66v1.81s0,1.16,0,1.16c0,.46.02.73.06.81s.17.16.37.24c.33.11.87.22,1.63.34.04.03.06.07.06.12,0,.06,0,.12,0,.18h-.43c-.36,0-.76-.01-1.18-.03s-.65-.03-.69-.03c-1.26,0-2.1.01-2.52.04-.25.02-.41.03-.48.03-.04,0-.09-.01-.14-.04v-.12c0-.06,0-.11.03-.18.2-.09.48-.15.83-.18.39-.1.67-.22.85-.33.06-.23.08-.71.08-1.43l-.03-1.87c0-.2.01-.58.03-1.14.02-.56.03-1.46.03-2.71,0-.99-.02-1.74-.07-2.26-.1.22-.31.68-.62,1.4l-.14.35-.02.06-1.36,3.23-.49,1.25-.63,1.52c-.28.7-.51,1.31-.71,1.85-.09.25-.16.44-.21.58h-.22c-.7-2.04-1.53-4.13-2.49-6.26-.96-2.14-1.64-3.55-2.03-4.23-.05.26-.11,1.03-.17,2.31-.08,1.55-.12,3.26-.12,5.13,0,.58.04,1.24.13,1.97.02.21.11.36.27.47.15.1.55.16,1.19.17.25,0,.48.02.7.06.04.09.06.16.06.21,0,.03-.02.08-.05.16l-2.87-.1c-.21,0-.54.01-.98.04-.25.02-.6.03-1.06.03v-.25Z"/>
        <path class="cls-1" d="m191.05,147.02c.06-.05.11-.09.16-.1.1-.03.28-.06.54-.07.6-.04.97-.09,1.11-.17.09-.12.13-.3.13-.52v-.65s0-2.35,0-2.35l-.02-1.11v-2.32s-.04-2.64-.04-2.64c0-.63-.05-.98-.12-1.06-.11-.12-.44-.19-.99-.2-.23,0-.44-.02-.62-.06-.08-.04-.12-.1-.12-.17,0-.05.02-.11.05-.18.06-.03.1-.05.15-.05.09,0,.19,0,.31,0,.36.04.74.06,1.13.06l.68-.02,1.63.04c.81,0,1.45,0,1.9-.03.46-.02.76-.03.92-.03.14,0,.49.01,1.05.04h1.31s.16.02.16.02l.77-.03.09.05s.05.1.06.16c0,.09-.01.22-.04.4-.03.18-.04.29-.04.33,0,.64.02,1.18.06,1.63,0,.04-.02.06-.05.07-.07,0-.13,0-.18-.03-.07-.12-.16-.32-.27-.62-.11-.3-.29-.64-.51-1.03-.15-.26-.27-.41-.36-.46-.09-.05-.27-.07-.54-.07-.06,0-.34,0-.84-.02-.14,0-.27,0-.4,0l-2.64.06h-.23c-.34,0-.54.04-.61.13-.1.15-.16.58-.16,1.3,0,.07.02.81.05,2.22v1.28c.07.02.14.03.22.03h.16c.1,0,.26,0,.46,0,.32.01.54.02.65.02.07,0,.14,0,.19,0,.67-.02,1.52-.04,2.57-.04.33-.06.52-.12.57-.19.09-.11.16-.4.21-.87.05-.47.15-.73.31-.79.08,0,.15.02.22.05.01.05.02.1.02.14s0,.11-.02.21c-.03.23-.05.94-.05,2.14,0,.32.02.68.05,1.07.03.39.05.61.05.64,0,.06,0,.13-.03.22-.05.02-.09.04-.12.04h-.06c-.1-.17-.19-.44-.29-.8-.16-.62-.33-1.01-.5-1.17-.18-.16-.46-.24-.85-.24-.09,0-.24,0-.47.01-.23,0-.57.01-1.02.01h-.6c-.86,0-1.42.02-1.68.06v.31s0,1.7,0,1.7v1.07s0,1.05,0,1.05c0,.63.05.99.12,1.09.1.14.33.2.68.2h.56s.24,0,.58,0c.34,0,.75.01,1.24.01,1.19,0,1.98-.05,2.37-.15s.72-.28.97-.54c.26-.26.58-.82.97-1.68.12-.25.23-.38.35-.38.06,0,.12.02.18.07-.18.61-.28,1.01-.3,1.2-.07.43-.11.87-.12,1.32,0,.2-.05.37-.15.51h-.2l-2.6.03h-1.16s-2.77.03-2.77.03h-1.13c-.14,0-.27,0-.4,0-1.11.05-1.93.07-2.45.07-.09,0-.16-.02-.19-.04-.03-.03-.05-.08-.05-.14v-.09Z"/>
        <path class="cls-1" d="m203.14,146.94c.19-.13.54-.22,1.03-.28.39-.02.62-.05.69-.1.05-.04.09-.08.11-.14.09-.23.16-.84.2-1.85.06-1.31.15-3.06.27-5.24.1-1.66.15-2.7.15-3.11v-.24c-.45-.09-1.15-.19-2.11-.3-.06-.09-.09-.16-.09-.21,0-.03.02-.09.06-.17.1-.04.18-.06.24-.06.05,0,.16.01.32.04.3.04.72.06,1.24.06.17,0,.47-.01.89-.04.29-.02.46-.03.5-.03.1,0,.21.02.34.06.06.06.11.12.14.18l.39.87,2.62,5.78,1.09,2.43c.85-1.69,1.52-3.2,1.99-4.52.03-.1.07-.19.11-.27.06-.1.11-.22.16-.35.05-.13.25-.62.6-1.48.14-.34.25-.64.34-.89.35-.99.56-1.55.62-1.69.12-.05.22-.07.31-.07.1,0,.23,0,.38.03.35.02.91.03,1.69.03.48,0,.88,0,1.19-.02.01.07.02.12.02.15,0,.04,0,.1-.03.18-.2.1-.43.16-.71.18-.55.03-.9.07-1.04.13-.15.06-.24.13-.28.21-.04.09-.08.37-.11.85v.42s0,.44,0,.44c0,.92.02,2.48.07,4.66v1.81s0,1.16,0,1.16c0,.46.02.73.06.81s.17.16.37.24c.33.11.87.22,1.63.34.04.03.06.07.06.12,0,.06,0,.12,0,.18h-.43c-.36,0-.76-.01-1.18-.03s-.65-.03-.69-.03c-1.26,0-2.1.01-2.52.04-.25.02-.41.03-.48.03-.04,0-.09-.01-.14-.04v-.12c0-.06,0-.11.03-.18.2-.09.48-.15.83-.18.39-.1.67-.22.85-.33.06-.23.08-.71.08-1.43l-.03-1.87c0-.2.01-.58.03-1.14.02-.56.03-1.46.03-2.71,0-.99-.02-1.74-.07-2.26-.1.22-.31.68-.62,1.4l-.14.35-.02.06-1.36,3.23-.49,1.25-.63,1.52c-.28.7-.51,1.31-.71,1.85-.09.25-.16.44-.21.58h-.22c-.7-2.04-1.53-4.13-2.49-6.26-.96-2.14-1.64-3.55-2.03-4.23-.05.26-.11,1.03-.17,2.31-.08,1.55-.12,3.26-.12,5.13,0,.58.04,1.24.13,1.97.02.21.11.36.27.47.15.1.55.16,1.19.17.25,0,.48.02.7.06.04.09.06.16.06.21,0,.03-.02.08-.05.16l-2.87-.1c-.21,0-.54.01-.98.04-.25.02-.6.03-1.06.03v-.25Z"/>
        <path class="cls-1" d="m219.03,135.72v-.29c.1-.02.19-.04.25-.05l.87-.05c.72-.06,1.53-.12,2.42-.15.36-.01.92-.02,1.69-.02,1.05,0,1.81.08,2.3.23.71.23,1.24.57,1.58,1.03.35.46.52.97.52,1.53,0,.91-.65,1.68-1.95,2.3l-.05.07c.67.18,1.21.43,1.64.75.42.32.75.71.98,1.17.17.34.25.78.25,1.33,0,.92-.42,1.74-1.25,2.45-.83.72-1.99,1.08-3.45,1.08h-1.38l-1.4.05c-1.23.01-1.95.02-2.16.02s-.43,0-.64-.03v-.1c0-.08.02-.13.05-.16.04-.04.11-.07.21-.09.77-.16,1.21-.27,1.31-.33.1-.06.17-.15.21-.28.07-.25.11-.88.11-1.9,0-.09,0-.21,0-.35-.01-.41-.02-.65-.02-.71v-.96c0-1.62-.02-3.04-.06-4.25v-1.85s-.02-.23-.02-.23c-.52-.07-.99-.12-1.39-.14-.26,0-.47-.03-.63-.06Zm3.66,4.67c.31.06.63.09.97.09,1.33,0,2.24-.29,2.71-.88.48-.59.71-1.17.71-1.75,0-.26-.04-.52-.12-.79-.08-.27-.23-.51-.44-.73-.21-.22-.48-.38-.79-.48-.54-.18-1.09-.27-1.65-.27-.52,0-1.01.06-1.46.18,0,.13,0,.22,0,.29s0,.24.02.53c0,.18,0,.37,0,.55l-.03,1.12v.67s.07,1.3.07,1.3v.17Zm2.18,6.28c.61-.04,1.12-.17,1.54-.39.19-.1.42-.28.68-.53.26-.26.47-.56.61-.92.14-.36.22-.7.22-1.03,0-.25-.05-.56-.15-.93-.1-.37-.27-.69-.52-.98-.24-.28-.61-.51-1.09-.69s-1.01-.27-1.59-.27c-1.12,0-1.75.02-1.89.06,0,.14,0,.25,0,.31v.34s0,.69,0,.69v.79c.02,1.45.05,2.3.1,2.57.05.27.22.49.5.68s.82.29,1.6.3Z"/>
        <path class="cls-1" d="m230.88,147.02c.06-.05.11-.09.16-.1.1-.03.28-.06.54-.07.6-.04.97-.09,1.11-.17.09-.12.13-.3.13-.52v-.65s0-2.35,0-2.35l-.02-1.11v-2.32s-.04-2.64-.04-2.64c0-.63-.05-.98-.12-1.06-.11-.12-.44-.19-.99-.2-.23,0-.44-.02-.62-.06-.08-.04-.12-.1-.12-.17,0-.05.02-.11.05-.18.06-.03.1-.05.15-.05.09,0,.19,0,.31,0,.36.04.74.06,1.13.06l.68-.02,1.63.04c.81,0,1.45,0,1.9-.03.46-.02.76-.03.92-.03.14,0,.49.01,1.05.04h1.31s.16.02.16.02l.77-.03.09.05s.05.1.06.16c0,.09-.01.22-.04.4-.03.18-.04.29-.04.33,0,.64.02,1.18.06,1.63,0,.04-.02.06-.05.07-.07,0-.13,0-.18-.03-.07-.12-.16-.32-.27-.62-.11-.3-.29-.64-.51-1.03-.15-.26-.27-.41-.36-.46-.09-.05-.27-.07-.54-.07-.06,0-.34,0-.84-.02-.14,0-.27,0-.4,0l-2.64.06h-.23c-.34,0-.54.04-.61.13-.1.15-.16.58-.16,1.3,0,.07.02.81.05,2.22v1.28c.07.02.14.03.22.03h.16c.1,0,.26,0,.46,0,.32.01.54.02.65.02.07,0,.14,0,.19,0,.67-.02,1.52-.04,2.57-.04.33-.06.52-.12.57-.19.09-.11.16-.4.21-.87.05-.47.15-.73.31-.79.08,0,.15.02.22.05.01.05.02.1.02.14s0,.11-.02.21c-.03.23-.05.94-.05,2.14,0,.32.02.68.05,1.07.03.39.05.61.05.64,0,.06,0,.13-.03.22-.05.02-.09.04-.12.04h-.06c-.1-.17-.19-.44-.29-.8-.16-.62-.33-1.01-.5-1.17-.18-.16-.46-.24-.85-.24-.09,0-.24,0-.47.01-.23,0-.57.01-1.02.01h-.6c-.86,0-1.42.02-1.68.06v.31s0,1.7,0,1.7v1.07s0,1.05,0,1.05c0,.63.05.99.12,1.09.1.14.33.2.68.2h.56s.24,0,.58,0c.34,0,.75.01,1.24.01,1.19,0,1.98-.05,2.37-.15s.72-.28.97-.54c.26-.26.58-.82.97-1.68.12-.25.23-.38.35-.38.06,0,.12.02.18.07-.18.61-.28,1.01-.3,1.2-.07.43-.11.87-.12,1.32,0,.2-.05.37-.15.51h-.2l-2.6.03h-1.16s-2.77.03-2.77.03h-1.13c-.14,0-.27,0-.4,0-1.11.05-1.93.07-2.45.07-.09,0-.16-.02-.19-.04-.03-.03-.05-.08-.05-.14v-.09Z"/>
        <path class="cls-1" d="m243.36,146.87c.9-.1,1.4-.18,1.52-.22.08-.03.15-.12.22-.28v-.1c0-.15.02-.71.07-1.67.01-.27.02-.54.02-.79l-.03-1.1.02-1.25v-2.32s0-1.66,0-1.66c0-.7-.05-1.13-.16-1.28-.11-.15-.41-.26-.88-.33s-.74-.11-.79-.14-.07-.08-.07-.15c0-.04,0-.1.03-.17.06-.06.2-.09.43-.09.03,0,.12,0,.25-.02.14-.02.27-.02.39-.02h.76l2.43-.03c1.37,0,2.34.1,2.89.3.55.2.99.55,1.32,1.03.33.48.49,1.02.49,1.62,0,1.13-.59,2-1.78,2.6-.2.1-.36.2-.48.28.21.44.5.98.88,1.6l1.17,2.01c.47.74.79,1.2.97,1.39.18.19.4.34.65.47.26.12.69.24,1.29.35,0,.06,0,.11,0,.15s0,.08,0,.14c-.84.01-1.83.02-2.97.02-.08,0-.19,0-.33-.02-.44-.84-.95-1.76-1.54-2.77l-1.37-2.5c-.19-.26-.34-.42-.46-.49-.12-.06-.28-.1-.48-.1h-.79s-.26,0-.26,0c-.02.2-.03.6-.03,1.21v3.16c0,.12.02.28.07.49.05.12.13.21.25.28s.47.18,1.04.32l.38.09c.05.06.07.15.07.25-.17.03-.28.05-.35.05-.55,0-.94,0-1.17-.02-.12,0-.21,0-.29,0l-1.25.02h-1.23c-.06,0-.33,0-.84.02l-.18-.04-.02-.09c0-.06.04-.12.13-.19Zm3.43-6.04c.17,0,.29,0,.37,0,.44,0,.95-.05,1.53-.16.41-.08.74-.21.99-.39.25-.18.46-.45.63-.81s.25-.73.25-1.11c0-.42-.13-.86-.4-1.33-.2-.36-.55-.65-1.03-.89s-1.06-.36-1.74-.36c-.17,0-.38,0-.65.03-.02.32-.04.57-.04.74l.05,1.72v.71c0,.48,0,1.09.03,1.84Z"/>
        <path class="cls-1" d="m262.01,135.76c.05.41.07.64.07.7l-.04.82c-.01.35-.03.58-.05.67-.06.02-.1.04-.14.04l-.08-.02c-.2-.86-.53-1.49-1-1.88s-1.05-.59-1.72-.59-1.28.2-1.73.59-.67.85-.67,1.38c0,.4.16.77.47,1.1.31.33,1.12.83,2.41,1.49.99.51,1.69.93,2.12,1.25.42.32.75.7.96,1.12.22.43.32.9.32,1.42,0,.66-.17,1.28-.51,1.86-.34.58-.8,1.02-1.38,1.31-.58.29-1.35.44-2.3.44-.83,0-1.63-.13-2.39-.4-.45-.16-.72-.29-.82-.39s-.15-.2-.15-.31c0-.07,0-.15.02-.26.09-.73.13-1.32.14-1.79.01-.29.03-.46.06-.51.02-.04.07-.06.14-.06.06,0,.1.02.13.06.03.04.06.12.07.23.07.76.42,1.44,1.05,2.03.63.6,1.34.9,2.13.9.49,0,.93-.1,1.34-.31.41-.2.73-.5.96-.88.23-.38.35-.76.35-1.12,0-.5-.18-.95-.53-1.37-.35-.41-1.06-.89-2.12-1.45-1.06-.55-1.75-.95-2.07-1.21-.52-.41-.91-.85-1.16-1.31-.19-.36-.29-.77-.29-1.25,0-.86.34-1.58,1.02-2.18.68-.59,1.59-.89,2.73-.89.63,0,1.17.07,1.63.21.33.11.67.29,1.03.55Z"/>
        <path class="cls-1" d="m264.09,147.31v-.2c.22-.12.46-.19.74-.22.44-.06.71-.11.83-.17.12-.06.2-.14.25-.25.09-.2.13-.41.13-.62l-.02-.7v-.65s0-.76,0-.76c0-.31,0-.71.03-1.18.02-.47.03-.72.03-.75v-2.52c0-.4,0-.83.03-1.3.02-.47.03-.79.03-.97,0-.53-.01-.84-.04-.92-.02-.09-.07-.15-.14-.19-.07-.04-.29-.07-.67-.1-.29-.02-.49-.05-.6-.06-.03-.07-.05-.12-.05-.17,0-.05,0-.11,0-.18.15-.01.26-.02.34-.02h.87c.62,0,1.27-.02,1.96-.06.34-.02.85-.05,1.53-.06.01.06.02.11.02.16,0,.06-.01.11-.04.14s-.08.06-.14.07c-.81.07-1.28.17-1.43.3-.15.13-.22.47-.22,1.01,0,1,.02,2.03.05,3.09l.04.87s.43.06,1.2.09c.21.01.33.02.37.02l1.36-.02.9.03,2.35-.07c.29,0,.47-.02.53-.04.04-1.07.06-2.1.06-3.1s-.02-1.53-.06-1.7c-.02-.1-.07-.17-.13-.21-.04-.02-.36-.07-.96-.15-.1-.01-.2-.03-.3-.05-.03-.09-.05-.2-.05-.32.21-.03.34-.05.4-.05l.61.03c.56.03,1.12.04,1.69.04.36,0,.97-.03,1.81-.09,0,.12-.02.23-.05.33-.23.09-.51.15-.84.18-.21.01-.39.05-.53.1-.12.09-.18.26-.18.53,0,.06,0,.13,0,.2,0,.22,0,.37,0,.43v1.73s0,.86,0,.86v1.61s0,1.52,0,1.52c0,.3,0,.77.03,1.41v1.25c0,.42.03.72.1.9.04.09.1.15.18.18l.75.17c.37.09.59.17.66.23s.11.13.11.21l-.03.11h-.05s-.07,0-.12,0c-.67-.12-1.38-.18-2.12-.18-.58,0-.99,0-1.23.03-.24.02-.75.09-1.52.2-.01-.08-.02-.14-.02-.18,0-.04,0-.1.02-.18.19-.11.49-.19.91-.23.31-.03.55-.13.73-.3.12-.11.18-.27.18-.49v-1.33c0-.4.02-.62.02-.66,0-.52,0-1.29-.03-2.29-.02-.09-.05-.14-.1-.16-.17-.06-.99-.04-2.46.04-.3.02-.52.03-.67.03s-.46,0-.93-.02c-.47-.02-.91-.02-1.31-.02-.22,0-.4,0-.54,0-.28,0-.44,0-.47,0-.14,0-.24.03-.29.08-.05.06-.08.16-.08.31v.65c0,.1,0,.69-.04,1.75,0,.22,0,.39,0,.54,0,.84.03,1.4.09,1.68.03.13.09.22.17.27.06.04.3.1.72.19.28.06.5.12.65.18l.06.09s-.01.06-.04.07c-.04.03-.09.05-.16.05-.05,0-.11,0-.18,0-.07,0-.2,0-.4-.01-.31,0-.71-.03-1.17-.06-.3-.02-.57-.04-.8-.04-.39,0-1.03.02-1.89.06-.17,0-.31.01-.42.01Z"/>
        <path class="cls-1" d="m278.51,146.86c.14-.06.27-.09.42-.1.94-.06,1.48-.17,1.62-.34.14-.16.2-.95.2-2.37v-.97s0-1.02,0-1.02l-.04-1.12.02-.66v-.72s0-.85,0-.85l-.02-.38.02-.48c0-.11,0-.24,0-.39,0-.39-.02-.8-.06-1.23-.02-.09-.06-.17-.1-.25-.23-.12-.6-.2-1.1-.24-.51-.04-.8-.08-.86-.13-.05-.04-.08-.13-.08-.29h.78l2.45.06c.63,0,1.47-.02,2.52-.06,0,.1,0,.19-.02.28-.12.03-.33.06-.62.1-.58.07-.94.13-1.07.19-.08.03-.14.08-.18.16-.06.11-.1.32-.11.62l-.05,1.19.04,4.12v1.63c-.01.51-.02.86-.02,1.04,0,.69.02,1.13.05,1.32.03.19.09.33.18.41s.22.15.41.2c.28.07.51.1.67.11.34.01.56.06.66.15.02.08.03.15.03.2v.07c-.56.02-.97.03-1.24.03-.15,0-.43,0-.82-.03l-1.28.02h-2.17s-.18,0-.18,0l-.02-.28Z"/>
        <path class="cls-1" d="m285.22,135.37c.11-.02.18-.03.21-.03.21,0,.55.01,1.03.04.25,0,.43,0,.52,0,.14,0,.42-.01.86-.04l1.57-.09c.41-.04.89-.06,1.44-.06.97,0,1.74.14,2.31.41.57.27,1.01.7,1.33,1.29s.47,1.17.47,1.74c0,.97-.34,1.8-1.02,2.5s-1.59,1.05-2.73,1.05c-.32,0-.59-.03-.8-.1-.22-.06-.46-.19-.74-.37-.12-.08-.19-.16-.21-.25.02-.04.06-.07.1-.09.09,0,.18.02.27.06.21.07.47.11.79.11.49,0,.95-.12,1.38-.36.43-.24.76-.58.98-1.02s.33-.91.33-1.4-.12-.95-.35-1.4c-.23-.45-.54-.81-.92-1.08-.22-.15-.55-.28-.99-.39s-.79-.16-1.04-.16c-.76,0-1.21.06-1.36.17v.13s.02,1.04.02,1.04v.19c-.02.17-.03.42-.03.77,0,1.26.02,2.04.06,2.34v.52l.12,4.22c0,.06,0,.18-.02.34-.02.17-.02.31-.02.43,0,.3.02.52.07.67.15.04.58.14,1.29.3.33.08.51.13.54.14.05.02.09.06.13.12-.02.09-.06.15-.1.18-.04.03-.12.04-.24.04-.07,0-.25-.02-.52-.05-.53-.06-.95-.08-1.25-.08l-1.63.06-.97-.03c-.06,0-.24,0-.54.02v-.24s1.19-.23,1.19-.23c.2-.06.32-.11.36-.17.06-.09.09-.26.09-.51,0-.06,0-.18,0-.36,0-.13,0-.31,0-.54,0-.73-.03-2.27-.09-4.64-.02-1.11-.04-2.23-.04-3.38v-.16c0-.44-.07-.72-.2-.84-.23-.2-.8-.37-1.71-.5-.03-.07-.05-.12-.05-.17,0-.05.02-.11.06-.18Z"/>
      </g>
      <g>
        <path class="cls-1" d="m197.6,102.03c-4.68-1.91-10.04-6.86-12.57-12.19-.24,0-.31.03-.59.03-4.68,7.03-11.36,12.19-15.86,13.99l-.1-.28c4.54-2.84,9.32-7.83,13.06-13.44.94-1.42,1.04-1.94,1.18-2.56l3.22.97c.24.07.59.24.59.62,0,.42-.31.48-.87.55,2.04,3.53,7.31,8.56,15.1,9.98v.28c-.97.38-2.25.94-3.15,2.04Zm.17,5.2h-14.17c-.35.73-.52,1.07-.9,1.73-1.42,2.36-2.98,4.61-4.71,6.72,3.84-.21,4.4-.28,14.13-1.32-1-1.87-2.25-3.6-3.91-4.92l.21-.21c7.65,3.88,8.14,7.97,8.14,8.52,0,.73-.48,1.46-1.32,1.46-.94,0-1.28-.73-1.49-1.25-.48-1.25-.8-2.01-1.39-3.15-12.44,2.67-14.2,3.05-17.94,3.6-.38.69-.48.8-.69.8-.17,0-.31-.14-.45-.48l-1.35-3.15c1.07.17,1.66.21,2.56.21s2.29-.03,3.01-.07c1.18-2.77,2.18-5.61,3.05-8.49h-4.75c-.69,0-2.81.07-4.43.38l-.83-1.49c1.8.17,3.95.28,5.75.28h16.8l1.63-1.66c.38-.38.42-.42.52-.42.21,0,.48.24.66.35l2.04,1.66c.14.1.35.28.35.52,0,.38-.35.38-.52.38Zm-7.55-5.96h-8.52c-1.21,0-3.15.14-4.47.38l-.8-1.49c2.6.21,5.09.28,5.75.28h4.02l1.42-1.49c.35-.38.42-.42.55-.42.17,0,.49.24.62.35l1.63,1.49c.14.14.31.31.31.52,0,.31-.28.38-.52.38Z"/>
        <path class="cls-1" d="m215.02,115.68c-.48.07-.76.07-1.63.21-3.67,2.08-8,3.64-11.46,3.78l-.07-.24c2.42-.69,5.51-2.25,7.17-3.22,2.67-1.59,3.08-2.29,3.5-3.29l2.84,1.8c.28.17.35.28.35.45,0,.21-.07.42-.69.52Zm12.92-15.31c0,1.28-.03,1.7.07,5.47.03,1.77.21,4.57.21,6.34,0,.38,0,.76-.48,1.14-.31.21-.66.31-.87.31-.69,0-.69-.48-.69-1.39h-16.42c-.07,1.04-.1,1.8-1.45,1.8-.66,0-.73-.45-.73-.83,0-1.07.14-2.74.17-3.78.1-2.53.14-4.68.14-6.23,0-4.09-.17-4.85-.42-5.65l2.56.97h15.9l.62-.66c.24-.28.38-.42.55-.42.14,0,.31.14.52.28l1.18.9c.35.28.48.45.48.66,0,.38-.42.59-1.35,1.07Zm-.03-9.56c-.1.07-.69.42-.8.52,0,.97,0,1.39.03,2.08,0,.31.1,1.73.1,2.01,0,.83-.52,1.32-1.21,1.32-.8,0-.8-.52-.76-1.14h-14.55c0,.28.03.59-.1.87-.21.48-.87.66-1.21.66s-.76-.14-.76-.62c0-.21.14-1.14.14-1.35.03-.69.07-1.32.07-1.77,0-1.07,0-4.19-.17-4.95l2.49,1.42h13.82l.8-.87c.1-.14.31-.38.48-.38.14,0,.28.14.45.28l1.21.97c.21.17.31.28.31.48s-.1.31-.35.48Zm-1.73,8.56h-16.38v3.29h16.38v-3.29Zm0,4.12h-16.38v3.26h16.38v-3.26Zm0,4.09h-16.38v3.84h16.38v-3.84Zm-.87-16.9h-14.62v4.09h14.62v-4.09Zm4.16,28.89c-.83,0-1.28-.48-2.18-1.45-1.73-1.91-2.49-2.49-6.34-4.64l.07-.14c3.91.76,6.65,1.87,7.79,2.56.42.28,1.84,1.21,1.84,2.6,0,.83-.69,1.07-1.18,1.07Z"/>
        <path class="cls-1" d="m249.87,91.95c-4.19,7.48-9.98,12.4-15.14,14.24l-.14-.28c6.89-4.33,11.46-10.53,13.4-15.17h-3.22c-.69,0-2.81.07-4.43.42l-.83-1.52c1.8.17,3.95.28,5.75.28h2.18l1.04-.69c.28-.17.38-.21.52-.21.24,0,.45.21.69.42l1.11,1.04c.21.21.42.42.42.69,0,.45-.35.55-1.35.8Zm15.93,26.43h-24.42c-.69,0-2.81.07-4.43.42l-.83-1.49c1.8.14,3.95.24,5.75.24h10.91c.62-1.59,1.28-3.95,1.28-4.99,0-.14,0-.35-.07-.69h-8.24c.62.35,3.19,2.11,3.19,3.91,0,.73-.66,1.28-1.32,1.28-.87,0-.97-.59-1.21-2.32-.21-1.28-.31-1.73-.9-2.67l.21-.21h-.8c-.24.94-1.21.94-1.32.94-.42,0-.59-.17-.59-.69,0-.17,0-.45.03-.59.07-.9.07-2.22.07-3.15,0-1.11,0-2.39-.24-4.23l2.08,1.07h11.4l.73-.59c.28-.24.31-.28.42-.28s.31.14.42.21l1.28.94c.14.1.31.31.31.52,0,.14-.03.31-.21.45-.1.07-.69.35-.83.42,0,.52,0,.97.07,2.25,0,.31.1,1.8.1,2.15,0,1.18-1.28,1.25-1.39,1.25-.42,0-.62-.24-.62-.66h-2.18l2.18,1.25c.07.03.42.28.42.48,0,.31-.24.45-1.07.83-.03.03-.17.24-.28.35-.66.76-1.7,2.01-2.36,2.77h8.38l1.56-1.59c.35-.38.38-.42.52-.42.24,0,.45.21.59.35l1.63,1.59c.07.1.31.31.31.52,0,.38-.38.38-.52.38Zm-22.93-21.02c-.66,0-.8-.35-1.35-1.59-.87-2.01-1.42-2.67-1.9-3.26l.24-.17c1.07.52,2.08,1.21,3.01,1.97.52.42,1.14.97,1.14,1.84s-.69,1.21-1.14,1.21Zm13.92,4.4h-6.58c-1.21,0-3.15.17-4.47.42l-.8-1.49c2.6.21,5.09.24,5.75.24h2.94l1.07-1.11c.35-.38.38-.42.52-.42.21,0,.49.21.62.35l1.07,1.11c.28.31.38.35.38.55,0,.35-.42.35-.52.35Zm-.17,4.29h-11.67v4.99h11.67v-4.99Zm7.59-2.6c-5.13-3.01-9.91-6.93-12.26-15l.42-.21c.59,1.8,1.32,3.53,2.77,5.47.87-.9,2.81-3.33,3.08-4.99l2.15,1.59c.17.1.38.35.38.55,0,.45-.55.45-1.39.45-1.91,1.39-2.94,2.11-3.98,2.7,1.14,1.46,1.8,2.08,2.6,2.81,1.91-1.8,3.29-4.12,3.64-5.02l2.15,1.59c.59.42.59.48.59.66,0,.42-.48.42-.66.42-.38,0-.62-.03-1-.1-2.08,1.32-3.05,1.94-4.43,2.7,1.87,1.56,5.2,3.81,9.46,4.09v.24c-1.56.48-2.77.83-3.5,2.04Z"/>
        <path class="cls-1" d="m281.08,95.62c-.69,0-.83-.21-1.77-2.01-.14-.24-1.18-1.77-2.56-2.67-2.39,4.23-6.3,9.01-8.56,10.56l-.14-.1c3.12-4.09,6.3-10.11,6.75-11.53.38-1.11.35-1.39.28-1.91l2.74,1.25c.14.07.21.21.21.38,0,.35-.24.52-1,.87l-.03.1c1.56.31,3.15,1.46,3.67,1.84.76.55,1.42,1.11,1.42,1.97,0,.59-.31,1.25-1,1.25Zm.31,9.49h-4.75v10.29c1.9-.35,3.08-.69,3.84-.9l.14.24c-1.63.8-9.04,3.26-9.56,3.36-.03.45-.07,1.04-.55,1.04-.24,0-.38-.21-.48-.42l-1.39-2.56c.35.07.66.14,1.18.14.83,0,3.53-.35,5.06-.59v-10.6h-.97c-1.21,0-3.15.17-4.47.42l-.8-1.49c2.6.21,5.09.24,5.75.24h.48v-4.57h-1.32c-.55,0-1.35.03-1.9.17l-.35-1.14c.62.03,1.94.14,2.46.14h3.53l.76-.9c.28-.35.45-.48.62-.48s.28.1.66.48l.76.8c.28.28.35.38.35.55,0,.24-.21.38-.52.38h-3.29v4.57h1.97l.8-.94c.28-.31.38-.45.55-.45.21,0,.35.14.69.45l.9.87c.21.21.35.35.35.55,0,.31-.28.35-.52.35Zm-9.46,8.35c-.76,0-.97-.55-1.07-1.35-.17-1.46-.76-3.01-1.49-3.67l.17-.24c.94.45,3.5,2.11,3.5,3.91,0,.8-.45,1.35-1.11,1.35Zm8.76-3.95c-.21.28-.31.52-1.49,2.11-.24.35-.94,1.14-1.42,1.7l-.17-.1c.62-1.52,1.21-4.02,1.28-4.3.03-.28.17-1.49.24-1.73l2.39,1.28c.31.17.45.21.45.45,0,.38-.69.48-1.28.59Zm2.88,5.47c-.07.62-.1.9-.42.9-.17,0-.38-.17-.48-.35l-1.49-2.32c.8,0,2.01-.49,2.84-.83,1.7-.69,3.39-1.42,4.92-2.46l.14.24c-.76,1.04-3.88,3.53-5.51,4.81Zm14.83,2.04c-4.4-5.09-5.72-9.32-6.23-15.79h-.76v5.2c0,1.84,0,2.32.17,6.55,0,.42.1,2.29.1,2.67,0,2.63-1.91,3.36-3.29,3.84-.55-1.77-1.28-2.22-3.01-3.08v-.17c.52.03,2.7.14,2.98.14.97,0,1.45-.21,1.52-.94.03-.69,0-12.68,0-14.2h-2.84c-1.25,0-3.15.14-4.47.38l-.8-1.49c2.56.21,5.09.28,5.75.28h5.82l.1-4.85h-4.5c-1.21,0-3.15.14-4.47.42l-.8-1.49c2.6.21,5.09.24,5.75.24h4.02l.07-3.88h-4.88c-1.25,0-3.15.14-4.47.42l-.83-1.52c2.6.24,5.13.28,5.78.28h4.19l.73-.76c.1-.14.28-.31.48-.31.14,0,.35.14.55.28l1.25.83c.14.07.35.24.35.45,0,.28-.28.48-1.35,1.04l-.17,8.87h2.08l.8-.94c.21-.28.35-.42.52-.42s.38.21.55.38l.8.83c.31.31.38.38.38.59,0,.31-.28.38-.52.38h-7.14c.24,3.12,1.04,5.2,1.52,6.44.8-.59,1.8-1.63,2.39-2.46.38-.59.59-1.14.69-1.49l2.08,1.52c.1.07.28.21.28.45,0,.21-.21.48-.55.48-.14,0-.38-.03-.55-.07-1.52.87-3.36,1.66-4.16,1.94,1.45,3.22,3.67,5.78,6.79,7.38v.14c-1.56.1-2.36,1.04-2.7,1.46Zm-12.23-8.87c-.73,0-.83-.35-1.35-1.73-.14-.31-1-1.94-1.66-2.49l.14-.17c.35.14.48.21,1.77.69,1.25.48,2.25,1.52,2.25,2.42,0,.62-.42,1.28-1.14,1.28Z"/>
      </g>
      <g>
        <path class="cls-1" d="m160.55,177.48c-1.03-.44-2.17-1.11-3.41-2.03-1.24-.92-2.27-1.87-3.09-2.87-.7.94-1.69,1.9-2.97,2.86-1.29.96-2.47,1.68-3.55,2.15l-.53-.74c.89-.38,2.03-1.08,3.4-2.1,1.37-1.03,2.33-1.99,2.87-2.88h1.49c.75.93,1.73,1.84,2.95,2.74s2.4,1.57,3.55,2.03l-.7.85Zm-12.41,7.08l-.15-.94c.5,0,1.17-.03,1.99-.06.73-1.01,1.43-2.18,2.1-3.49h-4.23v-.87h12.45v.87h-6.93c-.7,1.24-1.43,2.39-2.17,3.44,2.94-.13,5.11-.28,6.5-.44-.67-.82-1.21-1.42-1.63-1.82l.88-.49c.39.36.92.92,1.57,1.67.66.75,1.14,1.35,1.46,1.79l-1.02.5c-.16-.23-.37-.53-.65-.89-.9.12-2.51.25-4.82.41s-4.1.26-5.37.31Zm2.18-7.51v-.87h7.61v.87h-7.61Z"/>
        <path class="cls-1" d="m162.27,184.71l-.35-.82c.62-.12,1.37-.32,2.23-.61.86-.29,1.5-.55,1.92-.8l.75.72c-.51.31-1.23.61-2.15.91-.92.3-1.72.5-2.41.61Zm.92-2.37v-6.33h10.48v6.33h-10.48Zm.53-7.12v-2.89h9.52v2.89h-9.52Zm.54,2.59h8.33v-1.01h-8.33v1.01Zm0,1.8h8.33v-1.01h-8.33v1.01Zm8.33.78h-8.33v1.09h8.33v-1.09Zm-.4-7.24h-7.45v1.27h7.45v-1.27Zm2.28,11.55c-.74-.14-1.56-.36-2.48-.65-.92-.29-1.61-.57-2.09-.86l.73-.75c1.28.55,2.74.99,4.38,1.32l-.54.93Z"/>
        <path class="cls-1" d="m176.47,181.52l-.61-.55c.52-.7,1.04-1.61,1.56-2.76.52-1.14.83-2.04.93-2.7h-1.9v-.85h1.99v-2.73h1.09v2.73h1.23v.85h-1.23v1.54c.2.32.69.83,1.47,1.54l-.58.78c-.26-.28-.56-.67-.9-1.16v6.46h-1.09v-6.54c-.49,1.24-1.15,2.38-1.97,3.4Zm4.26,1.99l-.4-.86c1.2-.39,2.43-.93,3.7-1.61l.23.82c-.43.28-1.6.83-3.53,1.65Zm3.81,1.03h-1.65l-.13-.96h1.35c.39,0,.59-.17.59-.5v-4.74h-3.55v-.82h3.55v-1.19h-3.23v-.8h3.23v-1.19h-3.51v-.81h1.9l-.68-1.41.97-.3.82,1.71h2.18l.85-1.69,1.06.28-.86,1.41h1.98v.81h-3.64v1.19h3.27v.8h-3.27v1.19h3.87v.82h-3.87v.6c.22.58.56,1.15,1.03,1.71.71-.43,1.41-.96,2.08-1.58l.73.66c-.75.6-1.49,1.12-2.21,1.56,1.01.99,1.87,1.7,2.57,2.13l-.77.75c-1.41-.99-2.56-2.17-3.43-3.54v2.92c0,.27-.12.5-.36.7-.24.19-.53.29-.87.29Zm-2.02-3.7c-.22-.35-.61-.88-1.17-1.58l.82-.5c.46.55.85,1.07,1.18,1.57l-.84.51Z"/>
        <path class="cls-1" d="m194.31,176.41c.19.22.46.63.8,1.22.27.62.4,1.24.4,1.85v.03c0,.35-.03.67-.1.97-.06.29-.16.54-.27.75s-.27.38-.45.51c-.18.13-.37.22-.57.26-.2.04-.49.07-.88.07h-.35l-.18-.92c.35,0,.64,0,.87-.01.23,0,.41-.08.54-.21.13-.13.22-.31.28-.54s.09-.52.09-.85c0-1.01-.38-1.98-1.13-2.93h0s0-.07-.02-.13c-.01-.07-.02-.11-.02-.12.15-.39.35-.99.59-1.78.24-.79.36-1.27.36-1.46h-1.99v11.57h-1.01v-12.42h4.09l.22.26c-.13.53-.34,1.24-.63,2.16-.29.91-.5,1.48-.65,1.72Zm.94,8.18l-.23-.89c.32-.03.8-.08,1.44-.16v-11.25h6.3v6.11h-2.71c.23.69.56,1.4.98,2.13.82-.5,1.57-1.02,2.25-1.57l.73.74c-.59.41-1.44.93-2.54,1.54.71,1,1.56,1.89,2.56,2.66l-.76.72c-2.02-1.56-3.45-3.63-4.27-6.21h-1.47v5.01c1.41-.19,2.47-.37,3.19-.54l.05.84c-1.43.36-3.27.66-5.54.88Zm2.3-9.68h4.15v-1.82h-4.15v1.82Zm4.15.79h-4.15v1.9h4.15v-1.9Z"/>
        <path class="cls-1" d="m208.59,181.07c.6.87,1.46,1.49,2.58,1.86l.13.04v-6.56h-3.85v-.85h8.72v.85h-3.75v2.62h4.59v.84h-4.59v3.39c.85.15,2.06.23,3.62.23.45,0,1.24-.01,2.38-.04l-.24.92h-1.18c-1.54,0-2.66-.02-3.36-.07s-1.39-.14-2.05-.28c-.66-.14-1.29-.38-1.9-.71-.61-.34-1.11-.73-1.49-1.18-.54,1.06-1.36,1.9-2.44,2.51l-.56-.71c.65-.39,1.16-.87,1.54-1.43.38-.56.65-1.16.82-1.79.17-.63.25-1.5.25-2.6v-.25h1.07c0,1.4-.1,2.47-.3,3.21Zm8.57-5.22v-1.63h-10.62v1.72h-1.01v-2.59h5.81v-1.57h1.13v1.57h5.74v2.5h-1.05Z"/>
        <path class="cls-1" d="m226.57,184.06l-.27-.95c1.51-.14,2.8-.58,3.88-1.32s1.61-1.85,1.61-3.33c0-1.31-.43-2.33-1.3-3.05-.87-.72-2.07-1.1-3.62-1.14-.05,2.53-.5,4.64-1.36,6.33-.85,1.69-1.93,2.54-3.21,2.54-.8,0-1.43-.34-1.88-1.02-.46-.68-.69-1.51-.69-2.48,0-1.61.69-3.06,2.08-4.34s3.04-1.93,4.94-1.93c1.79,0,3.26.45,4.42,1.34,1.16.9,1.74,2.12,1.74,3.67,0,1.77-.58,3.12-1.75,4.05-1.17.93-2.7,1.48-4.58,1.63Zm-.82-9.69c-1.36.21-2.53.82-3.52,1.85-.98,1.03-1.47,2.19-1.47,3.48,0,.69.14,1.27.43,1.74.29.48.69.72,1.2.72.88,0,1.64-.82,2.3-2.46s1.01-3.42,1.06-5.32Z"/>
        <path class="cls-1" d="m234.13,180.63l-.32-.91c.49-.11,1.38-.38,2.65-.81v-3.3h-1.25c-.15.84-.35,1.53-.59,2.07l-.88-.27c.19-.48.36-1.17.51-2.06.15-.89.23-1.78.23-2.67h1.04c-.03.74-.09,1.44-.18,2.12h1.13v-2.92h1.07v2.92h1.13v.81h-1.13v2.92c.59-.21,1.07-.39,1.43-.54l.22.78c-.28.17-.83.41-1.65.72v5.21h-1.07v-4.83c-.94.32-1.72.57-2.33.75Zm4.65,1.99l-.66-.53c.77-.83,1.48-1.93,2.12-3.28.64-1.36,1.09-2.71,1.33-4.04h-1.01c-.43.92-.88,1.7-1.37,2.34l-.78-.47c.93-1.35,1.59-2.96,1.99-4.81l1.08.15c-.14.7-.34,1.37-.61,2.03h5.93v4.56c0,1.12-.05,2.11-.14,2.96s-.21,1.45-.35,1.79-.32.61-.56.79c-.24.19-.47.3-.69.36s-.77.08-1.64.08c-.22,0-.4,0-.54,0l-.16-.94h1.47c.34,0,.62-.12.86-.37s.4-.8.51-1.67c.11-.87.16-1.88.16-3.03v-3.76h-.74c-.24,2.12-.76,4.05-1.56,5.79-.8,1.74-1.7,3.06-2.71,3.95l-.68-.58c.97-.98,1.82-2.33,2.56-4.05.73-1.72,1.19-3.42,1.38-5.11h-1.39c-.21,1.29-.66,2.67-1.34,4.15-.68,1.47-1.5,2.71-2.46,3.71Z"/>
        <path class="cls-1" d="m250.33,184.66v-7.3c-.54.88-1.08,1.62-1.63,2.22l-.69-.58c.8-1,1.56-2.18,2.26-3.54.7-1.36,1.18-2.57,1.43-3.62l1.12.2c-.25.97-.83,2.29-1.73,3.96h.36v8.66h-1.12Zm2.15-5.04v-.87h4.33v-3.55h-2.36c-.37.9-.72,1.56-1.04,1.99l-.87-.41c.32-.52.66-1.23,1.01-2.13.35-.9.59-1.69.72-2.37l1.07.18c-.1.52-.29,1.14-.55,1.87h2.02v-2.51h1.13v2.51h3.62v.88h-3.62v3.55h4.15v.87h-4.15v4.93h-1.13v-4.93h-4.33Z"/>
        <path class="cls-1" d="m271.48,181.99h-1.04v-2.31c0-.27,0-.5-.02-.7-2.16,1.08-3.24,2.07-3.24,2.95,0,.44.24.79.73,1.05.48.26,1.5.39,3.06.39,1.85,0,3.32-.09,4.42-.26l.07,1.02c-1.12.13-2.41.2-3.87.2-2.26,0-3.73-.2-4.42-.59-.69-.39-1.03-.96-1.03-1.69,0-.65.3-1.3.91-1.94.61-.64,1.67-1.33,3.17-2.07-.19-.42-.54-.63-1.04-.63-.56,0-1.17.1-1.82.31-.65.2-1.46.72-2.42,1.54l-1.17.99-.61-.72c1.72-1.33,3-2.87,3.85-4.62h-3.28v-.92h3.67c.22-.56.38-1.12.5-1.69l1.17.1c-.12.54-.28,1.07-.48,1.59h5.23v.92h-5.61c-.26.54-.72,1.25-1.37,2.14l.11.06c.18-.12.54-.23,1.08-.34s.96-.17,1.25-.17c.91,0,1.53.34,1.87,1.02l4.15-1.6.47.95c-.98.32-2.43.84-4.35,1.56.06.35.08.8.08,1.33v2.13Z"/>
        <path class="cls-1" d="m279.11,184.66h-1.47l-.11-.94h1.12c.34,0,.51-.14.51-.43v-4.16c-.69.26-1.28.48-1.78.65l-.26-.96c.43-.11,1.11-.33,2.04-.66v-2.9h-1.66v-.84h1.66v-2.61h1.11v2.61h1.37v.84h-1.37v2.48c.64-.24,1.11-.44,1.42-.58l.19.78c-.28.17-.82.42-1.61.75v4.95c0,.31-.11.56-.32.75s-.49.27-.84.27Zm8.67-2.54c0,.19-.1.37-.29.52s-.47.25-.83.28c-.36.03-.95.05-1.77.05-.76,0-1.25-.03-1.49-.08s-.41-.16-.53-.32c-.12-.16-.18-.37-.18-.62v-2.38c-.49.47-.93.85-1.32,1.13l-.54-.63c.39-.26.87-.71,1.45-1.35.58-.63,1.04-1.24,1.38-1.83h-.98v-4.7h6.74v4.7h-4.61c-.23.41-.44.76-.63,1.03h5.91v1.76c.01,1.29-.05,2.34-.19,3.14s-.35,1.29-.64,1.47c-.29.18-.56.28-.82.32-.25.03-.93.04-2.02.03l-.12-.94c.79,0,1.31,0,1.56-.02.25-.03.45-.09.58-.19.13-.1.24-.26.32-.48.08-.22.13-.68.17-1.37s.05-1.65.03-2.88h-5.33v1.33c1.6-.26,2.77-.53,3.52-.8l.37.7c-.76.26-2.05.51-3.88.77v.78c0,.3.09.48.26.54.18.06.48.09.91.09.31,0,.64,0,.97-.02s.55-.03.65-.04.19-.05.28-.12c.08-.07.15-.17.18-.3.04-.13.06-.4.06-.82l.82.08v1.16Zm-4.02-7.93h4.59v-1.23h-4.59v1.23Zm4.59.73h-4.59v1.22h4.59v-1.22Z"/>
        <path class="cls-1" d="m302.15,181.63c.21.38.47.75.79,1.13.32.38.58.57.76.57s.31-.2.37-.59.1-.94.12-1.63l.87.15c0,.71-.06,1.38-.14,2-.08.62-.21,1.01-.37,1.16-.16.15-.38.23-.66.23-.2,0-.4-.04-.58-.13-.19-.09-.47-.33-.83-.72-.37-.39-.69-.8-.98-1.23-.64.86-1.29,1.56-1.94,2.11l-.61-.62c.7-.64,1.37-1.44,2.02-2.42-.7-1.44-1.14-3.4-1.32-5.9h-7.77v-.82h3.25v-1.18h-2.68v-.82h2.68v-1.01h1.12v1.01h2.53v.82h-2.53v1.18h3.35l-.04-3.08h1.16v1.35c0,.75,0,1.32.02,1.73h3.82v.82h-3.78c.13,2.02.41,3.62.85,4.79.7-1.26,1.21-2.46,1.52-3.59l1.06.31c-.39,1.4-1.08,2.86-2.07,4.37Zm-10.24,1.68v-.73h3.28v-.85h-2.68v-3.42h2.68v-.8h-2.94v-.7h2.94v-.57h.99v.57h2.96v.7h-2.96v.8h2.63v3.42h-2.63v.85h3.04v.73h-3.04v1.28h-.99v-1.28h-3.28Zm1.57-3.6h1.7v-.8h-1.7v.8Zm1.7.58h-1.7v.82h1.7v-.82Zm.99-.58h1.66v-.8h-1.66v.8Zm1.66.58h-1.66v.82h1.66v-.82Zm5.01-5.85c-.24-.48-.6-1.11-1.08-1.9l.88-.37c.31.48.68,1.1,1.13,1.85l-.94.42Z"/>
        <path class="cls-1" d="m317.59,180.16h-4.34v4.47h-1.11v-4.47h-4.22v.66h-1.08v-6.69h5.3v-2.19h1.11v2.19h5.4v6.69h-1.06v-.66Zm-9.67-.82h4.22v-4.38h-4.22v4.38Zm5.33,0h4.34v-4.38h-4.34v4.38Z"/>
        <path class="cls-1" d="m328,173.16l-.19,7.73h-1.1l-.2-7.73h1.49Zm-.03,10.62h-1.44v-1.49h1.44v1.49Z"/>
      </g>
    </g>
  </g>
</svg>