<?xml version="1.0" encoding="UTF-8"?>
<svg id="_レイヤー_2" data-name="レイヤー 2" xmlns="http://www.w3.org/2000/svg" viewBox="0 0 475 272.31">
  <defs>
    <style>
      .cls-1 {
        fill: #fff;
      }

      .cls-2 {
        fill: none;
      }

      .cls-3 {
        fill: #231815;
      }
    </style>
  </defs>
  <g id="_レイヤー_1-2" data-name="レイヤー 1">
    <g>
      <rect class="cls-2" width="475" height="272.31"/>
      <polygon class="cls-1" points="463.12 242.76 463.12 263.41 442.48 263.41 463.12 242.76"/>
    </g>
    <g>
      <g>
        <path d="m168.2,147.07c.06-.05.11-.09.16-.1.1-.03.28-.06.54-.07.6-.04.97-.09,1.11-.17.09-.12.13-.3.13-.52v-.65s0-2.35,0-2.35l-.02-1.11v-2.32s-.04-2.64-.04-2.64c0-.63-.05-.98-.12-1.06-.11-.12-.44-.19-.99-.2-.23,0-.44-.02-.62-.06-.08-.04-.12-.1-.12-.17,0-.05.02-.11.05-.18.06-.03.1-.05.15-.05.09,0,.19,0,.31,0,.36.04.74.06,1.13.06l.68-.02,1.63.04c.81,0,1.45,0,1.9-.03.46-.02.76-.03.92-.03.14,0,.49.01,1.05.04h1.31s.16.02.16.02l.77-.03.09.05s.05.1.06.16c0,.09-.01.22-.04.4-.03.18-.04.29-.04.33,0,.64.02,1.18.06,1.63,0,.04-.02.06-.05.07-.07,0-.13,0-.18-.03-.07-.12-.16-.32-.27-.62-.11-.3-.29-.64-.51-1.03-.15-.26-.27-.41-.36-.46-.09-.05-.27-.07-.54-.07-.06,0-.34,0-.84-.02-.14,0-.27,0-.4,0l-2.64.06h-.23c-.34,0-.54.04-.61.13-.1.15-.16.58-.16,1.3,0,.07.02.81.05,2.22v1.28c.07.02.14.03.22.03h.16c.1,0,.26,0,.46,0,.32.01.54.02.65.02.07,0,.14,0,.19,0,.67-.02,1.52-.04,2.57-.04.33-.06.52-.12.57-.19.09-.11.16-.4.21-.87.05-.47.15-.73.31-.79.08,0,.15.02.22.05.01.05.02.1.02.14s0,.11-.02.21c-.03.23-.05.94-.05,2.14,0,.32.02.68.05,1.07.03.39.05.61.05.64,0,.06,0,.13-.03.22-.05.02-.09.04-.12.04h-.06c-.1-.17-.19-.44-.29-.8-.16-.62-.33-1.01-.5-1.17-.18-.16-.46-.24-.85-.24-.09,0-.24,0-.47.01-.23,0-.57.01-1.02.01h-.6c-.86,0-1.42.02-1.68.06v.31s0,1.7,0,1.7v1.07s0,1.05,0,1.05c0,.63.05.99.12,1.09.1.14.33.2.68.2h.56s.24,0,.58,0c.34,0,.75.01,1.24.01,1.19,0,1.98-.05,2.37-.15s.72-.28.97-.54c.26-.26.58-.82.97-1.68.12-.25.23-.38.35-.38.06,0,.12.02.18.07-.18.61-.28,1.01-.3,1.2-.07.43-.11.87-.12,1.32,0,.2-.05.37-.15.51h-.2l-2.6.03h-1.16s-2.77.03-2.77.03h-1.13c-.14,0-.27,0-.4,0-1.11.05-1.93.07-2.45.07-.09,0-.16-.02-.19-.04-.03-.03-.05-.08-.05-.14v-.09Z"/>
        <path d="m180.05,146.91c.09-.05.16-.07.23-.07h.21s.12,0,.22,0c.47-.04.75-.09.84-.13.22-.12.4-.32.55-.61.32-.63.68-1.52,1.08-2.67.19-.55.31-.88.36-1,.15-.37.3-.76.44-1.16l.87-2.43c.14-.38.46-1.26.98-2.62.13-.34.29-.81.47-1.39l.27-.02h.32c.26.53.5,1.1.7,1.7.11.32.29.8.54,1.43l1.4,3.8.75,2.06c.39,1.17.65,1.89.78,2.16s.24.45.34.53c.03.02.15.06.35.11s.34.09.42.11c.28.08.48.15.59.2.02.07.04.12.04.16,0,.03,0,.08-.03.14-.2,0-.34,0-.42,0-.31,0-.87,0-1.66-.03l-.92-.02h-1.12c-.07.01-.15.01-.23,0-.08,0-.14-.01-.2-.01h-.2c-.07,0-.13-.02-.18-.06,0-.09.02-.17.05-.25.07-.04.14-.06.2-.06l.97-.06c.25-.01.44-.05.57-.1.04-.11.06-.19.06-.25,0-.11-.08-.4-.24-.86-.11-.31-.21-.6-.29-.88-.08-.28-.41-1.19-.98-2.74-.25-.04-.47-.06-.67-.06l-1.98.02h-.58c-.21,0-.44,0-.69.04-.08.19-.13.32-.16.4l-.81,2.54c-.35.97-.52,1.5-.52,1.6,0,.06.03.15.08.28.13.04.3.07.52.1l1.26.11c.07.06.1.1.1.15,0,.03,0,.08-.03.14-.28,0-.49,0-.64,0-.49,0-1.07-.02-1.72-.05-.3-.01-.52-.02-.65-.02s-.35,0-.67.02c-.21.01-.36.02-.45.02-.15,0-.34,0-.57-.03v-.06s.01-.1.04-.18Zm4.41-5.54c.66.04,1.41.06,2.25.06.48,0,.9-.02,1.27-.05-.06-.24-.13-.46-.21-.67-.4-1.07-.62-1.66-.66-1.77l-.84-2.13-.09-.17c-.04.07-.17.39-.41.95-.39.96-.68,1.71-.85,2.24-.08.24-.16.48-.25.72-.09.24-.14.4-.16.5-.02.1-.05.19-.1.29l.06.04Z"/>
        <path d="m200.31,135.8c.05.41.07.64.07.7l-.04.82c-.01.35-.03.58-.05.67-.06.02-.1.04-.14.04l-.08-.02c-.2-.86-.53-1.49-1-1.88s-1.05-.59-1.72-.59-1.28.2-1.73.59-.67.85-.67,1.38c0,.4.16.77.47,1.1.31.33,1.12.83,2.41,1.49.99.51,1.69.93,2.12,1.25.42.32.75.7.96,1.12.22.43.32.9.32,1.42,0,.66-.17,1.28-.51,1.86-.34.58-.8,1.02-1.38,1.31-.58.29-1.35.44-2.3.44-.83,0-1.63-.13-2.39-.4-.45-.16-.72-.29-.82-.39s-.15-.2-.15-.31c0-.07,0-.15.02-.26.09-.73.13-1.32.14-1.79.01-.29.03-.46.06-.51.02-.04.07-.06.14-.06.06,0,.1.02.13.06.03.04.06.12.07.23.07.76.42,1.44,1.05,2.03.63.6,1.34.9,2.13.9.49,0,.93-.1,1.34-.31.41-.2.73-.5.96-.88.23-.38.35-.76.35-1.12,0-.5-.18-.95-.53-1.37-.35-.41-1.06-.89-2.12-1.45-1.06-.55-1.75-.95-2.07-1.21-.52-.41-.91-.85-1.16-1.31-.19-.36-.29-.77-.29-1.25,0-.86.34-1.58,1.02-2.18.68-.59,1.59-.89,2.73-.89.63,0,1.17.07,1.63.21.33.11.67.29,1.03.55Z"/>
        <path d="m201.85,135.31h.44c.16,0,.51,0,1.05.02.84.03,1.53.05,2.09.05l1.08-.02c.15,0,.3.01.44.04.04.05.06.1.06.16v.1l-.23.11h-.62s-.27,0-.27,0c-.21,0-.38.05-.51.14-.1.07-.15.14-.15.21,0,.08.04.18.13.31.03.05.08.12.15.22.12.21.29.45.49.73.29.41.6.89.92,1.44.13.22.27.43.41.64l1.41,2.13c.09-.12.22-.29.38-.52l1.33-1.91,1.54-2.3c.14-.21.22-.36.24-.46.01-.05.02-.1.02-.16,0-.13-.06-.23-.18-.31-.19-.13-.6-.23-1.24-.29-.04,0-.1-.02-.18-.03-.04-.07-.06-.14-.06-.18,0-.04,0-.08,0-.12h.48s1.74.04,1.74.04l1.4-.03s.17,0,.39,0l-.03.32s-.11.02-.2.03l-.22.03s-.1.01-.18.02c-.13.05-.23.1-.31.16-.91.96-1.68,1.86-2.31,2.71-.63.85-1.17,1.62-1.61,2.32-.14.23-.26.4-.34.51-.16.21-.26.36-.29.46-.07.24-.1.6-.1,1.09,0,1.92.03,3.05.1,3.4.04.17.09.28.15.31.16.08.8.18,1.91.29v.11c0,.07-.02.16-.06.26l-2.37-.1-1.58.08h-1.3c-.12,0-.26,0-.41,0-.02-.07-.04-.12-.04-.15s0-.07.03-.13c.04-.04.09-.06.13-.06l1.2-.18c.41-.14.65-.23.7-.28.07-.07.12-.19.14-.34,0-.11,0-.97,0-2.57,0-.6-.02-.96-.06-1.09s-.17-.37-.39-.7l-1.21-1.84-2.06-3c-.36-.52-.67-.87-.93-1.05-.12-.08-.41-.14-.88-.18-.05,0-.12,0-.22-.02l-.03-.4Z"/>
        <path d="m223.79,146.92c.9-.1,1.4-.18,1.52-.22.08-.03.15-.12.22-.28v-.1c0-.15.02-.71.07-1.67.01-.27.02-.54.02-.79l-.03-1.1.02-1.25v-2.32s0-1.66,0-1.66c0-.7-.05-1.13-.16-1.28-.11-.15-.41-.26-.88-.33s-.74-.11-.79-.14-.07-.08-.07-.15c0-.04,0-.1.03-.17.06-.06.2-.09.43-.09.03,0,.12,0,.25-.02.14-.02.27-.02.39-.02h.76l2.43-.03c1.37,0,2.34.1,2.89.3.55.2.99.55,1.32,1.03.33.48.49,1.02.49,1.62,0,1.13-.59,2-1.78,2.6-.2.1-.36.2-.48.28.21.44.5.98.88,1.6l1.17,2.01c.47.74.79,1.2.97,1.39.18.19.4.34.65.47.26.12.69.24,1.29.35,0,.06,0,.11,0,.15s0,.08,0,.14c-.84.01-1.83.02-2.97.02-.08,0-.19,0-.33-.02-.44-.84-.95-1.76-1.54-2.77l-1.37-2.5c-.19-.26-.34-.42-.46-.49-.12-.06-.28-.1-.48-.1h-.79s-.26,0-.26,0c-.02.2-.03.6-.03,1.21v3.16c0,.12.02.28.07.49.05.12.13.21.25.28s.47.18,1.04.32l.38.09c.05.06.07.15.07.25-.17.03-.28.05-.35.05-.55,0-.94,0-1.17-.02-.12,0-.21,0-.29,0l-1.25.02h-1.23c-.06,0-.33,0-.84.02l-.18-.04-.02-.09c0-.06.04-.12.13-.19Zm3.43-6.04c.17,0,.29,0,.37,0,.44,0,.95-.05,1.53-.16.41-.08.74-.21.99-.39.25-.18.46-.45.63-.81s.25-.73.25-1.11c0-.42-.13-.86-.4-1.33-.2-.36-.55-.65-1.03-.89s-1.06-.36-1.74-.36c-.17,0-.38,0-.65.03-.02.32-.04.57-.04.74l.05,1.72v.71c0,.48,0,1.09.03,1.84Z"/>
        <path d="m235.56,147.07c.06-.05.11-.09.16-.1.1-.03.28-.06.54-.07.6-.04.97-.09,1.11-.17.09-.12.13-.3.13-.52v-.65s0-2.35,0-2.35l-.02-1.11v-2.32s-.04-2.64-.04-2.64c0-.63-.05-.98-.12-1.06-.11-.12-.44-.19-.99-.2-.23,0-.44-.02-.62-.06-.08-.04-.12-.1-.12-.17,0-.05.02-.11.05-.18.06-.03.1-.05.15-.05.09,0,.19,0,.31,0,.36.04.74.06,1.13.06l.68-.02,1.63.04c.81,0,1.45,0,1.9-.03.46-.02.76-.03.92-.03.14,0,.49.01,1.05.04h1.31s.16.02.16.02l.77-.03.09.05s.05.1.06.16c0,.09-.01.22-.04.4-.03.18-.04.29-.04.33,0,.64.02,1.18.06,1.63,0,.04-.02.06-.05.07-.07,0-.13,0-.18-.03-.07-.12-.16-.32-.27-.62-.11-.3-.29-.64-.51-1.03-.15-.26-.27-.41-.36-.46-.09-.05-.27-.07-.54-.07-.06,0-.34,0-.84-.02-.14,0-.27,0-.4,0l-2.64.06h-.23c-.34,0-.54.04-.61.13-.1.15-.16.58-.16,1.3,0,.07.02.81.05,2.22v1.28c.07.02.14.03.22.03h.16c.1,0,.26,0,.46,0,.32.01.54.02.65.02.07,0,.14,0,.19,0,.67-.02,1.52-.04,2.57-.04.33-.06.52-.12.57-.19.09-.11.16-.4.21-.87.05-.47.15-.73.31-.79.08,0,.15.02.22.05.01.05.02.1.02.14s0,.11-.02.21c-.03.23-.05.94-.05,2.14,0,.32.02.68.05,1.07.03.39.05.61.05.64,0,.06,0,.13-.03.22-.05.02-.09.04-.12.04h-.06c-.1-.17-.19-.44-.29-.8-.16-.62-.33-1.01-.5-1.17-.18-.16-.46-.24-.85-.24-.09,0-.24,0-.47.01-.23,0-.57.01-1.02.01h-.6c-.86,0-1.42.02-1.68.06v.31s0,1.7,0,1.7v1.07s0,1.05,0,1.05c0,.63.05.99.12,1.09.1.14.33.2.68.2h.56s.24,0,.58,0c.34,0,.75.01,1.24.01,1.19,0,1.98-.05,2.37-.15s.72-.28.97-.54c.26-.26.58-.82.97-1.68.12-.25.23-.38.35-.38.06,0,.12.02.18.07-.18.61-.28,1.01-.3,1.2-.07.43-.11.87-.12,1.32,0,.2-.05.37-.15.51h-.2l-2.6.03h-1.16s-2.77.03-2.77.03h-1.13c-.14,0-.27,0-.4,0-1.11.05-1.93.07-2.45.07-.09,0-.16-.02-.19-.04-.03-.03-.05-.08-.05-.14v-.09Z"/>
        <path d="m251.91,135.76c.96-.47,2.01-.71,3.16-.71s2.1.26,2.99.77c.88.51,1.59,1.19,2.12,2.02.65,1.04.98,2.17.98,3.38,0,.79-.17,1.61-.51,2.45-.34.84-.77,1.53-1.31,2.07s-1.08.94-1.64,1.21c-.56.26-1.01.42-1.33.45-.22.03-.38.07-.49.13.25.3.69.69,1.3,1.17.61.48,1.22.85,1.82,1.12.06.02.16.06.3.14.33.16.64.3.93.43l.21.08h.08s.24.11.24.11c.32.14.62.25.89.33,0,.06,0,.1,0,.13v.11s0,.17,0,.17c-.2,0-.32,0-.36,0-.57,0-1.22-.11-1.97-.32-.75-.21-1.44-.49-2.06-.85-.62-.35-1.3-.82-2.04-1.4-.49-.4-.9-.79-1.23-1.17-1.08-.15-2.05-.53-2.92-1.12-.87-.59-1.53-1.32-1.99-2.2-.46-.87-.69-1.77-.69-2.69,0-1.08.28-2.16.85-3.25.57-1.09,1.45-1.95,2.65-2.57Zm1.81,11.36c.34.06.66.09.95.09.68,0,1.29-.1,1.83-.31.54-.21.97-.48,1.29-.81.42-.44.78-1.05,1.08-1.85.3-.8.45-1.79.45-2.99,0-.94-.14-1.8-.42-2.58-.18-.54-.49-1.08-.92-1.62s-.88-.94-1.34-1.2c-.47-.26-1.05-.38-1.76-.38-.83,0-1.61.22-2.34.65-.73.43-1.33,1.18-1.82,2.25-.31.68-.46,1.62-.46,2.83,0,.99.17,1.95.51,2.89.34.94.83,1.7,1.46,2.28.36.34.86.59,1.5.76Z"/>
        <path d="m267.5,135.34c.03.1.05.18.05.24,0,.04,0,.09-.03.17-.16.04-.29.06-.39.06-.04,0-.12,0-.22-.01-.1,0-.18-.01-.25-.01-.28,0-.51.06-.67.17-.11.07-.18.16-.2.27l-.09,1.05.03,4.58c0,1.68.06,2.72.17,3.13.1.41.28.75.53,1.01.25.26.62.48,1.11.66.5.17.98.26,1.45.26,1.05,0,1.85-.15,2.41-.45.56-.3.96-.72,1.2-1.25.24-.53.37-1.34.37-2.43,0-.03,0-.28-.03-.74v-.27c0-.1,0-.29.02-.58.01-.29.02-.45.02-.5l-.14-2.65c-.04-.89-.09-1.42-.15-1.58-.06-.16-.14-.28-.25-.36-.24-.17-.7-.33-1.37-.46-.03-.09-.05-.18-.06-.27.24-.02.48-.04.71-.04.25,0,.5,0,.78.03.41.03.63.05.67.05l1.46-.05h.29s0,.34,0,.34c-.76.1-1.21.21-1.36.35-.15.13-.22.38-.22.73,0,.19.01.61.04,1.25l.06,1.91v.76s.02.96.02.96c0,1.21-.03,2.03-.1,2.47-.1.61-.24,1.09-.42,1.45-.18.36-.45.68-.79.97-.35.29-.81.52-1.38.71-.58.19-1.14.28-1.71.28-.88,0-1.52-.06-1.9-.18-.71-.22-1.27-.5-1.69-.84s-.71-.69-.87-1.04c-.22-.46-.32-1.12-.32-2v-.64l-.03-2.59.03-2.09v-1.41c0-.36-.05-.61-.15-.75-.07-.1-.17-.15-.3-.15h-.55c-.41,0-.67-.03-.78-.12-.02-.06-.03-.1-.03-.15,0-.06.02-.1.06-.13.07-.05.15-.07.25-.07h.86s1.46,0,1.46,0l2.43-.03Z"/>
        <path d="m275.97,147.07c.06-.05.11-.09.16-.1.1-.03.28-.06.54-.07.6-.04.97-.09,1.11-.17.09-.12.13-.3.13-.52v-.65s0-2.35,0-2.35l-.02-1.11v-2.32s-.04-2.64-.04-2.64c0-.63-.05-.98-.12-1.06-.11-.12-.44-.19-.99-.2-.23,0-.44-.02-.62-.06-.08-.04-.12-.1-.12-.17,0-.05.02-.11.05-.18.06-.03.1-.05.15-.05.09,0,.19,0,.31,0,.36.04.74.06,1.13.06l.68-.02,1.63.04c.81,0,1.45,0,1.9-.03.46-.02.76-.03.92-.03.14,0,.49.01,1.05.04h1.31s.16.02.16.02l.77-.03.09.05s.05.1.06.16c0,.09-.01.22-.04.4-.03.18-.04.29-.04.33,0,.64.02,1.18.06,1.63,0,.04-.02.06-.05.07-.07,0-.13,0-.18-.03-.07-.12-.16-.32-.27-.62-.11-.3-.29-.64-.51-1.03-.15-.26-.27-.41-.36-.46-.09-.05-.27-.07-.54-.07-.06,0-.34,0-.84-.02-.14,0-.27,0-.4,0l-2.64.06h-.23c-.34,0-.54.04-.61.13-.1.15-.16.58-.16,1.3,0,.07.02.81.05,2.22v1.28c.07.02.14.03.22.03h.16c.1,0,.26,0,.46,0,.32.01.54.02.65.02.07,0,.14,0,.19,0,.67-.02,1.52-.04,2.57-.04.33-.06.52-.12.57-.19.09-.11.16-.4.21-.87.05-.47.15-.73.31-.79.08,0,.15.02.22.05.01.05.02.1.02.14s0,.11-.02.21c-.03.23-.05.94-.05,2.14,0,.32.02.68.05,1.07.03.39.05.61.05.64,0,.06,0,.13-.03.22-.05.02-.09.04-.12.04h-.06c-.1-.17-.19-.44-.29-.8-.16-.62-.33-1.01-.5-1.17-.18-.16-.46-.24-.85-.24-.09,0-.24,0-.47.01-.23,0-.57.01-1.02.01h-.6c-.86,0-1.42.02-1.68.06v.31s0,1.7,0,1.7v1.07s0,1.05,0,1.05c0,.63.05.99.12,1.09.1.14.33.2.68.2h.56s.24,0,.58,0c.34,0,.75.01,1.24.01,1.19,0,1.98-.05,2.37-.15s.72-.28.97-.54c.26-.26.58-.82.97-1.68.12-.25.23-.38.35-.38.06,0,.12.02.18.07-.18.61-.28,1.01-.3,1.2-.07.43-.11.87-.12,1.32,0,.2-.05.37-.15.51h-.2l-2.6.03h-1.16s-2.77.03-2.77.03h-1.13c-.14,0-.27,0-.4,0-1.11.05-1.93.07-2.45.07-.09,0-.16-.02-.19-.04-.03-.03-.05-.08-.05-.14v-.09Z"/>
        <path d="m295.27,135.8c.05.41.07.64.07.7l-.04.82c-.01.35-.03.58-.05.67-.06.02-.1.04-.14.04l-.08-.02c-.2-.86-.53-1.49-1-1.88s-1.05-.59-1.72-.59-1.28.2-1.73.59-.67.85-.67,1.38c0,.4.16.77.47,1.1.31.33,1.12.83,2.41,1.49.99.51,1.69.93,2.12,1.25.42.32.75.7.96,1.12.22.43.32.9.32,1.42,0,.66-.17,1.28-.51,1.86-.34.58-.8,1.02-1.38,1.31-.58.29-1.35.44-2.3.44-.83,0-1.63-.13-2.39-.4-.45-.16-.72-.29-.82-.39s-.15-.2-.15-.31c0-.07,0-.15.02-.26.09-.73.13-1.32.14-1.79.01-.29.03-.46.06-.51.02-.04.07-.06.14-.06.06,0,.1.02.13.06.03.04.06.12.07.23.07.76.42,1.44,1.05,2.03.63.6,1.34.9,2.13.9.49,0,.93-.1,1.34-.31.41-.2.73-.5.96-.88.23-.38.35-.76.35-1.12,0-.5-.18-.95-.53-1.37-.35-.41-1.06-.89-2.12-1.45-1.06-.55-1.75-.95-2.07-1.21-.52-.41-.91-.85-1.16-1.31-.19-.36-.29-.77-.29-1.25,0-.86.34-1.58,1.02-2.18.68-.59,1.59-.89,2.73-.89.63,0,1.17.07,1.63.21.33.11.67.29,1.03.55Z"/>
        <path d="m297.33,136.77l.38-1.4c.02-.18.06-.3.1-.36s.09-.08.15-.08c.11,0,.24.13.38.4.1.19.19.31.26.36.07.05.17.09.3.11h.09s.4.03.4.03l2.18.03h2.58s.76,0,.76,0l1.43-.03c.06,0,.14,0,.23.02.42.04.68.05.78.05.09,0,.17-.03.22-.09.02-.02.12-.23.31-.61.08-.17.18-.26.3-.26.05,0,.11.01.19.04.03.12.05.23.05.33v.37s0,.78,0,.78c0,.19-.02.8-.05,1.83,0,.07-.01.13-.04.18-.07.04-.13.06-.18.06s-.09-.02-.13-.07c-.04-.05-.08-.19-.14-.43-.12-.55-.28-.94-.46-1.18-.12-.15-.3-.26-.53-.33-.23-.07-.78-.1-1.66-.1h-1.56c-.01.25-.02.47-.02.67l.07,5.74c0,.23-.01.66-.04,1.29v1.23s0,.68,0,.68c0,.22.04.37.11.46.07.09.27.18.6.27.57.14.95.23,1.14.26.12.01.21.04.29.07v.28l-1.31-.03c-.72,0-1.26-.02-1.63-.04l-1.35.06-.99.06c-.28,0-.45,0-.51-.02l-.13-.06c.01-.14.04-.23.08-.27.04-.04.16-.07.34-.1.26-.04.56-.1.92-.2s.58-.19.69-.29c.06-.06.1-.15.13-.28.06-.27.08-.8.08-1.6v-1.57l-.04-3.43-.04-.74v-2.47h-1.5c-.89,0-1.43.05-1.62.16-.3.17-.75.66-1.35,1.47-.2.3-.37.46-.52.46l-.08-.02s-.04-.07-.04-.1c0-.07.05-.3.15-.67.12-.47.2-.79.22-.96Z"/>
      </g>
      <g>
        <path d="m118.93,111.81c.97.73,2.29,1.63,2.98,2.08.55.35.9.45,1.28.45.87,0,1.39-.73,1.56-1.04,2.04-3.53,2.74-9.91,2.74-11.19,0-2.42-.55-3.5-2.32-3.5-.9,0-2.08.21-2.94.42-.62,1.32-3.12,7.27-3.71,8.45-1.39,2.77-2.84,5.78-4.33,8.21-.07.1-.59.97-1.11.97-.49,0-.8-.45-.8-1.28,0-1.07.38-1.52,1.32-2.67.38-.45,2.25-3.53,3.57-6.1,1.25-2.42,2.94-6.41,3.22-7.1-1.11.38-4.57,1.59-5.16,2.04-.69.48-.87.59-1.28.59-1.11,0-2.81-1.49-2.81-3.5,0-.21.03-.31.14-.52.52.83,1.39,1.77,2.49,1.77.48,0,1.04-.14,2.22-.45,2.84-.8,2.94-.8,4.99-1.35.59-1.39,1.87-4.54,1.87-5.72,0-.9-.28-1.45-1.14-1.87-.21-.1-1.21-.59-1.39-.66.38-.1.76-.17,1.39-.17,2.46,0,3.64,1.56,3.64,2.25,0,.31,0,.35-.66,1.52-.35.62-1.59,3.64-1.87,4.23.35-.07,1.45-.24,2.53-.24,3.6,0,3.81,3.5,3.81,5.13,0,2.08-1.18,10.36-3.71,13.16-.45.48-1.87,1.97-2.91,1.97-.76,0-.8-.42-.83-1.04,0-.55-.17-1.25-2.88-4.68l.1-.17Zm14.41-6.48c2.36-.07,4.68-.1,4.68-1.77,0-.8-1.63-3.36-6.86-6.93,4.5.66,7.03,3.84,7.52,4.47,1.46,1.8,1.94,3.53,1.94,5.13,0,.76-.14,1.18-.62,1.18-.28,0-.42-.07-1.14-.55-.42-.28-.69-.17-2.84-.69-.28-.07-1.8-.42-2.67-.62v-.21Z"/>
        <path d="m173.1,105.68c-.76,3.15-1.7,5.72-3.15,7.48-.97,1.14-2.94,2.98-5.82,2.98-3.71,0-4.05-2.87-4.47-6.27-.31-2.56-.55-4.36-2.6-4.36s-3.95,1.11-5.99,3.84c-1.32,1.77-1.59,2.29-3.29,6.37-.31.73-.55,1.35-1.18,1.35-.87,0-1-1.91-1-2.11,0-.45.24-1,.97-1.97,1.63-2.18,6.96-12.16,8.83-15.93.48-1,1.73-3.53,1.73-4.36,0-.42-.28-1.11-1.42-2.01.28-.07.45-.14.76-.14,1.46,0,3.29,1.49,3.29,2.87,0,.69-.28,1-.9,1.7-.38.42-.55.69-.94,1.28-4.81,7.65-5.27,8.35-6.41,10.88,2.42-2.04,4.19-2.87,5.92-2.87,3.12,0,3.46,2.39,3.98,5.26.48,2.7.83,4.43,3.08,4.43,1.49,0,2.84-.69,4.23-2.08,1.91-1.87,3.19-4.4,4.05-6.34h.31Z"/>
        <path d="m187.99,91.72c0-1.25-.83-1.63-1.84-2.15.31-.14.52-.28,1.04-.28,2.7,0,3.26,1.97,3.26,2.63,0,.17-.24.59-.55,1.07-.62,1.07-1.21,2.53-1.49,3.29,1.73-.66,2.49-1.11,3.12-1.45.31-.21,1.32-.8,1.91-.8.42,0,1.14.28,1.14.9,0,.21,0,.42-.73.8-1.87,1.04-3.74,1.59-6.1,2.25-.07.21-.14.38-.35.94-3.29,9.21-6.69,16.52-7.07,17.25-.1.24-.35.62-.94.62-.62,0-.9-.9-.9-1.49,0-.62.07-.69,1.11-2.22,1.46-2.11,2.01-3.53,6.3-14.13.14-.38.14-.42.21-.55-1.49.35-3.57.62-4.71.62-1.25,0-2.77-.76-3.36-1.84.66.17,1.8.45,3.53.45s3.43-.31,5.09-.76c.31-.94,1.32-4.05,1.32-5.16Zm10.29,23.28c1.97,0,3.46-.21,3.88-.28.69-.1.9-.14,1.14-.14,1.07,0,1.66.73,1.66,1.35,0,.42-.35.62-.69.69-.62.14-2.04.28-3.88.28-2.04,0-5.65-.14-7.59-1.21-1.42-.76-2.49-2.11-2.49-3.71,0-1.07.38-1.84.66-2.36.21,3.12.62,5.37,7.31,5.37Zm-.42-11.67c2.18-1.84,2.91-2.42,2.91-2.88,0-.69-1.59-1-3.12-1-1.07,0-1.94.1-2.6.14,1.39-.97,3.12-1.39,4.81-1.39,3.5,0,5.23,1.63,5.23,2.77,0,.48-.31.66-.8.66-.17,0-.97-.07-1.11-.07-.1,0-2.94.52-5.13,1.94l-.21-.17Z"/>
        <path d="m239.6,105.68c-.76,3.15-1.7,5.72-3.15,7.48-.97,1.14-2.94,2.98-5.82,2.98-3.71,0-4.05-2.87-4.47-6.27-.31-2.56-.55-4.36-2.6-4.36s-3.95,1.11-5.99,3.84c-1.32,1.77-1.59,2.29-3.29,6.37-.31.73-.55,1.35-1.18,1.35-.87,0-1-1.91-1-2.11,0-.45.24-1,.97-1.97,1.63-2.18,6.96-12.16,8.83-15.93.48-1,1.73-3.53,1.73-4.36,0-.42-.28-1.11-1.42-2.01.28-.07.45-.14.76-.14,1.46,0,3.29,1.49,3.29,2.87,0,.69-.28,1-.9,1.7-.38.42-.55.69-.94,1.28-4.81,7.65-5.27,8.35-6.41,10.88,2.42-2.04,4.19-2.87,5.92-2.87,3.12,0,3.46,2.39,3.98,5.26.48,2.7.83,4.43,3.08,4.43,1.49,0,2.84-.69,4.23-2.08,1.91-1.87,3.19-4.4,4.05-6.34h.31Z"/>
        <path d="m247.81,99.89c-.21.31-.62,1.07-.62,1.49,0,.38.42,2.01.42,2.36,0,.87-.48,1.49-1.21,1.49-1.11,0-1.11-.94-1.18-2.7-.03-1.7-.07-2.56-1.56-3.29l.1-.21c.66.03,2.04.1,2.63-.35,0-.03,2.11-1.73,5.61-6.96l.24.24c-.66,1.56-1.11,2.32-4.43,7.93Zm7.72,16.73c-.28,0-.48-.03-.94-.14-2.94,1.63-5.99,2.6-10.32,3.12v-.24c3.67-1.28,6.62-2.91,8.24-4.05.73-.52,1.04-1,1.35-1.49l2.29,1.94c.24.21.31.28.31.42,0,.31-.24.45-.94.45Zm-7.34-22.31c-.83,0-1-.45-1.73-2.22-.45-1.04-1.14-2.01-2.04-2.67l.07-.17c3.78.83,4.85,2.63,4.85,3.81,0,.87-.66,1.25-1.14,1.25Zm18.32,10.25c0,1.07.07,3.67.1,4.85.03.59.14,3.39.14,4.02,0,.52-.76.97-1.25.97-.62,0-.62-.24-.66-.62h-12.99c0,.24,0,.52-.14.69-.21.35-.87.55-1.32.55-.62,0-.62-.59-.62-.83,0-.03,0-.24.03-.45.17-2.04.21-4.33.21-5.85,0-4.85-.07-5.26-.21-6.17l2.15,1.18h12.43l.38-.52c.17-.17.24-.31.48-.31.14,0,.31.03.59.21l1.42.9c.31.21.38.28.38.42,0,.31-.28.48-1.14.97Zm4.81-1.18c-4.78-1.59-8.1-4.68-9.94-9.39-1.97,4.26-5.68,7.31-9.73,8.11l-.17-.24c2.91-1.52,6.65-4.43,8.38-8.83h-4.12c-1.18,1.56-2.98,3.78-5.54,5.61l-.14-.24c3.05-3.39,5.51-8,5.99-10.81l2.46,1.42c.14.1.31.28.31.48,0,.52-.55.55-1.07.59-.31.52-.48.83-1.39,2.11h10.95l.87-1.04s.17-.17.45-.17c.24,0,.48.14.66.24l2.11,1.56c.07.07.24.17.24.52,0,.69-.59.73-2.15.8-.38.17-3.22,1.8-3.29,1.84l-.21-.14c.83-1.42,1.18-2.04,1.45-2.77h-5.65c-.07.14-.07.17-.14.35,2.04,5.89,9.25,7.17,12.64,7.48v.21c-1.52.38-1.97.73-2.98,2.32Zm-6.48.35h-12.99v2.56h12.99v-2.56Zm0,3.39h-12.99v2.46h12.99v-2.46Zm0,3.29h-12.99v2.53h12.99v-2.53Zm4.26,9.39c-.59,0-.87-.24-1.84-1.18-2.7-2.56-3.01-2.88-5.02-3.81l.14-.21c4.5.31,7.86,2.7,7.86,4.16,0,.59-.45,1.04-1.14,1.04Z"/>
        <path d="m290.62,100.52h-5.68v2.01c1.94.59,2.84.9,3.81,1.77.9.76,1,1.28,1,1.7,0,.9-.59,1.18-1.04,1.18-.62,0-1.04-.45-1.59-1.49-.73-1.35-1.21-1.9-2.22-2.67,0,5.75.03,8.45.21,11.98.03.49.17,2.49.17,2.91,0,.94-.76,1.66-1.52,1.66s-.9-.55-.9-1.07c0-.21.14-2.84.17-3.22.35-6.82.35-7.34.31-11.4-2.11,3.64-4.85,6.96-8.17,9.56l-.24-.28c3.71-3.57,7.72-11.78,8.07-12.64h-1.66c-1.21,0-3.12.14-4.43.38l-.83-1.49c2.6.21,5.13.28,5.75.28h1.49c0-1.11-.03-6.03-.07-7.03-.03-2.6-.07-3.39-.59-4.85l2.88.83c.14.07.52.17.52.52s-.55.69-.94.94c-.17,1.56-.17,4.47-.17,6.69v2.91h2.42l1.14-1.14c.24-.24.45-.42.55-.42.17,0,.48.21.62.38l1.14,1.11c.21.21.35.31.35.52,0,.31-.31.38-.55.38Zm-10.39-3.46c-.8,0-.97-.59-1.35-1.94-.35-1.21-.87-2.39-1.7-3.22l.14-.21c2.81,1.73,4.05,2.63,4.05,4.02,0,.21-.03,1.35-1.14,1.35Zm10.11-4.19c-.24.28-3.88,4.81-3.88,4.85l-.28-.1c.94-1.46,2.01-4.47,2.36-5.68.21-.69.17-1.11.17-1.52l2.49,1.32c.38.21.38.35.38.45,0,.48-1.04.66-1.25.69Zm17.35,13.16l-6.41,1.32c.03,1.25.14,6.82.21,7.97,0,.38.14,2.04.14,2.32,0,.94-.17,1.14-.42,1.39-.38.45-.83.59-1.25.59-.73,0-.73-.73-.73-1.14,0-.83.21-4.43.21-5.26.03-2.67.03-4.71.03-5.47l-7.52,1.52c-1.56.31-3.29.87-4.3,1.28l-1.11-1.32c2.46-.28,4.88-.69,5.72-.87l7.2-1.45c0-2.08-.1-5.4-.1-7.45,0-8.21,0-8.9-.59-11.33l3.22.87c.28.07.48.21.48.48,0,.45-.14.52-1.18,1.07-.1,1.07-.17,2.29-.17,5.92,0,.38.03,5.33.14,10.08l3.01-.62.76-1.59c.24-.52.38-.52.48-.52.17,0,.52.17.62.24l1.52,1.04c.31.21.42.35.42.55,0,.28-.24.35-.42.38Zm-12.3-1.87c-.8,0-1-.62-1.14-1.14-.52-1.84-1.52-3.12-1.91-3.57l.14-.1c1.14.35,4.02,1.66,4.02,3.53,0,.94-.59,1.28-1.11,1.28Zm.24-8.17c-.8,0-.97-.66-1.11-1.14-.52-1.8-1.45-3.01-1.91-3.57l.14-.07c1.14.31,4.02,1.66,4.02,3.5,0,.94-.62,1.28-1.14,1.28Z"/>
        <path d="m320.92,95.36h-6.27c-1.11,0-3.05.1-4.47.38l-.8-1.49c1.91.17,3.81.28,5.75.28h3.12l.66-.83c.17-.24.35-.42.55-.42s.52.24.66.38l.97.8c.14.14.35.28.35.52,0,.31-.31.38-.52.38Zm-1.21,8.94h-3.74c-1.07,0-3.01.14-4.43.42l-.83-1.49c1.9.14,3.84.24,5.75.24h.59l.8-.9c.21-.24.35-.42.59-.42s.42.21.55.35l.9.9c.24.24.35.35.35.55,0,.31-.31.35-.52.35Zm-.14,4.71c0,1.11.28,6.79.28,7.1,0,1.11-1.42,1.25-1.45,1.25-.66,0-.59-.69-.52-1.56h-4.95c.1,1.35.1,1.42.1,1.66,0,1.21-.76,1.84-1.42,1.84-.48,0-.76-.21-.76-.69s.14-2.6.17-3.01c.14-3.46.17-3.84.17-4.68,0-2.49-.21-3.6-.35-4.43l2.22,1h4.43l.76-.66c.14-.1.31-.28.48-.28.14,0,.35.17.45.24l1.07.8c.31.24.35.42.35.52,0,.28-.31.45-1.04.9Zm-.03-9.04h-3.36c-1.07,0-3.05.1-4.47.38l-.8-1.49c2.32.17,4.47.28,6.2.28l.59-.8c.21-.28.35-.45.55-.45s.42.24.59.38l.87.8c.14.14.35.31.35.52,0,.31-.28.38-.52.38Zm.45-9.18h-3.6c-1.11,0-3.05.1-4.47.38l-.83-1.49c1.94.17,3.84.28,5.78.28h.48l.8-.8c.24-.24.42-.42.55-.42s.31.14.59.38l.87.76c.21.17.35.28.35.52,0,.31-.28.38-.52.38Zm-2.08,17.53h-4.99v6.65h4.99v-6.65Zm22.1-8.38h-13.54c-1.07,0-3.05.14-4.43.42l-.83-1.49c1.9.14,3.84.24,5.75.24h2.18v-3.05h-1.21c-1.07,0-3.05.14-4.47.42l-.8-1.49c1.91.14,3.84.24,5.75.24h.69c0-.42-.03-2.53-.03-2.84h-1.87c-1.11,0-3.05.1-4.47.38l-.8-1.49c1.9.14,3.81.28,5.75.28h1.35c-.03-2.01-.24-2.74-.59-3.88l2.98.73c.31.07.66.17.66.52,0,.38-.24.55-1.11,1.04v1.59h4.85l1.07-1.18c.24-.28.38-.42.55-.42s.31.14.62.38l1.28,1.11c.17.17.35.31.35.55,0,.31-.28.38-.52.38h-8.24v2.84h3.64l.69-.76c.24-.28.35-.42.55-.42.17,0,.42.17.66.35l1.11.8c.17.14.35.24.35.52,0,.31-.28.35-.52.35h-6.48v3.05h5.96l1-1.21c.17-.21.38-.42.55-.42.24,0,.42.17.62.38l1.14,1.18c.17.17.35.35.35.52,0,.31-.28.38-.55.38Zm-2.74,4.61c0,2.88,0,5.78.1,8.69,0,.48.14,2.6.14,3.05,0,.83,0,2.56-3.57,3.5-.24-.76-.55-1.59-2.56-2.81v-.31c.55.03,3.19.1,3.6,0,.35-.1.45-.48.45-1.25v-3.36h-9.84c.03.87.03.97.03,2.18,0,.55.1,3.05.1,3.57,0,.87-.17,1.18-.52,1.42-.38.24-.8.35-1.04.35-.42,0-.62-.28-.62-.76,0-.94.14-2.46.17-3.39.03-.94.1-4.43.1-7.59,0-.31,0-4.33-.14-5.68l2.15.97h9.01l.97-.69c.17-.1.38-.28.52-.28.17,0,.31.1.48.21l1.11.76c.14.1.38.24.38.48,0,.38-.62.69-1.04.94Zm-1.84-.59h-9.84v3.15h9.84v-3.15Zm0,3.98h-9.84v3.29h9.84v-3.29Z"/>
        <path d="m371.8,114.89c-.14.14-.9.73-1.28,1.45-5.99-3.78-9.98-9.91-11.95-16.73.03,3.98.03,8.35.14,11.98,0,.66.14,3.53.14,4.16,0,2.11-.52,2.84-3.91,3.84-.66-1.42-1.7-2.56-3.36-3.05l.1-.38c.52.1,1.7.28,3.22.28,1.32,0,1.56,0,1.77-.52.14-.28.14-3.78.14-4.36,0-3.36-.03-4.02-.24-15.41h-8.56c-1.21,0-3.15.14-4.43.42l-.83-1.49c2.6.21,5.13.24,5.75.24h8.04c0-.62-.03-3.46-.07-4.02-.07-1.42-.45-2.81-.59-3.39l3.29,1.07c.24.1.52.17.52.52,0,.45-.49.66-1.18.97,0,.76.03,4.16.03,4.85h9.7l1.25-1.52c.21-.28.35-.45.52-.45.21,0,.48.24.62.38l1.84,1.52c.17.17.35.31.35.55,0,.31-.28.35-.52.35h-13.75c0,.83.69,4.47,3.15,8.52,3.33-3.39,3.57-3.64,4.36-4.75.45-.66.52-1,.55-1.42l2.53,2.01c.28.24.49.59.49.8,0,.24-.24.42-.62.42-.28,0-.45-.03-1.14-.14-.52.35-.69.48-1.25.8-.73.45-3.98,2.32-4.64,2.7,3.88,5.85,8.21,7.86,11.92,8.69v.28c-.97.17-1.42.31-2.08.83Zm-25.29-1.18c-.07,1.11-.1,1.7-.62,1.7-.28,0-.45-.21-.69-.48l-2.25-2.53c1.04-.14,2.11-.52,5.06-2.22,1.21-.69,6.13-4.23,7.17-4.92l.24.21c-1.77,1.97-7.65,7.38-8.9,8.24Zm4.47-9.04c-.97,0-1.35-.94-1.56-1.39-.62-1.46-1.91-3.19-3.05-4.05l.14-.28c2.63.9,5.61,1.94,5.61,4.4,0,.69-.48,1.32-1.14,1.32Zm14.17-10.53c-.83,0-1.28-.8-1.91-1.87,0-.03-.94-1.21-1.45-1.8-.21-.24-.35-.31-.73-.52l.1-.31c2.01.38,3.12.73,3.88,1.28.55.42,1.21,1.11,1.21,1.9,0,.55-.42,1.32-1.11,1.32Z"/>
      </g>
      <g>
        <path class="cls-3" d="m92.97,184.7v-7.3c-.53.96-1.03,1.72-1.5,2.28l-.7-.57c.71-.93,1.4-2.13,2.06-3.59.66-1.46,1.08-2.69,1.26-3.69l1.11.16c-.34,1.34-.87,2.73-1.57,4.16h.41v8.55h-1.06Zm9.26-.18h-2.13l-.15-.99h1.85c.2,0,.37-.06.5-.17.13-.11.19-.25.19-.41v-9.61h-6.83v-.9h9.06v.9h-1.11v9.92c0,.36-.13.66-.38.9s-.59.36-.99.36Zm-5.3-3.61v.77h-1.08v-6.16h4.72v5.39h-3.64Zm2.55-4.54h-2.55v3.68h2.55v-3.68Z"/>
        <path class="cls-3" d="m110.04,173.69c0,.42-.02.9-.07,1.44h2.71c.67,0,1.19.24,1.57.72.38.48.57,1.1.57,1.87,0,1.9-.21,3.47-.61,4.71-.4,1.24-1.1,1.86-2.1,1.86-.58,0-1.4-.28-2.45-.83l.35-.89c.24.12.59.25,1.05.4s.77.23.94.23c.38,0,.68-.2.91-.59.23-.39.42-.96.57-1.72.15-.75.23-1.65.23-2.69,0-.93-.12-1.52-.37-1.77s-.58-.37-1-.37h-2.45c-.19,1.2-.39,2.22-.61,3.08-.22.85-.57,1.75-1.05,2.69s-1.05,1.79-1.73,2.54l-.8-.58c.62-.72,1.22-1.73,1.83-3.02.6-1.29,1.01-2.81,1.22-4.57h-2.75v-.94h2.87c.03-.33.05-1.28.05-2.84h1.14v1.27Zm9.21,5.7l-1.09.29c-.64-2.35-1.58-4.18-2.8-5.5l.82-.56c.65.66,1.27,1.55,1.86,2.66s.99,2.15,1.22,3.11Z"/>
        <path class="cls-3" d="m123.82,184.37l-.15-.96c3.02-.04,5.05-.3,6.09-.79s1.57-1.18,1.57-2.05c0-.77-.27-1.37-.82-1.79-.55-.42-1.28-.63-2.21-.63-1.11,0-2.25.24-3.43.73-1.18.49-2.08,1.1-2.7,1.86l-.92-.54c.61-1.57.95-3.48,1.02-5.73l1.14.03c-.03,1.27-.29,2.79-.76,4.56.64-.53,1.5-.97,2.56-1.31s2.06-.52,2.98-.52c1.36,0,2.42.29,3.18.86.76.57,1.13,1.4,1.13,2.49,0,1.2-.62,2.14-1.85,2.81-1.23.67-3.4,1-6.51,1h-.32Zm7.37-10.07l-.55.92c-.34-.16-.86-.35-1.55-.56-.69-.21-1.41-.42-2.16-.62-.75-.2-1.91-.44-3.48-.71l.32-.9c1.71.29,3.25.62,4.61.99,1.36.38,2.3.66,2.81.87Z"/>
        <path class="cls-3" d="m136.69,184.72v-5.77c-.68.63-1.4,1.19-2.18,1.66l-.44-.74c1.01-.66,1.94-1.47,2.78-2.42.84-.95,1.41-1.88,1.73-2.78h-3.87v-.82h1.99v-1.97h1.01v1.97h2.08l.23.34c-.6,1.36-1.35,2.58-2.26,3.65.23.21.53.45.87.71.61-.62,1.11-1.2,1.49-1.71l.72.47c-.39.51-.91,1.08-1.56,1.72l1.08.78-.58.8c-.79-.61-1.47-1.17-2.04-1.68v5.8h-1.06Zm2.74-.06l-.66-.68c1.55-1.43,2.55-2.92,2.99-4.47s.67-3.52.67-5.91v-.2h-2.03v-.85h6.86v.2c0,1.9-.01,3.54-.04,4.91-.02,1.37-.09,2.58-.2,3.62-.11,1.04-.25,1.75-.41,2.12-.17.38-.41.66-.73.84-.32.18-.73.28-1.21.3h-1.68l-.13-.93h1.42c.4,0,.71-.08.94-.24s.41-.47.54-.94c.13-.47.22-1.36.28-2.68s.09-3.02.09-5.12v-1.24h-2.63c0,1.85-.08,3.27-.23,4.25-.15.98-.4,1.91-.74,2.77-.34.86-.76,1.65-1.28,2.35s-1.12,1.33-1.81,1.88Z"/>
        <path class="cls-3" d="m155.44,181.93l-.81.68c-.16-.19-.33-.42-.52-.68-1.08,1.09-2.12,1.63-3.11,1.63-.59,0-1.07-.22-1.45-.66-.37-.44-.56-.99-.56-1.63,0-.85.22-1.67.66-2.47s1.04-1.48,1.8-2.05c-.3-.91-.55-1.89-.75-2.94l1.07-.27c.14.82.35,1.69.63,2.61,1.08-.59,2.29-.95,3.63-1.09.08-.88.13-1.7.13-2.45h1.16c-.02.93-.07,1.74-.13,2.39,1.42.02,2.59.45,3.53,1.27.93.82,1.4,1.89,1.4,3.21,0,1.46-.55,2.61-1.65,3.45-1.1.84-2.59,1.33-4.47,1.45l-.26-.92c3.49-.34,5.23-1.69,5.23-4.05,0-1.04-.37-1.88-1.1-2.52-.73-.64-1.67-.96-2.8-.97-.32,1.99-1.07,3.73-2.23,5.22.17.24.37.51.61.82Zm-1.91-.85c-.7-1.07-1.28-2.2-1.74-3.39-.44.38-.79.79-1.06,1.21s-.45.82-.55,1.21c-.09.39-.14.81-.14,1.27,0,.31.11.58.33.82.22.24.49.36.79.36.67,0,1.45-.5,2.36-1.49Zm-.87-4.04c.41,1.1.93,2.16,1.56,3.17.88-1.24,1.44-2.66,1.69-4.24-1.24.15-2.33.5-3.25,1.07Z"/>
        <path class="cls-3" d="m175.97,174.66h-3.53c-.86.37-1.7,1.04-2.51,2.01s-1.22,1.99-1.22,3.04c0,.81.22,1.49.65,2.03.43.54,1.01.94,1.73,1.19s1.68.38,2.88.38c.27,0,.55,0,.85-.02l-.07,1.04h-.04c-.87,0-1.59-.02-2.16-.05-.57-.03-1.17-.15-1.81-.35-.64-.2-1.2-.5-1.68-.91-.48-.41-.84-.88-1.08-1.42-.23-.54-.35-1.14-.35-1.82,0-.94.29-1.88.87-2.81.58-.93,1.34-1.71,2.28-2.36h-7.07v-.94h12.27v.97Z"/>
        <path class="cls-3" d="m177.92,184.61l-.2-.94c.41-.03.95-.07,1.63-.13v-10.31h4.4v-1.35h1.13v1.35h4.47v5.77h-4.79c.48.91,1.08,1.68,1.8,2.31,1.67-.77,2.93-1.45,3.76-2.06l.75.75c-.89.6-2.14,1.24-3.74,1.91,1,.7,2.35,1.31,4.05,1.85l-.66.9c-1.76-.56-3.22-1.29-4.38-2.2-1.16-.91-2.08-2.06-2.78-3.45h-2.93v4.44c2.56-.26,4.23-.46,5-.61v.9c-1.3.24-3.82.54-7.55.89Zm2.54-8.93h7.8v-1.65h-7.8v1.65Zm7.8.8h-7.8v1.69h7.8v-1.69Z"/>
        <path class="cls-3" d="m198.76,180.1c-.16.45-.41.99-.76,1.63-.35.64-.7,1.18-1.06,1.61s-.73.64-1.12.64c-.23,0-.44-.06-.63-.17s-.42-.33-.72-.66-.57-.77-.81-1.33-.43-1.16-.55-1.78-.18-1.22-.18-1.81c0-.53.05-1.27.16-2.23.11-1.01.17-1.75.18-2.21h1.18c-.02.42-.09,1.16-.23,2.21-.12.94-.18,1.68-.18,2.23,0,.82.09,1.55.26,2.2.17.65.42,1.21.75,1.68.33.47.56.7.71.7.24,0,.57-.33.99-1,.41-.67.78-1.39,1.11-2.17l.87.45Zm6.45,2.07l-1.18.04v-.13c0-1.39-.23-2.74-.68-4.06-.45-1.31-1.09-2.49-1.93-3.52l.87-.55c1.92,2.19,2.89,4.93,2.92,8.22Z"/>
        <path class="cls-3" d="m211.04,173.69c0,.42-.02.9-.07,1.44h2.71c.67,0,1.19.24,1.57.72.38.48.57,1.1.57,1.87,0,1.9-.21,3.47-.61,4.71-.4,1.24-1.1,1.86-2.1,1.86-.58,0-1.4-.28-2.45-.83l.35-.89c.24.12.59.25,1.05.4s.77.23.94.23c.38,0,.68-.2.91-.59.23-.39.42-.96.57-1.72.15-.75.23-1.65.23-2.69,0-.93-.12-1.52-.37-1.77s-.58-.37-1-.37h-2.45c-.19,1.2-.39,2.22-.61,3.08-.22.85-.57,1.75-1.05,2.69s-1.05,1.79-1.73,2.54l-.8-.58c.62-.72,1.22-1.73,1.83-3.02.6-1.29,1.01-2.81,1.22-4.57h-2.75v-.94h2.87c.03-.33.05-1.28.05-2.84h1.14v1.27Zm9.21,5.7l-1.09.29c-.64-2.35-1.58-4.18-2.8-5.5l.82-.56c.65.66,1.27,1.55,1.86,2.66s.99,2.15,1.22,3.11Z"/>
        <path class="cls-3" d="m224.02,179.23c-.52.78-1.32,1.93-2.41,3.46l-.74-.72c.55-.66,1.13-1.47,1.75-2.42.62-.95,1.08-1.76,1.4-2.44v-1.63h-2.6v-.92h2.6v-2.29h1.05v4.1c.75-.72,1.57-1.29,2.45-1.71.88-.42,1.73-.63,2.55-.63,1.23,0,2.24.43,3.04,1.29.8.85,1.21,1.91,1.21,3.17,0,1.59-.49,2.88-1.45,3.89s-2.59,1.6-4.89,1.81l-.23-.95c3.62-.24,5.43-1.81,5.43-4.71,0-.93-.29-1.75-.86-2.47s-1.29-1.07-2.15-1.08c-.86,0-1.75.24-2.66.73-.91.49-1.72,1.13-2.43,1.94v6.7s-1.05,0-1.05,0v-5.11Z"/>
        <path class="cls-3" d="m239.89,173.69c0,.42-.02.9-.07,1.44h2.71c.67,0,1.19.24,1.57.72.38.48.57,1.1.57,1.87,0,1.9-.21,3.47-.61,4.71-.4,1.24-1.1,1.86-2.1,1.86-.58,0-1.4-.28-2.45-.83l.35-.89c.24.12.59.25,1.05.4s.77.23.94.23c.38,0,.68-.2.91-.59.23-.39.42-.96.57-1.72.15-.75.23-1.65.23-2.69,0-.93-.12-1.52-.37-1.77s-.58-.37-1-.37h-2.45c-.19,1.2-.39,2.22-.61,3.08-.22.85-.57,1.75-1.05,2.69s-1.05,1.79-1.73,2.54l-.8-.58c.62-.72,1.22-1.73,1.83-3.02.6-1.29,1.01-2.81,1.22-4.57h-2.75v-.94h2.87c.03-.33.05-1.28.05-2.84h1.14v1.27Zm9.21,5.7l-1.09.29c-.64-2.35-1.58-4.18-2.8-5.5l.82-.56c.65.66,1.27,1.55,1.86,2.66s.99,2.15,1.22,3.11Z"/>
        <path class="cls-3" d="m253.67,184.37l-.15-.96c3.02-.04,5.05-.3,6.09-.79s1.57-1.18,1.57-2.05c0-.77-.27-1.37-.82-1.79-.55-.42-1.28-.63-2.21-.63-1.11,0-2.25.24-3.43.73-1.18.49-2.08,1.1-2.7,1.86l-.92-.54c.61-1.57.95-3.48,1.02-5.73l1.14.03c-.03,1.27-.29,2.79-.76,4.56.64-.53,1.5-.97,2.56-1.31s2.06-.52,2.98-.52c1.36,0,2.42.29,3.18.86.76.57,1.13,1.4,1.13,2.49,0,1.2-.62,2.14-1.85,2.81-1.23.67-3.4,1-6.51,1h-.32Zm7.37-10.07l-.55.92c-.34-.16-.86-.35-1.55-.56-.69-.21-1.41-.42-2.16-.62-.75-.2-1.91-.44-3.48-.71l.32-.9c1.71.29,3.25.62,4.61.99,1.36.38,2.3.66,2.81.87Z"/>
        <path class="cls-3" d="m268.57,172.61c-.03.74-.09,1.43-.18,2.06h3.13v.94h-3.28c-.48,2.82-1.48,5.21-2.99,7.19l-.82-.61c1.33-1.8,2.23-4,2.7-6.58h-2.3v-.94h2.45c.09-.69.15-1.38.17-2.08h1.11Zm9.02,10.04l-.56.89c-.99-.8-1.86-1.38-2.62-1.75v.67c0,1.38-1.01,2.07-3.04,2.07-.84,0-1.55-.18-2.14-.54s-.88-.85-.88-1.48c0-.69.3-1.24.9-1.63.6-.4,1.33-.6,2.19-.6.67,0,1.29.06,1.86.17v-3.82h1.11v4.15c.93.36,2,.98,3.18,1.87Zm-4.27-1.27c-.62-.16-1.25-.25-1.89-.25-.55,0-1.03.11-1.44.34-.41.23-.62.54-.62.94,0,.8.71,1.2,2.13,1.2,1.21,0,1.82-.39,1.82-1.18v-1.05Zm4.3-4.83l-.87.69c-.87-1.1-2.07-2.23-3.61-3.39l.63-.7c1.32.77,2.6,1.9,3.84,3.4Z"/>
        <path class="cls-3" d="m285.33,180.1c-.16.45-.41.99-.76,1.63-.35.64-.7,1.18-1.06,1.61s-.73.64-1.12.64c-.23,0-.44-.06-.63-.17s-.42-.33-.72-.66-.57-.77-.81-1.33-.43-1.16-.55-1.78-.18-1.22-.18-1.81c0-.53.05-1.27.16-2.23.11-1.01.17-1.75.18-2.21h1.18c-.02.42-.09,1.16-.23,2.21-.12.94-.18,1.68-.18,2.23,0,.82.09,1.55.26,2.2.17.65.42,1.21.75,1.68.33.47.56.7.71.7.24,0,.57-.33.99-1,.41-.67.78-1.39,1.11-2.17l.87.45Zm6.45,2.07l-1.18.04v-.13c0-1.39-.23-2.74-.68-4.06-.45-1.31-1.09-2.49-1.93-3.52l.87-.55c1.92,2.19,2.89,4.93,2.92,8.22Z"/>
        <path class="cls-3" d="m298.29,178.12c-.51,2.89-2.09,5.04-4.73,6.45l-.56-.73c.83-.48,1.51-1,2.05-1.57.54-.57.96-1.14,1.25-1.71.29-.57.5-1.09.63-1.55.13-.46.23-.91.31-1.34.08-.43.13-1.31.16-2.63h-3.98v-.9h5.78v-2.15h1.15v2.15h6.08v.9h-7.88c0,.91-.05,1.65-.13,2.23h6.35v1.85c0,.8-.03,1.51-.08,2.11-.06.61-.14,1.12-.26,1.54s-.29.75-.5.99c-.21.24-.47.41-.76.52-.29.11-.54.16-.74.17-.2,0-.69.01-1.47.01h-.92l-.15-.99h1.84c.85,0,1.38-.35,1.6-1.04.22-.69.32-1.72.32-3.09v-1.23h-5.36Z"/>
        <path class="cls-3" d="m310.57,183.96l-1.01.23c-.48-1.55-.73-3.22-.73-5.03,0-1.97.32-4.1.97-6.38l1.08.19c-.65,2.14-.97,4.22-.97,6.25,0,1.67.22,3.25.65,4.74Zm9.62-.35c-.98.1-1.94.15-2.88.15-1.31,0-2.28-.08-2.93-.23-.65-.15-1.14-.41-1.47-.76s-.5-.81-.5-1.36c0-.81.35-1.66,1.06-2.56l.82.44c-.58.63-.87,1.32-.87,2.06,0,.37.16.66.47.89.31.23.73.37,1.25.45.52.07,1.27.11,2.23.11s1.92-.06,2.82-.17v.98Zm-.08-8.96c-.75-.01-1.45-.02-2.11-.02-.97,0-2.73.07-5.28.2,0-.21-.01-.53-.04-.95,2.42-.14,4.38-.21,5.9-.21.75,0,1.25,0,1.5.02v.06c0,.22.01.52.04.9Z"/>
        <path class="cls-3" d="m328.64,183.91l.26-.87c.57.22,1.17.32,1.8.32.88,0,1.57-.2,2.07-.61.5-.41.75-.99.75-1.75,0-.83-.34-1.46-1.01-1.9s-1.62-.65-2.83-.65c-.81,0-1.59.09-2.35.27v4.23c0,.9-.68,1.35-2.05,1.35-.78,0-1.47-.23-2.07-.69-.59-.46-.89-1.05-.89-1.76,0-.78.37-1.51,1.11-2.2.74-.69,1.66-1.21,2.77-1.58v-2.42h-3.51v-.92h3.48v-2.28h1.16v2.18h3.68v.92h-3.68v2.23c.77-.16,1.54-.25,2.33-.25,1.41,0,2.59.3,3.55.9.96.6,1.44,1.44,1.44,2.51s-.33,1.91-1,2.51-1.58.9-2.72.9c-.96,0-1.72-.15-2.29-.44Zm-2.4-4.85c-.81.32-1.49.73-2.04,1.22s-.82,1-.82,1.52.2.88.6,1.14c.4.26.85.39,1.34.39.61,0,.92-.22.92-.65v-3.62Zm9.24-3.06l-.91.65c-.92-1.14-2.07-2.19-3.45-3.14l.74-.66c.58.37,1.23.87,1.94,1.48.71.62,1.27,1.17,1.68,1.67Z"/>
        <path class="cls-3" d="m349.72,174.93h-4.45v2.71c.31.54.47,1.29.47,2.24,0,1.24-.46,2.28-1.38,3.12-.91.84-2.04,1.31-3.39,1.39l-.29-.88c1.13-.08,2.07-.47,2.84-1.16.77-.69,1.15-1.56,1.15-2.59,0-.17,0-.33-.03-.47-.12.54-.39.97-.82,1.29-.43.31-.95.47-1.56.47-.69,0-1.27-.22-1.74-.65-.47-.43-.71-.98-.71-1.64,0-.76.27-1.39.8-1.89.53-.5,1.19-.76,1.96-.76.58,0,1.1.17,1.56.51v-1.7h-7.06v-.92h7.06v-1.68h1.13v1.68h4.45v.92Zm-5.57,2.86c-.27-.53-.83-.8-1.68-.8-.41,0-.78.18-1.11.51-.32.34-.48.72-.48,1.13,0,.46.13.82.38,1.1.25.28.6.42,1.04.42.55,0,1-.18,1.33-.54.33-.36.5-.84.52-1.42v-.4Z"/>
        <path class="cls-3" d="m364.14,174.93h-4.45v2.71c.31.54.47,1.29.47,2.24,0,1.24-.46,2.28-1.38,3.12-.91.84-2.04,1.31-3.39,1.39l-.29-.88c1.13-.08,2.07-.47,2.84-1.16.77-.69,1.15-1.56,1.15-2.59,0-.17,0-.33-.03-.47-.12.54-.39.97-.82,1.29-.43.31-.95.47-1.56.47-.69,0-1.27-.22-1.74-.65-.47-.43-.71-.98-.71-1.64,0-.76.27-1.39.8-1.89.53-.5,1.19-.76,1.96-.76.58,0,1.1.17,1.56.51v-1.7h-7.06v-.92h7.06v-1.68h1.13v1.68h4.45v.92Zm-5.57,2.86c-.27-.53-.83-.8-1.68-.8-.41,0-.78.18-1.11.51-.32.34-.48.72-.48,1.13,0,.46.13.82.38,1.1.25.28.6.42,1.04.42.55,0,1-.18,1.33-.54.33-.36.5-.84.52-1.42v-.4Z"/>
        <path class="cls-3" d="m371.87,181.93l-.81.68c-.16-.19-.33-.42-.52-.68-1.08,1.09-2.12,1.63-3.11,1.63-.59,0-1.07-.22-1.45-.66-.37-.44-.56-.99-.56-1.63,0-.85.22-1.67.66-2.47s1.04-1.48,1.8-2.05c-.3-.91-.55-1.89-.75-2.94l1.07-.27c.14.82.35,1.69.63,2.61,1.08-.59,2.29-.95,3.63-1.09.08-.88.13-1.7.13-2.45h1.16c-.02.93-.07,1.74-.13,2.39,1.42.02,2.59.45,3.53,1.27.93.82,1.4,1.89,1.4,3.21,0,1.46-.55,2.61-1.65,3.45-1.1.84-2.59,1.33-4.47,1.45l-.26-.92c3.49-.34,5.23-1.69,5.23-4.05,0-1.04-.37-1.88-1.1-2.52-.73-.64-1.67-.96-2.8-.97-.32,1.99-1.07,3.73-2.23,5.22.17.24.37.51.61.82Zm-1.91-.85c-.7-1.07-1.28-2.2-1.74-3.39-.44.38-.79.79-1.06,1.21s-.45.82-.55,1.21c-.09.39-.14.81-.14,1.27,0,.31.11.58.33.82.22.24.49.36.79.36.67,0,1.45-.5,2.36-1.49Zm-.87-4.04c.41,1.1.93,2.16,1.56,3.17.88-1.24,1.44-2.66,1.69-4.24-1.24.15-2.33.5-3.25,1.07Z"/>
        <path class="cls-3" d="m380.43,182.57c0-.51.19-.95.56-1.31.37-.36.82-.54,1.35-.54s.97.18,1.35.54c.37.36.56.8.56,1.31s-.19.95-.56,1.31c-.37.36-.82.54-1.35.54s-.97-.18-1.35-.54c-.37-.36-.56-.8-.56-1.31Zm.82,0c0,.3.11.55.32.76s.46.32.76.32.55-.11.76-.32c.21-.21.32-.46.32-.76s-.11-.55-.32-.76c-.21-.21-.46-.32-.76-.32s-.55.11-.76.32c-.21.21-.32.46-.32.76Z"/>
      </g>
    </g>
  </g>
</svg>