<?xml version="1.0" encoding="UTF-8"?>
<svg id="_レイヤー_2" data-name="レイヤー 2" xmlns="http://www.w3.org/2000/svg" viewBox="0 0 475 272.31">
  <defs>
    <style>
      .cls-1 {
        fill: #fff;
      }

      .cls-2 {
        fill: none;
      }
    </style>
  </defs>
  <g id="_レイヤー_1-2" data-name="レイヤー 1">
    <g>
      <rect class="cls-2" width="475" height="272.31"/>
      <polygon class="cls-1" points="464.39 242.32 464.39 262.96 443.75 262.96 464.39 242.32"/>
    </g>
    <g>
      <g>
        <path class="cls-1" d="m194.4,146.75c.9-.1,1.4-.18,1.52-.22.08-.03.15-.12.22-.28v-.1c0-.15.02-.71.07-1.67.01-.27.02-.54.02-.79l-.03-1.1.02-1.25v-2.32s0-1.66,0-1.66c0-.7-.05-1.13-.16-1.28-.11-.15-.41-.26-.88-.33s-.74-.11-.79-.14-.07-.08-.07-.15c0-.04,0-.1.03-.17.06-.06.2-.09.43-.09.03,0,.12,0,.25-.02.14-.02.27-.02.39-.02h.76l2.43-.03c1.37,0,2.34.1,2.89.3.55.2.99.55,1.32,1.03.33.48.49,1.02.49,1.62,0,1.13-.59,2-1.78,2.6-.2.1-.36.2-.48.28.21.44.5.98.88,1.6l1.17,2.01c.47.74.79,1.2.97,1.39.18.19.4.34.65.47.26.12.69.24,1.29.35,0,.06,0,.11,0,.15s0,.08,0,.14c-.84.01-1.83.02-2.97.02-.08,0-.19,0-.33-.02-.44-.84-.95-1.76-1.54-2.77l-1.37-2.5c-.19-.26-.34-.42-.46-.49-.12-.06-.28-.1-.48-.1h-.79s-.26,0-.26,0c-.02.2-.03.6-.03,1.21v3.16c0,.12.02.28.07.49.05.12.13.21.25.28s.47.18,1.04.32l.38.09c.05.06.07.15.07.25-.17.03-.28.05-.35.05-.55,0-.94,0-1.17-.02-.12,0-.21,0-.29,0l-1.25.02h-1.23c-.06,0-.33,0-.84.02l-.18-.04-.02-.09c0-.06.04-.12.13-.19Zm3.43-6.04c.17,0,.29,0,.37,0,.44,0,.95-.05,1.53-.16.41-.08.74-.21.99-.39.25-.18.46-.45.63-.81s.25-.73.25-1.11c0-.42-.13-.86-.4-1.33-.2-.36-.55-.65-1.03-.89s-1.06-.36-1.74-.36c-.17,0-.38,0-.65.03-.02.32-.04.57-.04.74l.05,1.72v.71c0,.48,0,1.09.03,1.84Z"/>
        <path class="cls-1" d="m206.16,146.9c.06-.05.11-.09.16-.1.1-.03.28-.06.54-.07.6-.04.97-.09,1.11-.17.09-.12.13-.3.13-.52v-.65s0-2.35,0-2.35l-.02-1.11v-2.32s-.04-2.64-.04-2.64c0-.63-.05-.98-.12-1.06-.11-.12-.44-.19-.99-.2-.23,0-.44-.02-.62-.06-.08-.04-.12-.1-.12-.17,0-.05.02-.11.05-.18.06-.03.1-.05.15-.05.09,0,.19,0,.31,0,.36.04.74.06,1.13.06l.68-.02,1.63.04c.81,0,1.45,0,1.9-.03.46-.02.76-.03.92-.03.14,0,.49.01,1.05.04h1.31s.16.02.16.02l.77-.03.09.05s.05.1.06.16c0,.09-.01.22-.04.4-.03.18-.04.29-.04.33,0,.64.02,1.18.06,1.63,0,.04-.02.06-.05.07-.07,0-.13,0-.18-.03-.07-.12-.16-.32-.27-.62-.11-.3-.29-.64-.51-1.03-.15-.26-.27-.41-.36-.46-.09-.05-.27-.07-.54-.07-.06,0-.34,0-.84-.02-.14,0-.27,0-.4,0l-2.64.06h-.23c-.34,0-.54.04-.61.13-.1.15-.16.58-.16,1.3,0,.07.02.81.05,2.22v1.28c.07.02.14.03.22.03h.16c.1,0,.26,0,.46,0,.32.01.54.02.65.02.07,0,.14,0,.19,0,.67-.02,1.52-.04,2.57-.04.33-.06.52-.12.57-.19.09-.11.16-.4.21-.87.05-.47.15-.73.31-.79.08,0,.15.02.22.05.01.05.02.1.02.14s0,.11-.02.21c-.03.23-.05.94-.05,2.14,0,.32.02.68.05,1.07.03.39.05.61.05.64,0,.06,0,.13-.03.22-.05.02-.09.04-.12.04h-.06c-.1-.17-.19-.44-.29-.8-.16-.62-.33-1.01-.5-1.17-.18-.16-.46-.24-.85-.24-.09,0-.24,0-.47.01-.23,0-.57.01-1.02.01h-.6c-.86,0-1.42.02-1.68.06v.31s0,1.7,0,1.7v1.07s0,1.05,0,1.05c0,.63.05.99.12,1.09.1.14.33.2.68.2h.56s.24,0,.58,0c.34,0,.75.01,1.24.01,1.19,0,1.98-.05,2.37-.15s.72-.28.97-.54c.26-.26.58-.82.97-1.68.12-.25.23-.38.35-.38.06,0,.12.02.18.07-.18.61-.28,1.01-.3,1.2-.07.43-.11.87-.12,1.32,0,.2-.05.37-.15.51h-.2l-2.6.03h-1.16s-2.77.03-2.77.03h-1.13c-.14,0-.27,0-.4,0-1.11.05-1.93.07-2.45.07-.09,0-.16-.02-.19-.04-.03-.03-.05-.08-.05-.14v-.09Z"/>
        <path class="cls-1" d="m222.51,135.59c.96-.47,2.01-.71,3.16-.71s2.1.26,2.99.77c.88.51,1.59,1.19,2.12,2.02.65,1.04.98,2.17.98,3.38,0,.79-.17,1.61-.51,2.45-.34.84-.77,1.53-1.31,2.07s-1.08.94-1.64,1.21c-.56.26-1.01.42-1.33.45-.22.03-.38.07-.49.13.25.3.69.69,1.3,1.17.61.48,1.22.85,1.82,1.12.06.02.16.06.3.14.33.16.64.3.93.43l.21.08h.08s.24.11.24.11c.32.14.62.25.89.33,0,.06,0,.1,0,.13v.11s0,.17,0,.17c-.2,0-.32,0-.36,0-.57,0-1.22-.11-1.97-.32-.75-.21-1.44-.49-2.06-.85-.62-.35-1.3-.82-2.04-1.4-.49-.4-.9-.79-1.23-1.17-1.08-.15-2.05-.53-2.92-1.12-.87-.59-1.53-1.32-1.99-2.2-.46-.87-.69-1.77-.69-2.69,0-1.08.28-2.16.85-3.25.57-1.09,1.45-1.95,2.65-2.57Zm1.81,11.36c.34.06.66.09.95.09.68,0,1.29-.1,1.83-.31.54-.21.97-.48,1.29-.81.42-.44.78-1.05,1.08-1.85.3-.8.45-1.79.45-2.99,0-.94-.14-1.8-.42-2.58-.18-.54-.49-1.08-.92-1.62s-.88-.94-1.34-1.2c-.47-.26-1.05-.38-1.76-.38-.83,0-1.61.22-2.34.65-.73.43-1.33,1.18-1.82,2.25-.31.68-.46,1.62-.46,2.83,0,.99.17,1.95.51,2.89.34.94.83,1.7,1.46,2.28.36.34.86.59,1.5.76Z"/>
        <path class="cls-1" d="m238.1,135.18c.03.1.05.18.05.24,0,.04,0,.09-.03.17-.16.04-.29.06-.39.06-.04,0-.12,0-.22-.01-.1,0-.18-.01-.25-.01-.28,0-.51.06-.67.17-.11.07-.18.16-.2.27l-.09,1.05.03,4.58c0,1.68.06,2.72.17,3.13.1.41.28.75.53,1.01.25.26.62.48,1.11.66.5.17.98.26,1.45.26,1.05,0,1.85-.15,2.41-.45.56-.3.96-.72,1.2-1.25.24-.53.37-1.34.37-2.43,0-.03,0-.28-.03-.74v-.27c0-.1,0-.29.02-.58.01-.29.02-.45.02-.5l-.14-2.65c-.04-.89-.09-1.42-.15-1.58-.06-.16-.14-.28-.25-.36-.24-.17-.7-.33-1.37-.46-.03-.09-.05-.18-.06-.27.24-.02.48-.04.71-.04.25,0,.5,0,.78.03.41.03.63.05.67.05l1.46-.05h.29s0,.34,0,.34c-.76.1-1.21.21-1.36.35-.15.13-.22.38-.22.73,0,.19.01.61.04,1.25l.06,1.91v.76s.02.96.02.96c0,1.21-.03,2.03-.1,2.47-.1.61-.24,1.09-.42,1.45-.18.36-.45.68-.79.97-.35.29-.81.52-1.38.71-.58.19-1.14.28-1.71.28-.88,0-1.52-.06-1.9-.18-.71-.22-1.27-.5-1.69-.84s-.71-.69-.87-1.04c-.22-.46-.32-1.12-.32-2v-.64l-.03-2.59.03-2.09v-1.41c0-.36-.05-.61-.15-.75-.07-.1-.17-.15-.3-.15h-.55c-.41,0-.67-.03-.78-.12-.02-.06-.03-.1-.03-.15,0-.06.02-.1.06-.13.07-.05.15-.07.25-.07h.86s1.46,0,1.46,0l2.43-.03Z"/>
        <path class="cls-1" d="m246.57,146.9c.06-.05.11-.09.16-.1.1-.03.28-.06.54-.07.6-.04.97-.09,1.11-.17.09-.12.13-.3.13-.52v-.65s0-2.35,0-2.35l-.02-1.11v-2.32s-.04-2.64-.04-2.64c0-.63-.05-.98-.12-1.06-.11-.12-.44-.19-.99-.2-.23,0-.44-.02-.62-.06-.08-.04-.12-.1-.12-.17,0-.05.02-.11.05-.18.06-.03.1-.05.15-.05.09,0,.19,0,.31,0,.36.04.74.06,1.13.06l.68-.02,1.63.04c.81,0,1.45,0,1.9-.03.46-.02.76-.03.92-.03.14,0,.49.01,1.05.04h1.31s.16.02.16.02l.77-.03.09.05s.05.1.06.16c0,.09-.01.22-.04.4-.03.18-.04.29-.04.33,0,.64.02,1.18.06,1.63,0,.04-.02.06-.05.07-.07,0-.13,0-.18-.03-.07-.12-.16-.32-.27-.62-.11-.3-.29-.64-.51-1.03-.15-.26-.27-.41-.36-.46-.09-.05-.27-.07-.54-.07-.06,0-.34,0-.84-.02-.14,0-.27,0-.4,0l-2.64.06h-.23c-.34,0-.54.04-.61.13-.1.15-.16.58-.16,1.3,0,.07.02.81.05,2.22v1.28c.07.02.14.03.22.03h.16c.1,0,.26,0,.46,0,.32.01.54.02.65.02.07,0,.14,0,.19,0,.67-.02,1.52-.04,2.57-.04.33-.06.52-.12.57-.19.09-.11.16-.4.21-.87.05-.47.15-.73.31-.79.08,0,.15.02.22.05.01.05.02.1.02.14s0,.11-.02.21c-.03.23-.05.94-.05,2.14,0,.32.02.68.05,1.07.03.39.05.61.05.64,0,.06,0,.13-.03.22-.05.02-.09.04-.12.04h-.06c-.1-.17-.19-.44-.29-.8-.16-.62-.33-1.01-.5-1.17-.18-.16-.46-.24-.85-.24-.09,0-.24,0-.47.01-.23,0-.57.01-1.02.01h-.6c-.86,0-1.42.02-1.68.06v.31s0,1.7,0,1.7v1.07s0,1.05,0,1.05c0,.63.05.99.12,1.09.1.14.33.2.68.2h.56s.24,0,.58,0c.34,0,.75.01,1.24.01,1.19,0,1.98-.05,2.37-.15s.72-.28.97-.54c.26-.26.58-.82.97-1.68.12-.25.23-.38.35-.38.06,0,.12.02.18.07-.18.61-.28,1.01-.3,1.2-.07.43-.11.87-.12,1.32,0,.2-.05.37-.15.51h-.2l-2.6.03h-1.16s-2.77.03-2.77.03h-1.13c-.14,0-.27,0-.4,0-1.11.05-1.93.07-2.45.07-.09,0-.16-.02-.19-.04-.03-.03-.05-.08-.05-.14v-.09Z"/>
        <path class="cls-1" d="m265.88,135.64c.05.41.07.64.07.7l-.04.82c-.01.35-.03.58-.05.67-.06.02-.1.04-.14.04l-.08-.02c-.2-.86-.53-1.49-1-1.88s-1.05-.59-1.72-.59-1.28.2-1.73.59-.67.85-.67,1.38c0,.4.16.77.47,1.1.31.33,1.12.83,2.41,1.49.99.51,1.69.93,2.12,1.25.42.32.75.7.96,1.12.22.43.32.9.32,1.42,0,.66-.17,1.28-.51,1.86-.34.58-.8,1.02-1.38,1.31-.58.29-1.35.44-2.3.44-.83,0-1.63-.13-2.39-.4-.45-.16-.72-.29-.82-.39s-.15-.2-.15-.31c0-.07,0-.15.02-.26.09-.73.13-1.32.14-1.79.01-.29.03-.46.06-.51.02-.04.07-.06.14-.06.06,0,.1.02.13.06.03.04.06.12.07.23.07.76.42,1.44,1.05,2.03.63.6,1.34.9,2.13.9.49,0,.93-.1,1.34-.31.41-.2.73-.5.96-.88.23-.38.35-.76.35-1.12,0-.5-.18-.95-.53-1.37-.35-.41-1.06-.89-2.12-1.45-1.06-.55-1.75-.95-2.07-1.21-.52-.41-.91-.85-1.16-1.31-.19-.36-.29-.77-.29-1.25,0-.86.34-1.58,1.02-2.18.68-.59,1.59-.89,2.73-.89.63,0,1.17.07,1.63.21.33.11.67.29,1.03.55Z"/>
        <path class="cls-1" d="m267.93,136.6l.38-1.4c.02-.18.06-.3.1-.36s.09-.08.15-.08c.11,0,.24.13.38.4.1.19.19.31.26.36.07.05.17.09.3.11h.09s.4.03.4.03l2.18.03h2.58s.76,0,.76,0l1.43-.03c.06,0,.14,0,.23.02.42.04.68.05.78.05.09,0,.17-.03.22-.09.02-.02.12-.23.31-.61.08-.17.18-.26.3-.26.05,0,.11.01.19.04.03.12.05.23.05.33v.37s0,.78,0,.78c0,.19-.02.8-.05,1.83,0,.07-.01.13-.04.18-.07.04-.13.06-.18.06s-.09-.02-.13-.07c-.04-.05-.08-.19-.14-.43-.12-.55-.28-.94-.46-1.18-.12-.15-.3-.26-.53-.33-.23-.07-.78-.1-1.66-.1h-1.56c-.01.25-.02.47-.02.67l.07,5.74c0,.23-.01.66-.04,1.29v1.23s0,.68,0,.68c0,.22.04.37.11.46.07.09.27.18.6.27.57.14.95.23,1.14.26.12.01.21.04.29.07v.28l-1.31-.03c-.72,0-1.26-.02-1.63-.04l-1.35.06-.99.06c-.28,0-.45,0-.51-.02l-.13-.06c.01-.14.04-.23.08-.27.04-.04.16-.07.34-.1.26-.04.56-.1.92-.2s.58-.19.69-.29c.06-.06.1-.15.13-.28.06-.27.08-.8.08-1.6v-1.57l-.04-3.43-.04-.74v-2.47h-1.5c-.89,0-1.43.05-1.62.16-.3.17-.75.66-1.35,1.47-.2.3-.37.46-.52.46l-.08-.02s-.04-.07-.04-.1c0-.07.05-.3.15-.67.12-.47.2-.79.22-.96Z"/>
      </g>
      <g>
        <path class="cls-1" d="m186.35,111.85c.97.76,2.56,2.04,5.58,2.04,2.04,0,6.23-.9,6.23-4.95s-3.71-4.54-5.13-4.54c-2.08,0-5.96.97-9.52,3.39.07,1.18.1,2.39.14,3.6,0,.31.21,2.32.21,2.7,0,2.15-1.14,3.71-1.84,3.71-.42,0-.59-.24-1.11-.97-.24-.35-.55-.73-1.35-1.42-.17-.14-1.21-.94-2.25-1.7-.62.94-.97,1.28-1.42,1.28-.76,0-1.94-.8-2.46-1.56-.35-.55-.31-1.21-.28-1.66,1.18.87,1.21.9,1.56.9.21,0,.28-.03.83-.48,2.04-1.56,4.54-3.29,6.44-4.61,0-.76-.07-4.12-.07-4.81,0-.31.03-1.66.07-2.49-.87.28-2.42.76-3.74.76-.87,0-2.67-.73-3.12-2.49.83.66,1.32,1.04,3.05,1.04,1.11,0,3.12-.69,3.84-.97.03-.55.14-3.08.14-3.57,0-.83-.07-3.15-.38-3.78q-.17-.38-1.87-1.28c.38-.17.66-.31,1.46-.31,1.45,0,3.43.83,3.43,1.87,0,.31-.07.55-.24,1.11-.38,1.11-.73,2.42-.97,5.37,2.04-.87,2.42-1.18,2.81-1.49.69-.55.83-.55,1.28-.55,1.07,0,1.52.45,1.52.83s-.21.62-.83.9c-.28.1-3.36,1.46-4.88,2.04-.07,1.66-.1,3.12-.1,3.71,0,.42.03,1.21.1,3.19,3.05-1.9,6.34-3.53,9.94-3.53,3.08,0,7,1.52,7,5.78s-3.67,6.58-7.62,6.58-5.3-1.77-6.62-3.53l.17-.1Zm-4.29.07c0-1.39,0-1.56-.03-3.05-1.66,1.32-3.22,2.81-4.47,4.54.38.17,2.18.94,2.6,1.14.69.31.87.38,1.14.38.66,0,.76-.66.76-2.01v-1Zm12.5-11.81c.45-.24,1-.55,2.22-1.59.66-.59.8-.76.8-1.07,0-1.11-2.29-2.15-4.88-3.29.31-.07.55-.14,1-.14,5.82,0,7.1,3.81,7.1,5.33,0,.73-.55.76-.62.76-.38,0-.8-.21-.87-.24-.73-.35-1-.42-1.45-.42-.83,0-1.7.28-3.29.83v-.17Z"/>
        <path class="cls-1" d="m217.69,91.62c-.07.76-.1,1.52-.1,2.67,0,.9.21,4.88.21,5.71,0,.48,0,1.63-1.35,1.63-.69,0-.66-.24-.62-1.35h-6.96c0,1.8.07,4.68.07,6.48v8c0,.45.07,2.49.07,2.91,0,.24,0,.62-.21.94-.31.42-.9.69-1.32.69-.76,0-.76-.59-.76-.9,0-.07.14-.17.31-9.73.17-9.04.07-10.04.07-10.77,0-1.84,0-6.51-.28-8.1-.03-.28-.07-.38-.28-1.28l2.7,1.21h6.37l.42-.52c.17-.17.24-.28.45-.28.1,0,.14,0,.42.21l1.52,1c.17.14.24.24.24.42,0,.35-.28.55-.97,1.07Zm-1.87-1.07h-6.96v3.91h6.96v-3.91Zm0,4.75h-6.96v4.16h6.96v-4.16Zm9.66,10.77c-.07,2.15-.03,4.26.03,6.41.03,1.84-1,1.9-1.28,1.9-.24,0-.69-.14-.69-.73,0-.38,0-.87.07-1.21h-7.59c0,.21.03,1.04,0,1.21,0,.07-.28,1.28-1.28,1.28-.62,0-.69-.35-.69-.69,0-.03.07-.73.07-.83.1-2.01.1-4.88.1-5.3,0-1.52,0-3.67-.24-4.61l2.22,1.04h7.17l.55-.59c.24-.28.31-.38.45-.38s.24.07.48.24l1.28.87c.21.14.31.21.31.35,0,.35-.48.69-.97,1.04Zm-1.84-.69h-7.62v6.23h7.62v-6.23Zm10.15-13.75c-.03.9-.07,8.59-.07,10.56,0,2.25,0,4.47.07,6.1.07,2.7.1,4.92.1,5.51,0,3.67,0,4.43-3.6,5.58-.48-1.52-.83-1.9-3.26-3.08v-.17c.83.03,1.84.1,2.88.1,1.42,0,1.56,0,1.87-.28.17-.21.21-.24.21-2.39s-.14-11.36-.03-13.27h-7.24c-.07.31-.24,1.25-1.32,1.25-.21,0-.69,0-.69-.8,0-2.36.21-6.13.21-8.49,0-1.39-.21-3.15-.31-3.67l2.32,1.21h6.82l.52-.66c.14-.17.28-.31.45-.31s.42.17.55.28l1.42,1.07c.17.14.28.21.28.38,0,.28-.8.83-1.18,1.07Zm-1.84-1h-7.24v3.84h7.24v-3.84Zm0,4.68h-7.24v4.16h7.24v-4.16Z"/>
        <path class="cls-1" d="m267.19,102.71c-5.92-2.6-10.98-7.83-13.37-12.5h-.17c-5.85,7.79-9.94,12.4-15.93,15.21l-.21-.28c5.33-3.39,10.29-10.32,12.37-13.27.94-1.28,1.8-2.53,2.22-4.16l2.77,1.18c.28.1.35.24.35.42,0,.42-.31.73-.73.83,2.63,4.29,9.32,9.21,15.76,10.11v.28c-.76.21-2.42,1.04-3.05,2.18Zm-5.16,6.2c-.07,2.01-.07,5.09.03,6.72,0,.28.14,1.39.14,1.63,0,.9-1.14,1.18-1.52,1.18-.52,0-.66-.31-.66-.66,0-.1.03-.62.07-.8h-12.85c0,.35,0,.97-.03,1.04-.1.42-.83.9-1.52.9-.35,0-.66-.21-.66-.62,0-.24.1-1.35.1-1.56.1-2.42.17-5.13.17-7.55,0-1.21,0-1.77-.21-3.22l2.56,1.21h12.37l.66-.76c.17-.24.28-.31.45-.31.14,0,.28.1.48.28l1.14,1.04c.31.28.38.38.38.48,0,.28-.1.35-1.11,1Zm-1.11-6.34h-10.04c-1.21,0-3.15.14-4.47.42l-.8-1.52c2.6.24,5.09.28,5.75.28h5.96l1.04-1.21c.24-.28.35-.45.52-.45.21,0,.59.31.66.38l1.56,1.21c.17.14.35.31.35.52,0,.35-.28.38-.52.38Zm-.83,5.44h-12.88v8.14h12.88v-8.14Z"/>
        <path class="cls-1" d="m285.4,106.14l.31.07c3.57.8,3.64.97,4.05.97,1,0,1.32-.73,1.45-1.18.24-.87.48-4.71.55-5.89-3.46.55-6.75,1.39-9.42,2.04-.17,3.46-.17,3.84-.17,4.54,0,6.34,1.52,8.04,7.45,8.04,2.29,0,4.78-.38,5.3-.48.9-.21,1-.17,1.28-.17.9,0,1.91.59,1.91,1.32,0,.55-.45.73-.62.8-.8.21-3.78.24-4.81.24-3.57,0-9.42,0-11.19-4.61-.73-1.87-.87-3.84-.87-9.18-3.08.9-3.71,1.28-4.68,1.87-.73.45-.9.55-1.35.55-.59,0-3.22-1.21-3.05-3.67,1,.94,2.01,1.45,2.88,1.45.28,0,.62-.03,1.59-.31,2.22-.66,3.91-1.07,4.61-1.25,0-1.14,0-4.43-.38-5.2-.31-.69-1.11-1.18-1.91-1.56.31-.24.45-.31,1.14-.31,1.7,0,3.29,1.04,3.29,1.7,0,.1-.03.52-.14.94-.14.62-.17,3.43-.21,4.02,3.12-.76,6.23-1.42,9.39-1.94.03-1.52.1-5.75-.42-7.07-.42-1.11-2.04-1.56-2.67-1.73.42-.17,1.07-.45,2.04-.45s3.12.69,3.12,1.97c0,.1-.17,1.11-.21,1.18-.17,1.04-.24,4.54-.28,5.85.83-.14,4.61-.73,5.37-.9.59-.1,1.63-.35,1.97-.35.59,0,2.08.21,2.08,1.07,0,.94-.87.94-1.32.94-.31,0-1.66-.03-1.94-.03-1.25,0-3.26.14-6.2.48-.03,2.11-.31,6.3-1.04,8.04-.73,1.7-1.77,1.9-2.08,1.9s-.38-.07-1.04-.73c-1.25-1.25-3.74-2.77-3.84-2.84l.03-.14Z"/>
      </g>
      <g>
        <path class="cls-1" d="m140.45,184.61l-.36-.78c.6-.09,1.32-.26,2.17-.51.85-.24,1.48-.47,1.9-.68l.72.66c-.52.26-1.23.52-2.13.78-.9.26-1.67.44-2.3.53Zm.37-8.07l-.63-.61c.92-.54,1.76-1.15,2.52-1.85l.73.42c-.67.72-1.54,1.4-2.61,2.04Zm2.01-3.14c-.42-.25-1.06-.56-1.92-.91l.58-.63c.54.18,1.18.47,1.93.87l-.59.68Zm-1.35,9.1v-5.49h10.43v5.49h-10.43Zm1.04-3.91h8.31v-.89h-8.31v.89Zm0,1.54h8.31v-.91h-8.31v.91Zm8.31.65h-8.31v.97h8.31v-.97Zm-2.54-7.65c-.01.15-.03.27-.05.38.13.47.57.94,1.34,1.42.77.47,2,.86,3.71,1.15l-.42.79c-1.44-.27-2.54-.6-3.3-.97-.76-.38-1.32-.82-1.68-1.34-.35.58-.99,1.07-1.92,1.45-.93.39-1.88.6-2.84.66l-.19-.72c1.34-.15,2.39-.46,3.14-.95.76-.49,1.13-1.09,1.13-1.8v-.06h-1.48c-.56.57-1.03.96-1.42,1.18l-.61-.5c.43-.33.86-.72,1.29-1.17.43-.45.74-.84.92-1.17l1.03.19c-.21.31-.4.55-.56.75h5.97l.23.36c-.54.78-1.11,1.42-1.7,1.9l-.71-.37c.28-.26.6-.65.97-1.16h-2.87Zm4.35,11.48c-2.04-.4-3.53-.83-4.47-1.28l.65-.69c1.26.5,2.71.87,4.34,1.12l-.51.85Z"/>
        <path class="cls-1" d="m154.81,182.53l-.69-.58c.38-.4.85-1.09,1.43-2.07.58-.98,1-1.85,1.27-2.59h-2.32v-.86h2.56v-4.59h1.06v4.59h1.96v.86h-1.96v.51c.35.46,1.04,1.08,2.06,1.88l-.57.88c-.52-.43-1.02-.91-1.49-1.43v5.44h-1.06v-5.44c-.71,1.38-1.46,2.52-2.25,3.4Zm.46-6.95c-.1-.75-.25-1.71-.46-2.88l1-.13.46,2.89-1,.13Zm4.59-.03l-.89-.08.54-2.9,1,.12-.65,2.87Zm.42,5.96l-.03-.94,4.87-.58v-8.26h1.13v8.12l1.37-.16v.94l-1.37.16v3.62h-1.13v-3.48l-4.84.58Zm2.63-2.3c-.61-.86-1.33-1.8-2.16-2.8l.75-.63c.72.78,1.48,1.68,2.28,2.69l-.87.73Zm.85-3.44c-.57-.76-1.29-1.67-2.18-2.73l.81-.62c.98,1.07,1.7,1.95,2.18,2.63l-.81.71Z"/>
        <path class="cls-1" d="m168.89,174.94v-.8h4.71v.8h-4.71Zm1.28,8.99v.53h-.94v-4.53h3.97v4h-3.03Zm-.77-10.91v-.81h3.83v.81h-3.83Zm.02,3.81v-.78h3.73v.78h-3.73Zm0,1.9v-.82h3.73v.82h-3.73Zm2.78,1.97h-1.97v2.44h1.97v-2.44Zm1.77-4v-.76h3.33v-1.06h-2.81v-.73h2.81v-.99h-3.12v-.78h3.12v-.72h1.11v.72h3.31v.78h-3.31v.99h3.02v.73h-3.02v1.06h3.57v.76h-8Zm6.28,5.24h-4.58v2.59h-1.08v-6.93h6.72v5.91c0,.28-.11.51-.32.68-.21.17-.47.25-.78.25h-1.46l-.11-.93h1.08c.35,0,.53-.15.53-.45v-1.12Zm0-2.56v-1.03h-4.58v1.03h4.58Zm-4.58,1.81h4.58v-1.08h-4.58v1.08Z"/>
        <path class="cls-1" d="m183.44,182.9l-.41-.97c.69-.22,1.58-.56,2.68-1.04,1.1-.47,1.98-.89,2.63-1.23l.26.89c-.36.24-1.1.62-2.22,1.13-1.12.51-2.1.92-2.94,1.22Zm5.65,1.62h-1.97l-.16-1h1.68c.39,0,.58-.18.58-.55v-7.97h-5.64v-.91h5.64v-2.56h1.13v2.56h3.67c-.3-.33-.89-.9-1.79-1.7l.74-.58c.46.36,1.1.91,1.91,1.66l-.77.62h2.27v.91h-6.03v.65l.08.28c.22.73.8,1.65,1.73,2.75,1.08-.81,2.03-1.64,2.87-2.49l.87.68c-.88.85-1.92,1.68-3.13,2.49,1.26,1.36,2.56,2.48,3.92,3.35l-.78.82c-1.26-.88-2.38-1.85-3.35-2.89s-1.71-2.04-2.19-2.98v5.73c0,.32-.13.59-.4.81-.27.22-.56.33-.87.33Zm-2.62-5.3c-.48-.85-1.11-1.76-1.87-2.73l.94-.51c.86,1.1,1.5,2,1.92,2.69l-1,.55Z"/>
        <path class="cls-1" d="m203.25,184.04l-1.11.22c-.36-1.58-.99-4.13-1.89-7.63-.9.25-1.76.5-2.59.75l-.19-.97,2.53-.73c-.34-1.28-.64-2.36-.91-3.24l1.13-.25.86,3.2c1.32-.35,2.48-.63,3.47-.85-.43-.64-.83-1.21-1.2-1.69l.88-.46c.29.34.76.99,1.41,1.94.85-.15,1.51-.23,1.98-.23.99,0,1.78.28,2.39.84.61.56.91,1.31.91,2.24s-.34,1.73-1.02,2.33c-.68.6-1.63.89-2.85.89-.66,0-1.29-.06-1.89-.18l.03-.91c.48.08,1.01.13,1.58.13.44,0,.83-.03,1.17-.09.34-.06.65-.18.94-.38.29-.19.52-.44.68-.74.16-.3.24-.64.24-1.01,0-.69-.19-1.23-.57-1.62-.38-.39-.92-.59-1.6-.6-.33,0-.8.05-1.41.16.31.48.58.97.84,1.47l-1.02.43c-.15-.38-.46-.94-.92-1.68-1.05.23-2.31.54-3.78.94l1.93,7.71Z"/>
        <path class="cls-1" d="m212.05,174.98v-.82h4.78v.82h-4.78Zm1.35,8.93v.47h-1.03v-4.39h4.06v3.92h-3.03Zm-.85-10.88v-.84h3.91v.84h-3.91Zm.01,3.87v-.8h3.83v.8h-3.83Zm0,1.9v-.82h3.83v.82h-3.83Zm2.83,1.97h-1.99v2.34h1.99v-2.34Zm1.58.5v-.87h3.64v-2.4h-3.04v-.84h3.04v-2.28h-3.09v-.84h1.66l-.96-2.01,1-.27c.42.86.77,1.62,1.06,2.28h1.83l1.04-2.31,1.06.25-1.06,2.06h2.12v.84h-3.55v2.28h3.05v.84h-3.04v2.4h3.67v.87h-3.66v3.22h-1.13v-3.22h-3.64Z"/>
        <path class="cls-1" d="m227.17,183.3l-.89-.19c.39-1.13.63-2.3.73-3.5l.96.08c-.07.6-.18,1.28-.35,2.04-.16.76-.31,1.28-.45,1.56Zm1.6,1.27v-6.07l-2.25.19-.13-.87,1.11-.05c.33-.44.66-.9,1.01-1.39-.06-.07-.77-.8-2.11-2.18l.69-.61.34.32c.53-.74,1.01-1.53,1.44-2.39l.96.38c-.53.91-1.12,1.78-1.78,2.63.41.41.75.77,1.01,1.06.68-1,1.15-1.77,1.42-2.31l.99.41c-.92,1.4-1.88,2.74-2.9,4.02.96-.06,1.7-.11,2.22-.16-.12-.34-.23-.67-.35-.99l.86-.25c.22.59.49,1.36.81,2.33l-.87.23c-.04-.14-.11-.34-.19-.58-.23.03-.62.07-1.18.12v6.16h-1.08Zm2.23-2.25l-.37-2.62.88-.1c.1.67.24,1.52.43,2.57l-.94.15Zm7.24,1.34h-4.71v.77h-1.03v-12.05h6.78v12.05h-1.04v-.77Zm-2.89-10.48h-1.82v4.26h1.82v-4.26Zm-1.82,9.64h1.82v-4.59h-1.82v4.59Zm4.71-5.38v-4.26h-1.87v4.26h1.87Zm-1.87,5.38h1.87v-4.59h-1.87v4.59Z"/>
        <path class="cls-1" d="m241.96,174.42c-.02.6-.08,1.32-.19,2.18-.11.86-.23,1.49-.35,1.9l-.88-.18c.28-1.01.45-2.34.51-3.97l.91.07Zm1.78,10.12h-1.01v-12.82h1.01v12.82Zm1.75-9.32l-.75.23-.53-1.86.75-.18.53,1.81Zm8.83,1.58h-8.99v-.81h3.8v-1.03h-3.14v-.77h3.14v-.93h-3.62v-.77h3.62v-.85h1.1v.85h3.83v.77h-3.83v.93h3.37v.77h-3.37v1.03h4.09v.81Zm-1.97,5.26h-5.26v2.5h-1.04v-6.83h7.38v5.77c0,.26-.12.48-.36.66-.24.18-.49.27-.75.27h-1.53l-.12-.92h1.13c.14,0,.27-.04.38-.13.11-.09.17-.19.17-.29v-1.03Zm0-2.56v-1.03h-5.26v1.03h5.26Zm-5.26,1.82h5.26v-1.08h-5.26v1.08Z"/>
        <path class="cls-1" d="m258.04,184.55v-2.83h-2.62v-.82h2.62v-1.65h-2.63v-.8h1.54l-.66-2.36h-.8v-.82h2.58v-1.49h-2.16v-.79h2.16v-1.21h1.08v1.21h2.15v.79h-2.15v1.49h2.42v.82h-.62l-.76,2.36h1.42v.8h-2.47v1.65h2.23v.82h-2.23v2.83h-1.1Zm-.14-6.11h1.36l.66-2.36h-2.67l.65,2.36Zm4.37,6.06v-12.36h5.64v2.89c0,.28-.12.51-.37.7-.24.19-.53.29-.85.29h-1.61l-.15-.87h1.28c.42,0,.63-.17.63-.51v-1.68h-3.5v4.2h5.03c-.02,1.75-.55,3.34-1.58,4.76.61.66,1.31,1.26,2.11,1.78l-.68.77c-.77-.55-1.44-1.15-2.02-1.81-.7.77-1.4,1.35-2.11,1.74l-.47-.66c.7-.41,1.37-1.01,2-1.8l-.03-.04c-.36-.45-.69-1-.99-1.67-.31-.67-.51-1.42-.63-2.26h-.63v6.54h-1.08Zm3.91-3.35c.68-1.06,1.05-2.12,1.11-3.2h-2.41c.15,1.14.58,2.2,1.3,3.2Z"/>
        <path class="cls-1" d="m272.54,183.8l-1.05.23c-.48-1.55-.72-3.22-.72-5.03,0-1.97.32-4.1.97-6.38l1.08.19c-.64,2.12-.96,4.15-.96,6.07,0,1.7.23,3.34.69,4.92Zm10.79-1.42l-.63.87c-.46-.41-1.27-1-2.44-1.75v.43c0,.71-.24,1.25-.71,1.6s-1.27.53-2.41.53c-.77,0-1.42-.19-1.97-.56-.55-.37-.82-.87-.82-1.49s.26-1.16.78-1.55c.52-.4,1.15-.6,1.89-.6s1.43.09,2.11.26v-4.16h-4.95v-.95h4.95v-2.59h1.11v2.59h2.63v.95h-2.63v4.55c1.09.44,2.12,1.06,3.09,1.87Zm-4.13-.45v-.85c-.56-.24-1.28-.36-2.16-.36-.49,0-.89.12-1.2.33-.31.22-.47.52-.47.91s.18.68.54.89c.36.21.79.32,1.29.32,1.33,0,1.99-.41,1.99-1.24Z"/>
        <path class="cls-1" d="m296.78,183.51c-1.4.22-2.98.32-4.74.32h-.83c-2.23,0-3.73-.23-4.52-.68-.79-.45-1.18-1.1-1.18-1.94,0-1.02.48-1.96,1.44-2.8l.77.57c-.76.75-1.14,1.46-1.14,2.15,0,.6.34,1.03,1.03,1.29.68.26,2.08.39,4.18.39,1.63,0,3.24-.12,4.82-.35l.18,1.04Zm-.49-8.95c-.24.05-.51.13-.82.25s-.56.22-.76.32c-.2.1-.98.49-2.34,1.17l-.5-.7c.47-.25,1.19-.62,2.15-1.11l-.03-.14c-1.68.03-4.2.11-7.57.23l-.06-.99c1.85-.07,4.4-.11,7.63-.11,1.03,0,1.71,0,2.05.02l.25,1.06Z"/>
        <path class="cls-1" d="m302.35,184.07l-.04-1.01c.89.1,1.83.15,2.8.15,1.4,0,2.54-.22,3.44-.66.9-.45,1.35-1.09,1.35-1.94,0-.46-.08-.83-.23-1.09-.15-.26-.45-.51-.9-.75-.45-.24-1.06-.36-1.82-.36-.98,0-2.01.19-3.09.56-1.08.37-1.92.85-2.53,1.42l-.7-.69c.94-1.21,1.58-2.67,1.92-4.39h-3.55v-.94h3.71c.12-.82.18-1.51.18-2.06h1.16c-.03.73-.08,1.42-.16,2.06h7.81v.94h-7.96c-.2,1.17-.62,2.28-1.27,3.33.61-.33,1.33-.59,2.18-.8.85-.2,1.64-.3,2.38-.3,1.17,0,2.13.27,2.88.8.76.53,1.13,1.27,1.13,2.21,0,1.2-.52,2.1-1.56,2.72-1.04.61-2.5.92-4.37.92-1.04,0-1.96-.04-2.75-.12Z"/>
        <path class="cls-1" d="m316.83,184.2l-.15-.96c3.02-.04,5.05-.3,6.09-.79s1.57-1.18,1.57-2.05c0-.77-.27-1.37-.82-1.79-.55-.42-1.28-.63-2.21-.63-1.11,0-2.25.24-3.43.73-1.18.49-2.08,1.1-2.7,1.86l-.92-.54c.61-1.57.95-3.48,1.02-5.73l1.14.03c-.03,1.27-.29,2.79-.76,4.56.64-.53,1.5-.97,2.56-1.31s2.06-.52,2.98-.52c1.36,0,2.42.29,3.18.86.76.57,1.13,1.4,1.13,2.49,0,1.2-.62,2.14-1.85,2.81-1.23.67-3.4,1-6.51,1h-.32Zm7.37-10.07l-.55.92c-.34-.16-.86-.35-1.55-.56-.69-.21-1.41-.42-2.16-.62-.75-.2-1.91-.44-3.48-.71l.32-.9c1.71.29,3.25.62,4.61.99,1.36.38,2.3.66,2.81.87Z"/>
        <path class="cls-1" d="m334.91,173.04l-.19,7.73h-1.1l-.2-7.73h1.49Zm-.03,10.62h-1.44v-1.49h1.44v1.49Z"/>
      </g>
    </g>
  </g>
</svg>