<?xml version="1.0" encoding="UTF-8"?>
<svg id="_レイヤー_2" data-name="レイヤー 2" xmlns="http://www.w3.org/2000/svg" viewBox="0 0 475 272.31">
  <defs>
    <style>
      .cls-1 {
        fill: #fff;
      }

      .cls-2 {
        fill: none;
      }
    </style>
  </defs>
  <g id="_レイヤー_1-2" data-name="レイヤー 1">
    <g>
      <rect class="cls-2" width="475" height="272.31"/>
      <polygon class="cls-1" points="465.1 242.76 465.1 263.41 444.46 263.41 465.1 242.76"/>
    </g>
    <g>
      <g>
        <path class="cls-1" d="m194.47,146.82c.9-.1,1.4-.18,1.52-.22.08-.03.15-.12.22-.28v-.1c0-.15.02-.71.07-1.67.01-.27.02-.54.02-.79l-.03-1.1.02-1.25v-2.32s0-1.66,0-1.66c0-.7-.05-1.13-.16-1.28-.11-.15-.41-.26-.88-.33s-.74-.11-.79-.14-.07-.08-.07-.15c0-.04,0-.1.03-.17.06-.06.2-.09.43-.09.03,0,.12,0,.25-.02.14-.02.27-.02.39-.02h.76l2.43-.03c1.37,0,2.34.1,2.89.3.55.2.99.55,1.32,1.03.33.48.49,1.02.49,1.62,0,1.13-.59,2-1.78,2.6-.2.1-.36.2-.48.28.21.44.5.98.88,1.6l1.17,2.01c.47.74.79,1.2.97,1.39.18.19.4.34.65.47.26.12.69.24,1.29.35,0,.06,0,.11,0,.15s0,.08,0,.14c-.84.01-1.83.02-2.97.02-.08,0-.19,0-.33-.02-.44-.84-.95-1.76-1.54-2.77l-1.37-2.5c-.19-.26-.34-.42-.46-.49-.12-.06-.28-.1-.48-.1h-.79s-.26,0-.26,0c-.02.2-.03.6-.03,1.21v3.16c0,.12.02.28.07.49.05.12.13.21.25.28s.47.18,1.04.32l.38.09c.05.06.07.15.07.25-.17.03-.28.05-.35.05-.55,0-.94,0-1.17-.02-.12,0-.21,0-.29,0l-1.25.02h-1.23c-.06,0-.33,0-.84.02l-.18-.04-.02-.09c0-.06.04-.12.13-.19Zm3.43-6.04c.17,0,.29,0,.37,0,.44,0,.95-.05,1.53-.16.41-.08.74-.21.99-.39.25-.18.46-.45.63-.81s.25-.73.25-1.11c0-.42-.13-.86-.4-1.33-.2-.36-.55-.65-1.03-.89s-1.06-.36-1.74-.36c-.17,0-.38,0-.65.03-.02.32-.04.57-.04.74l.05,1.72v.71c0,.48,0,1.09.03,1.84Z"/>
        <path class="cls-1" d="m206.23,146.96c.06-.05.11-.09.16-.1.1-.03.28-.06.54-.07.6-.04.97-.09,1.11-.17.09-.12.13-.3.13-.52v-.65s0-2.35,0-2.35l-.02-1.11v-2.32s-.04-2.64-.04-2.64c0-.63-.05-.98-.12-1.06-.11-.12-.44-.19-.99-.2-.23,0-.44-.02-.62-.06-.08-.04-.12-.1-.12-.17,0-.05.02-.11.05-.18.06-.03.1-.05.15-.05.09,0,.19,0,.31,0,.36.04.74.06,1.13.06l.68-.02,1.63.04c.81,0,1.45,0,1.9-.03.46-.02.76-.03.92-.03.14,0,.49.01,1.05.04h1.31s.16.02.16.02l.77-.03.09.05s.05.1.06.16c0,.09-.01.22-.04.4-.03.18-.04.29-.04.33,0,.64.02,1.18.06,1.63,0,.04-.02.06-.05.07-.07,0-.13,0-.18-.03-.07-.12-.16-.32-.27-.62-.11-.3-.29-.64-.51-1.03-.15-.26-.27-.41-.36-.46-.09-.05-.27-.07-.54-.07-.06,0-.34,0-.84-.02-.14,0-.27,0-.4,0l-2.64.06h-.23c-.34,0-.54.04-.61.13-.1.15-.16.58-.16,1.3,0,.07.02.81.05,2.22v1.28c.07.02.14.03.22.03h.16c.1,0,.26,0,.46,0,.32.01.54.02.65.02.07,0,.14,0,.19,0,.67-.02,1.52-.04,2.57-.04.33-.06.52-.12.57-.19.09-.11.16-.4.21-.87.05-.47.15-.73.31-.79.08,0,.15.02.22.05.01.05.02.1.02.14s0,.11-.02.21c-.03.23-.05.94-.05,2.14,0,.32.02.68.05,1.07.03.39.05.61.05.64,0,.06,0,.13-.03.22-.05.02-.09.04-.12.04h-.06c-.1-.17-.19-.44-.29-.8-.16-.62-.33-1.01-.5-1.17-.18-.16-.46-.24-.85-.24-.09,0-.24,0-.47.01-.23,0-.57.01-1.02.01h-.6c-.86,0-1.42.02-1.68.06v.31s0,1.7,0,1.7v1.07s0,1.05,0,1.05c0,.63.05.99.12,1.09.1.14.33.2.68.2h.56s.24,0,.58,0c.34,0,.75.01,1.24.01,1.19,0,1.98-.05,2.37-.15s.72-.28.97-.54c.26-.26.58-.82.97-1.68.12-.25.23-.38.35-.38.06,0,.12.02.18.07-.18.61-.28,1.01-.3,1.2-.07.43-.11.87-.12,1.32,0,.2-.05.37-.15.51h-.2l-2.6.03h-1.16s-2.77.03-2.77.03h-1.13c-.14,0-.27,0-.4,0-1.11.05-1.93.07-2.45.07-.09,0-.16-.02-.19-.04-.03-.03-.05-.08-.05-.14v-.09Z"/>
        <path class="cls-1" d="m225.53,135.7c.05.41.07.64.07.7l-.04.82c-.01.35-.03.58-.05.67-.06.02-.1.04-.14.04l-.08-.02c-.2-.86-.53-1.49-1-1.88s-1.05-.59-1.72-.59-1.28.2-1.73.59-.67.85-.67,1.38c0,.4.16.77.47,1.1.31.33,1.12.83,2.41,1.49.99.51,1.69.93,2.12,1.25.42.32.75.7.96,1.12.22.43.32.9.32,1.42,0,.66-.17,1.28-.51,1.86-.34.58-.8,1.02-1.38,1.31-.58.29-1.35.44-2.3.44-.83,0-1.63-.13-2.39-.4-.45-.16-.72-.29-.82-.39s-.15-.2-.15-.31c0-.07,0-.15.02-.26.09-.73.13-1.32.14-1.79.01-.29.03-.46.06-.51.02-.04.07-.06.14-.06.06,0,.1.02.13.06.03.04.06.12.07.23.07.76.42,1.44,1.05,2.03.63.6,1.34.9,2.13.9.49,0,.93-.1,1.34-.31.41-.2.73-.5.96-.88.23-.38.35-.76.35-1.12,0-.5-.18-.95-.53-1.37-.35-.41-1.06-.89-2.12-1.45-1.06-.55-1.75-.95-2.07-1.21-.52-.41-.91-.85-1.16-1.31-.19-.36-.29-.77-.29-1.25,0-.86.34-1.58,1.02-2.18.68-.59,1.59-.89,2.73-.89.63,0,1.17.07,1.63.21.33.11.67.29,1.03.55Z"/>
        <path class="cls-1" d="m227.71,146.96c.06-.05.11-.09.16-.1.1-.03.28-.06.54-.07.6-.04.97-.09,1.11-.17.09-.12.13-.3.13-.52v-.65s0-2.35,0-2.35l-.02-1.11v-2.32s-.04-2.64-.04-2.64c0-.63-.05-.98-.12-1.06-.11-.12-.44-.19-.99-.2-.23,0-.44-.02-.62-.06-.08-.04-.12-.1-.12-.17,0-.05.02-.11.05-.18.06-.03.1-.05.15-.05.09,0,.19,0,.31,0,.36.04.74.06,1.13.06l.68-.02,1.63.04c.81,0,1.45,0,1.9-.03.46-.02.76-.03.92-.03.14,0,.49.01,1.05.04h1.31s.16.02.16.02l.77-.03.09.05s.05.1.06.16c0,.09-.01.22-.04.4-.03.18-.04.29-.04.33,0,.64.02,1.18.06,1.63,0,.04-.02.06-.05.07-.07,0-.13,0-.18-.03-.07-.12-.16-.32-.27-.62-.11-.3-.29-.64-.51-1.03-.15-.26-.27-.41-.36-.46-.09-.05-.27-.07-.54-.07-.06,0-.34,0-.84-.02-.14,0-.27,0-.4,0l-2.64.06h-.23c-.34,0-.54.04-.61.13-.1.15-.16.58-.16,1.3,0,.07.02.81.05,2.22v1.28c.07.02.14.03.22.03h.16c.1,0,.26,0,.46,0,.32.01.54.02.65.02.07,0,.14,0,.19,0,.67-.02,1.52-.04,2.57-.04.33-.06.52-.12.57-.19.09-.11.16-.4.21-.87.05-.47.15-.73.31-.79.08,0,.15.02.22.05.01.05.02.1.02.14s0,.11-.02.21c-.03.23-.05.94-.05,2.14,0,.32.02.68.05,1.07.03.39.05.61.05.64,0,.06,0,.13-.03.22-.05.02-.09.04-.12.04h-.06c-.1-.17-.19-.44-.29-.8-.16-.62-.33-1.01-.5-1.17-.18-.16-.46-.24-.85-.24-.09,0-.24,0-.47.01-.23,0-.57.01-1.02.01h-.6c-.86,0-1.42.02-1.68.06v.31s0,1.7,0,1.7v1.07s0,1.05,0,1.05c0,.63.05.99.12,1.09.1.14.33.2.68.2h.56s.24,0,.58,0c.34,0,.75.01,1.24.01,1.19,0,1.98-.05,2.37-.15s.72-.28.97-.54c.26-.26.58-.82.97-1.68.12-.25.23-.38.35-.38.06,0,.12.02.18.07-.18.61-.28,1.01-.3,1.2-.07.43-.11.87-.12,1.32,0,.2-.05.37-.15.51h-.2l-2.6.03h-1.16s-2.77.03-2.77.03h-1.13c-.14,0-.27,0-.4,0-1.11.05-1.93.07-2.45.07-.09,0-.16-.02-.19-.04-.03-.03-.05-.08-.05-.14v-.09Z"/>
        <path class="cls-1" d="m240.19,146.82c.9-.1,1.4-.18,1.52-.22.08-.03.15-.12.22-.28v-.1c0-.15.02-.71.07-1.67.01-.27.02-.54.02-.79l-.03-1.1.02-1.25v-2.32s0-1.66,0-1.66c0-.7-.05-1.13-.16-1.28-.11-.15-.41-.26-.88-.33s-.74-.11-.79-.14-.07-.08-.07-.15c0-.04,0-.1.03-.17.06-.06.2-.09.43-.09.03,0,.12,0,.25-.02.14-.02.27-.02.39-.02h.76l2.43-.03c1.37,0,2.34.1,2.89.3.55.2.99.55,1.32,1.03.33.48.49,1.02.49,1.62,0,1.13-.59,2-1.78,2.6-.2.1-.36.2-.48.28.21.44.5.98.88,1.6l1.17,2.01c.47.74.79,1.2.97,1.39.18.19.4.34.65.47.26.12.69.24,1.29.35,0,.06,0,.11,0,.15s0,.08,0,.14c-.84.01-1.83.02-2.97.02-.08,0-.19,0-.33-.02-.44-.84-.95-1.76-1.54-2.77l-1.37-2.5c-.19-.26-.34-.42-.46-.49-.12-.06-.28-.1-.48-.1h-.79s-.26,0-.26,0c-.02.2-.03.6-.03,1.21v3.16c0,.12.02.28.07.49.05.12.13.21.25.28s.47.18,1.04.32l.38.09c.05.06.07.15.07.25-.17.03-.28.05-.35.05-.55,0-.94,0-1.17-.02-.12,0-.21,0-.29,0l-1.25.02h-1.23c-.06,0-.33,0-.84.02l-.18-.04-.02-.09c0-.06.04-.12.13-.19Zm3.43-6.04c.17,0,.29,0,.37,0,.44,0,.95-.05,1.53-.16.41-.08.74-.21.99-.39.25-.18.46-.45.63-.81s.25-.73.25-1.11c0-.42-.13-.86-.4-1.33-.2-.36-.55-.65-1.03-.89s-1.06-.36-1.74-.36c-.17,0-.38,0-.65.03-.02.32-.04.57-.04.74l.05,1.72v.71c0,.48,0,1.09.03,1.84Z"/>
        <path class="cls-1" d="m251.34,135.39l.06-.16c.5,0,1,0,1.5.02h.31c.09,0,.19,0,.3,0,.4-.02,1.12-.03,2.17-.03.21,0,.41,0,.61,0,.2,0,.39,0,.57.01.04.02.06.05.08.08l-.02.15c-.04.06-.13.09-.28.09h-.07c-.17,0-.46,0-.85.04-.39.03-.65.1-.78.19-.08.07-.12.16-.12.27,0,.24.1.6.31,1.08l1.41,3.26.49,1.08c.48,1.15.94,2.32,1.41,3.51.05.13.1.25.14.35l.62-1.52c.32-.76.64-1.58.97-2.44l.64-1.74s.05-.16.1-.37c.6-1.63.9-2.66.9-3.1,0-.09-.04-.19-.12-.28-.08-.1-.22-.17-.4-.24-.07-.02-.31-.06-.72-.11l-.68-.08c-.06-.06-.08-.11-.08-.16l.03-.07,2.99-.03h.99c.33,0,.56.02.68.06v.07s0,.11-.05.19c-.15.05-.28.08-.41.09-.52.06-.84.13-.96.22-.12.08-.25.26-.39.53l-2.42,6.01c-.76,1.81-1.29,3.2-1.61,4.19l-.27.8c-.08.05-.15.07-.2.07-.07,0-.15,0-.23-.03-.73-1.9-1.33-3.36-1.79-4.39l-2.83-6.41c-.2-.38-.36-.61-.46-.69-.1-.08-.46-.19-1.07-.33-.22-.05-.34-.08-.36-.09-.04-.03-.07-.08-.09-.14Z"/>
        <path class="cls-1" d="m264.77,146.96c.06-.05.11-.09.16-.1.1-.03.28-.06.54-.07.6-.04.97-.09,1.11-.17.09-.12.13-.3.13-.52v-.65s0-2.35,0-2.35l-.02-1.11v-2.32s-.04-2.64-.04-2.64c0-.63-.05-.98-.12-1.06-.11-.12-.44-.19-.99-.2-.23,0-.44-.02-.62-.06-.08-.04-.12-.1-.12-.17,0-.05.02-.11.05-.18.06-.03.1-.05.15-.05.09,0,.19,0,.31,0,.36.04.74.06,1.13.06l.68-.02,1.63.04c.81,0,1.45,0,1.9-.03.46-.02.76-.03.92-.03.14,0,.49.01,1.05.04h1.31s.16.02.16.02l.77-.03.09.05s.05.1.06.16c0,.09-.01.22-.04.4-.03.18-.04.29-.04.33,0,.64.02,1.18.06,1.63,0,.04-.02.06-.05.07-.07,0-.13,0-.18-.03-.07-.12-.16-.32-.27-.62-.11-.3-.29-.64-.51-1.03-.15-.26-.27-.41-.36-.46-.09-.05-.27-.07-.54-.07-.06,0-.34,0-.84-.02-.14,0-.27,0-.4,0l-2.64.06h-.23c-.34,0-.54.04-.61.13-.1.15-.16.58-.16,1.3,0,.07.02.81.05,2.22v1.28c.07.02.14.03.22.03h.16c.1,0,.26,0,.46,0,.32.01.54.02.65.02.07,0,.14,0,.19,0,.67-.02,1.52-.04,2.57-.04.33-.06.52-.12.57-.19.09-.11.16-.4.21-.87.05-.47.15-.73.31-.79.08,0,.15.02.22.05.01.05.02.1.02.14s0,.11-.02.21c-.03.23-.05.94-.05,2.14,0,.32.02.68.05,1.07.03.39.05.61.05.64,0,.06,0,.13-.03.22-.05.02-.09.04-.12.04h-.06c-.1-.17-.19-.44-.29-.8-.16-.62-.33-1.01-.5-1.17-.18-.16-.46-.24-.85-.24-.09,0-.24,0-.47.01-.23,0-.57.01-1.02.01h-.6c-.86,0-1.42.02-1.68.06v.31s0,1.7,0,1.7v1.07s0,1.05,0,1.05c0,.63.05.99.12,1.09.1.14.33.2.68.2h.56s.24,0,.58,0c.34,0,.75.01,1.24.01,1.19,0,1.98-.05,2.37-.15s.72-.28.97-.54c.26-.26.58-.82.97-1.68.12-.25.23-.38.35-.38.06,0,.12.02.18.07-.18.61-.28,1.01-.3,1.2-.07.43-.11.87-.12,1.32,0,.2-.05.37-.15.51h-.2l-2.6.03h-1.16s-2.77.03-2.77.03h-1.13c-.14,0-.27,0-.4,0-1.11.05-1.93.07-2.45.07-.09,0-.16-.02-.19-.04-.03-.03-.05-.08-.05-.14v-.09Z"/>
      </g>
      <g>
        <path class="cls-1" d="m199.1,117.49c-1.42.83-3.74.9-6.62.9-5.99,0-7.1,0-7.14-2.98-.03-1.77-.07-6.23,0-8.52h-4.99l2.04.97c.17.07.49.21.49.55,0,.52-.49.59-1.39.73-2.11,5.47-5.23,9.01-12.57,10.39l-.14-.31c5.09-1.91,7.9-4.78,9.25-7.17,1.21-2.08,1.35-3.74,1.49-5.16h-2.7c.07,1.04-.21,1.9-1.42,1.9-.38,0-.8-.1-.8-.59,0-.17.07-.9.1-1.07.21-3.71.24-7.1.24-9.7,0-2.46-.03-6.41-.14-7.86-.03-.48-.1-.87-.21-1.52l2.77,1.52h13.06l.73-.9c.14-.17.42-.48.69-.48.17,0,.48.21.59.28l1.42,1.07c.31.24.38.38.38.55,0,.35-.42.66-1.14,1.07-.14,1.42-.14,2.81-.14,3.84,0,3.64.21,9.66.31,11.57,0,.14.07.69.07.83,0,.69-.83,1.18-1.46,1.18-.73,0-.73-.31-.73-1.7h-3.98v4.16c0,.73,0,4.05.14,4.57.17.8,1.11.83,1.97.83,4.43,0,4.57,0,5.44-.07,1.18-.07,1.87-.45,2.56-2.49.24-.66.83-3.57,1-4.16h.17c.38,4.57.45,5.06,1,5.61.1.07.52.38.59.45.1.1.1.21.1.31,0,.42-.35.97-1.07,1.39Zm-7.93-27.09h-14.34v4.61h14.34v-4.61Zm0,5.44h-14.34v4.64h14.34v-4.64Zm0,5.47h-14.34v4.75h14.34v-4.75Z"/>
        <path class="cls-1" d="m233.08,109.53h-14.58v6.03c0,2.15-.73,3.53-3.71,4.23-.28-1.66-2.32-2.63-2.91-2.91v-.28c1.28.1,2.11.1,2.53.1,1.84,0,2.32,0,2.32-1.56v-5.61h-9.56c-1.25,0-3.15.17-4.47.42l-.83-1.49c2.6.21,5.13.24,5.78.24h9.07c0-.94-.03-2.39-.48-3.67l2.18.52c.55-.59,3.19-3.22,3.67-3.81h-8.83c-1.21,0-3.12.14-4.43.42l-.83-1.49c2.6.21,5.13.24,5.75.24h8.73l.83-.87c.21-.24.38-.35.62-.35.21,0,.38.14.59.31l1.87,1.66c.14.14.24.28.24.45,0,.55-.45.55-.9.55-.8,0-1.14,0-1.59.03-.48.31-2.63,1.52-3.08,1.77-.69.42-1.84,1.07-2.08,1.21.07.07.21.14.21.35,0,.31-.42.59-.69.76v1.91h10.32l1.42-1.56c.35-.38.42-.45.55-.45.21,0,.62.35.62.38l1.87,1.59c.17.17.35.28.35.52,0,.31-.31.35-.55.35Zm-.48-11.64s-1.8.17-2.01.17c-1.63,1.63-1.8,1.84-2.77,2.53l-.24-.17c.76-1.42,1.18-2.42,1.35-3.74h-22.58c0,2.7-.87,5.99-2.94,5.99-.55,0-1.18-.28-1.18-1.07s.69-1.56,1.77-2.77c.52-.59,1.63-2.04,1.66-4.26h.28c.17.42.28.73.35,1.28h15.21c1.18-1.91,2.15-3.91,2.74-6.1.21-.73.21-1.07.17-1.7l3.05,1.45c.21.1.38.21.38.45,0,.42-.69.59-1.7.83-1.45,2.32-3.39,4.54-4.02,5.06h6.58l.9-.83c.14-.14.38-.31.59-.31.1,0,.17,0,.59.35l2.04,1.73c.17.17.28.28.28.52,0,.17-.07.52-.48.59Zm-21.82-3.71c-.9,0-1.14-.73-1.52-1.87-.42-1.35-1.07-2.7-2.29-3.53l.1-.28c2.84.69,4.88,2.88,4.88,4.43,0,1-.76,1.25-1.18,1.25Zm7.14-.42c-.8,0-.87-.17-1.77-2.25-.38-.94-1-2.11-2.15-3.15l.14-.28c3.05,1.18,4.92,2.88,4.92,4.43,0,.62-.31,1.25-1.14,1.25Z"/>
        <path class="cls-1" d="m264.88,103.08c-.38.07-.55.07-2.39.14-1.14.87-5.44,3.67-6.93,4.47l-.14-.21c1.18-1.07,4.36-4.57,4.85-5.37h-8.42v13.2c0,2.25-1.45,4.12-4.02,4.33.03-.62-.03-.97-.52-1.46-.14-.14-1.35-1.32-3.71-2.11l.07-.24c1.73.31,4.23.48,4.81.48.94,0,1.49-.07,1.49-1.39v-12.82h-9.66c-1.21,0-3.12.14-4.43.38l-.83-1.49c2.6.21,5.13.28,5.75.28h19.67l1.49-1.25c.38-.31.52-.45.8-.45.31,0,.52.21.73.38l2.08,1.94c.21.17.24.38.24.52,0,.52-.59.62-.94.66Zm-6.1-10.53c-2.39,1.84-3.12,2.22-6.82,4.23.66.59,1.18,1.25,1.18,2.11,0,.55-.28,1.52-1.25,1.52-.73,0-.9-.31-1.63-1.56-1.21-2.04-3.01-3.57-5.06-4.75l.14-.24c2.22.42,4.36,1.18,6.2,2.53,2.98-2.39,3.95-3.46,4.99-4.68h-13.02c-1.21,0-3.15.14-4.47.38l-.8-1.49c2.6.21,5.09.28,5.75.28h12.57l1.59-1.18c.38-.28.48-.35.66-.35s.24,0,.87.45l1.97,1.42c.17.1.31.35.31.59,0,.73-.48.73-3.19.73Z"/>
        <path class="cls-1" d="m281.95,105.92c-.9,0-1.11-.8-1.28-1.35-.17-.62-.31-.9-.42-1.18-.97.24-2.01.45-3.64.76,0,8.24.03,9.14.07,10.98,0,.45.17,2.42.17,2.77,0,.9-1.07,1.39-1.45,1.39-.59,0-.69-.52-.69-1.04,0-.35.17-1.8.17-2.11.17-3.88.14-10.15.1-11.67-3.53.69-3.95.8-4.71.94-.03.17-.35.97-.69.97-.07,0-.45,0-.59-.48l-.69-2.63c.94.24,1.42.24,2.36.24.8,0,1.94-.03,3.19-.1.9-1.21,5.3-7.31,5.27-10.36l2.88,1.35c.17.1.28.28.28.52s-.07.52-1.39.73c-2.01,2.91-4.85,6.2-6.27,7.72,1.8-.1,3.6-.21,5.4-.45-.48-.87-.94-1.49-1.42-2.08l.21-.21c1.46.8,4.3,2.32,4.3,4.02,0,.69-.42,1.28-1.14,1.28Zm-9.18,3.57c-1.21,3.43-2.25,5.4-4.29,7.76l-.17-.1c1.42-2.81,2.77-7.93,2.67-9.66l2.6.94c.24.07.42.17.42.35,0,.21-.24.38-1.21.73Zm4.33-19.08c-.94,1.32-1.25,1.73-4.09,5.26,1.21.76,1.84,1.77,1.84,2.56,0,.62-.35,1.52-1.14,1.52-.66,0-.87-.45-1.59-2.11-.76-1.73-1.56-2.46-2.22-3.08v-.17c1.59.49,2.15.76,2.7,1,.9-1.73,2.56-4.92,2.56-6.93,0-.28-.03-.55-.07-.8l3.05,1.49c.14.07.28.17.28.45,0,.48-.21.62-1.32.8Zm4.19,23.31c-.76,0-.87-.45-1.28-1.94-.52-1.97-.83-2.42-1.94-3.88l.07-.1c3.15,1.56,4.47,3.29,4.47,4.4,0,.83-.55,1.52-1.32,1.52Zm17.04-15.97c-.59.31-.73.42-1,.62.07,4.88.03,13.09-1.97,17.28-1.11,2.32-2.84,3.39-5.23,3.64-.14-.76-.38-1.73-3.29-3.46v-.14c.69.1,3.84.66,4.5.66.97,0,1.63-.35,2.32-1.84,1.87-3.98,1.87-11.46,1.87-13.96,0-1.49-.03-2.56-.07-3.33h-10.08c-.52.97-1.87,3.67-3.12,5.06l-.24-.14c1.8-3.6,3.95-10.08,3.95-12.85,0-.73-.07-.9-.14-1.18l3.39,1.35c.1.03.24.21.24.35,0,.28-.07.42-.14.52-.1.07-1.04.52-1.21.66-.62,1.66-1.18,3.05-2.32,5.4h9.32l.8-.87c.28-.28.35-.38.48-.38.07,0,.21.1.45.28l1.66,1.52c.1.1.21.31.21.42,0,.17-.17.24-.38.38Zm-9.59,11.08c-.94,0-1.14-.66-1.66-2.32-.59-1.91-1.42-2.74-1.84-3.15l.14-.21c2.63,1.21,4.5,2.29,4.5,4.16,0,.21,0,1.52-1.14,1.52Z"/>
      </g>
      <g>
        <path class="cls-1" d="m134.34,182.41l-.22-.95c.53-.1,1.24-.26,2.12-.48v-3.85h-1.78v-.81h1.78v-3.15h-1.87v-.84h4.68v.84h-1.75v3.15h1.58v.81h-1.58v3.58c.95-.25,1.67-.47,2.15-.66l.15.84c-.35.16-1.14.42-2.39.77-1.24.35-2.2.6-2.87.74Zm9.52-2.4h-1.47c-.25,2.33-1.6,3.85-4.05,4.56l-.4-.75c2.05-.66,3.17-1.93,3.36-3.81h-1.2v-7.84h6.42v7.84h-1.59v3.02c0,.16.06.29.18.38.12.09.36.13.74.13s.63-.04.78-.13c.15-.08.25-.24.29-.46.04-.22.08-.66.1-1.31l.88.08v1.14c0,.38-.01.65-.05.81-.04.15-.12.29-.25.41-.13.12-.3.2-.5.25-.2.05-.61.07-1.23.07-.45,0-.82-.01-1.1-.04-.28-.03-.51-.14-.67-.32s-.24-.45-.24-.79v-3.25Zm-2.71-5.5h4.3v-1.55h-4.3v1.55Zm0,2.33h4.3v-1.54h-4.3v1.54Zm4.3.8h-4.3v1.57h4.3v-1.57Z"/>
        <path class="cls-1" d="m148.67,182.29l-.23-.97c.56-.1,1.16-.22,1.81-.36v-5.25h-1.42v-.87h1.42v-2.97h1.06v2.97h1.27v.87h-1.27v5.01c.73-.17,1.28-.31,1.66-.43l.08.84c-.85.35-2.31.74-4.38,1.16Zm4.99-5.53l-1.16.34-.19-.87,1.35-.37v-3.42h1.08v3.13l2.16-.6v-3.21h1.09v2.9l3.04-.84.31.23v5.38c0,.39-.12.7-.37.93-.25.24-.58.36-1.01.36h-1.2l-.15-.92h1c.44,0,.66-.2.66-.59v-4.34l-2.29.66v6.31h-1.09v-6l-2.16.62v6.18c0,.35.15.59.45.71.3.12,1.12.18,2.44.18.59,0,1.2-.02,1.84-.06.63-.04,1.02-.08,1.15-.12.14-.04.24-.12.32-.23.08-.11.14-.33.17-.66s.06-.73.06-1.2l.97.1v1.73c0,.22-.06.42-.19.59-.13.17-.3.31-.52.42-.22.11-.45.17-.69.19-.24.02-.65.05-1.23.07-.58.03-1.17.04-1.77.04-.33,0-.82-.01-1.49-.03-.66-.02-1.16-.06-1.5-.11-.34-.05-.6-.2-.8-.45s-.3-.54-.3-.89v-6.15Z"/>
        <path class="cls-1" d="m175.77,182.65l-.61.94c-1.11-.83-2.52-1.57-4.24-2.21v1.04c0,1.21-1.12,1.82-3.35,1.82-.89,0-1.65-.19-2.3-.57s-.97-.91-.97-1.57.31-1.24.92-1.65c.61-.41,1.35-.61,2.21-.61.9,0,1.69.09,2.37.26v-2.08h-5.34v-.92h5.34v-2.15h-5.71v-.92h5.71v-1.51h1.09v1.51h5.23v.92h-5.23v2.15h4.62v.92h-4.62v2.32c2.16.82,3.79,1.58,4.88,2.3Zm-5.95-.59v-.99c-.6-.22-1.4-.33-2.39-.33-.52,0-.99.12-1.43.35-.44.23-.66.54-.66.93,0,.41.22.72.66.93.44.21.99.32,1.65.32s1.09-.05,1.38-.16c.28-.1.49-.22.61-.36.12-.14.18-.37.18-.7Z"/>
        <path class="cls-1" d="m190.19,174.55h-3.53c-.86.37-1.7,1.04-2.51,2.01s-1.22,1.99-1.22,3.04c0,.81.22,1.49.65,2.03.43.54,1.01.94,1.73,1.19s1.68.38,2.87.38c.28,0,.56,0,.85-.02l-.07,1.04h-.04c-.87,0-1.59-.02-2.16-.05-.57-.03-1.18-.15-1.81-.35-.63-.2-1.19-.5-1.68-.91-.48-.41-.84-.88-1.08-1.42-.24-.54-.35-1.14-.35-1.82,0-.94.29-1.88.86-2.81.58-.93,1.33-1.71,2.28-2.36h-7.07v-.94h12.27v.97Zm-1.75,3l-.81.37c-.34-.76-.68-1.42-1.02-1.98l.76-.35c.41.63.77,1.29,1.07,1.96Zm2.05-.43l-.81.33c-.31-.73-.65-1.38-1.01-1.94l.75-.37c.32.51.68,1.17,1.07,1.98Z"/>
        <path class="cls-1" d="m199.1,184.01l-.27-.95c1.51-.14,2.8-.58,3.88-1.32s1.61-1.85,1.61-3.33c0-1.31-.43-2.33-1.3-3.05-.87-.72-2.07-1.1-3.62-1.14-.05,2.53-.5,4.64-1.36,6.33-.85,1.69-1.93,2.54-3.21,2.54-.8,0-1.43-.34-1.88-1.02-.46-.68-.69-1.51-.69-2.48,0-1.61.69-3.06,2.08-4.34s3.04-1.93,4.94-1.93c1.79,0,3.26.45,4.42,1.34,1.16.9,1.74,2.12,1.74,3.67,0,1.77-.58,3.12-1.75,4.05-1.17.93-2.7,1.48-4.58,1.63Zm-.82-9.69c-1.36.21-2.53.82-3.52,1.85-.98,1.03-1.47,2.19-1.47,3.48,0,.69.14,1.27.43,1.74.29.48.69.72,1.2.72.88,0,1.64-.82,2.3-2.46s1.01-3.42,1.06-5.32Z"/>
        <path class="cls-1" d="m208.53,184.63v-5.87c-.69.79-1.31,1.41-1.88,1.85l-.59-.69c.84-.77,1.61-1.62,2.3-2.55.69-.94,1.2-1.7,1.51-2.29l1.03.39c-.34.67-.89,1.48-1.66,2.44h.39v6.73h-1.11Zm-1.32-8.95l-.62-.66c1.34-1.05,2.36-2.13,3.05-3.24l1.03.44c-.44.63-.98,1.27-1.64,1.92s-1.26,1.17-1.82,1.54Zm3.59,8.58v-.92h4.04v-4.12h-3.37v-.87h3.37v-3.3h-3.47v-.91h4.34c-.52-.59-1.2-1.27-2.04-2.02l.81-.61c.8.66,1.55,1.34,2.25,2.04l-.79.59h3.82v.91h-3.78v3.3h3.4v.87h-3.4v4.12h4.11v.92h-9.29Z"/>
        <path class="cls-1" d="m222.59,184.63v-6.02c-.5.6-.96,1.08-1.4,1.44l-.62-.65c.17-.17.38-.39.63-.66.24-.27.49-.54.73-.82.24-.28.5-.63.78-1.04.28-.41.5-.75.67-1.04.17-.28.31-.55.42-.79l1,.35c-.37.72-.88,1.51-1.54,2.37h.42v6.86h-1.09Zm-1.25-9.11l-.61-.65c1.3-1.02,2.27-2.07,2.93-3.13l1,.34c-.85,1.36-1.96,2.51-3.33,3.45Zm5.35,5.43c-.69.44-1.26.76-1.73.97l-.5-.65c1.58-.85,2.74-1.67,3.49-2.49h-1.49v-4.12c-.29.35-.56.66-.81.91l-.69-.57c.23-.23.6-.69,1.11-1.4.51-.71.89-1.37,1.15-2l1.06.2c-.08.17-.21.45-.4.82h6.4v.81h-6.91c-.22.31-.46.65-.74,1h6.76v4.35h-4.11c-.31.39-.66.73-1.03,1.04h5.2l.46.32c-.58.97-1.54,1.86-2.86,2.66,1.21.43,2.43.72,3.67.87l-.44.85c-1.41-.18-2.82-.57-4.22-1.16-1.41.66-3.12,1.08-5.11,1.27l-.24-.8c1.93-.21,3.35-.54,4.26-.99-.89-.48-1.65-1.12-2.28-1.91Zm.82-4.69h4.81v-1.08h-4.81v1.08Zm4.81.71h-4.81v1.08h4.81v-1.08Zm-2.32,5.41c.85-.45,1.63-1.06,2.36-1.82h-4.83c.67.77,1.49,1.37,2.47,1.82Z"/>
        <path class="cls-1" d="m248.84,184.29h-3.93c-2.2.01-3.65-.03-4.34-.13-.69-.09-1.28-.27-1.76-.54-.48-.27-.82-.58-1.03-.94-.78.8-1.55,1.38-2.31,1.75l-.38-.94c.26-.11.62-.32,1.09-.63s.79-.55.98-.74v-4.3h-1.87v-.87h2.97v4.52c0,.44.15.8.46,1.08.31.28.67.47,1.09.56s.81.17,1.18.22c.37.05,1.43.08,3.19.08,2.27,0,3.89-.03,4.85-.09l-.2.96Zm-11.36-9.38c-.41-.74-.98-1.54-1.69-2.41l.89-.56c.74.91,1.33,1.71,1.78,2.39l-.99.58Zm6.25,3.85c-.69,1.77-2.06,2.99-4.11,3.66l-.39-.77c.95-.31,1.76-.8,2.42-1.47.66-.66,1.05-1.37,1.19-2.13h-3.44v-.84h3.69v-2.28h-3.3v-.82h1.8c-.16-.32-.49-.98-1-1.97l1.06-.29c.29.58.65,1.33,1.08,2.26h1.89c.23-.42.61-1.17,1.13-2.26l1.11.27c-.3.59-.69,1.25-1.16,1.99h2.07v.82h-3.57v2.28h4.06v.84h-3.79c.66,1.57,2.01,2.76,4.03,3.56l-.61.87c-.7-.26-1.45-.72-2.27-1.37-.81-.65-1.44-1.43-1.86-2.35Z"/>
        <path class="cls-1" d="m263.26,184.29h-3.93c-2.2.01-3.65-.03-4.34-.13-.69-.09-1.28-.27-1.76-.54-.48-.27-.82-.58-1.03-.94-.78.8-1.55,1.38-2.31,1.75l-.38-.94c.26-.11.62-.32,1.09-.63s.79-.55.98-.74v-4.3h-1.87v-.87h2.97v4.52c0,.44.15.8.46,1.08.31.28.67.47,1.09.56s.81.17,1.18.22c.37.05,1.43.08,3.19.08,2.27,0,3.89-.03,4.85-.09l-.2.96Zm-11.36-9.38c-.41-.74-.98-1.54-1.69-2.41l.89-.56c.74.91,1.33,1.71,1.78,2.39l-.99.58Zm1.81,6.73l-.22-.93c.33-.07.59-.12.8-.17v-7.71c1-.3,2-.64,2.97-1.02l.5.73c-.68.31-1.48.58-2.4.82v6.92c.88-.23,1.63-.46,2.25-.68l.07.86c-.4.2-1.72.6-3.97,1.19Zm7.85-.65h-1.35l-.13-.92h.89c.36,0,.54-.16.54-.47v-6.57h-2.08v9.64h-1.08v-10.45h4.23v7.74c0,.29-.1.53-.31.73-.21.19-.45.29-.72.29Z"/>
        <path class="cls-1" d="m270.82,180c-.16.45-.41.99-.76,1.63-.35.64-.7,1.18-1.06,1.61s-.73.64-1.12.64c-.23,0-.44-.06-.63-.17s-.42-.33-.72-.66-.57-.77-.81-1.33-.43-1.16-.55-1.78-.18-1.22-.18-1.81c0-.53.05-1.27.16-2.23.11-1.01.17-1.75.18-2.21h1.18c-.02.42-.09,1.16-.23,2.21-.12.94-.18,1.68-.18,2.23,0,.82.09,1.55.26,2.2.17.65.42,1.21.75,1.68.33.47.56.7.71.7.24,0,.57-.33.99-1,.41-.67.78-1.39,1.11-2.17l.87.45Zm6.45,2.07l-1.18.04v-.13c0-1.39-.23-2.74-.68-4.06-.45-1.31-1.09-2.49-1.93-3.52l.87-.55c1.92,2.19,2.89,4.93,2.92,8.22Z"/>
        <path class="cls-1" d="m283.19,172.22c0,.53-.02,1.16-.07,1.89h5.12v.94h-5.2c-.17,1.81-.57,3.6-1.2,5.36s-1.27,3.04-1.92,3.83l-.84-.55c.68-.97,1.29-2.26,1.83-3.89.54-1.63.88-3.21,1-4.75h-2.56v-.94h2.63c.03-.61.04-1.24.04-1.89h1.16Zm8.45,11.5c-.75.13-1.76.19-3.03.19-1.08,0-1.92-.04-2.53-.13-.61-.09-1.1-.29-1.45-.61-.35-.32-.53-.71-.53-1.17,0-.67.27-1.3.8-1.9l.79.44c-.34.46-.51.9-.51,1.33,0,.29.15.54.48.75.32.21,1.22.32,2.7.32,1.13,0,2.2-.06,3.23-.19l.06.97Zm-.42-7.33v.92c-.24,0-.46-.01-.65-.01-1.68,0-3.53.1-5.54.29l-.07-.93c1.84-.19,3.65-.29,5.45-.29.31,0,.59,0,.82.02Z"/>
        <path class="cls-1" d="m305.96,178.79c-.53,1.88-1.31,3.26-2.35,4.14s-2.36,1.32-3.99,1.32c-.63,0-1.2-.06-1.69-.19s-.92-.32-1.27-.57c-.35-.25-.63-.57-.85-.94-.21-.38-.35-.79-.41-1.23-.06-.44-.09-1.17-.09-2.19,0-1.73.1-3.86.31-6.38h1.16c-.25,2.42-.37,4.57-.37,6.44,0,.65.02,1.2.05,1.65.03.45.17.86.41,1.24.24.38.6.67,1.08.87s1.07.3,1.78.3c1.27,0,2.33-.36,3.18-1.07s1.53-1.97,2.06-3.75l.99.37Z"/>
        <path class="cls-1" d="m320.05,182.65l-.61.94c-1.11-.83-2.52-1.57-4.24-2.21v1.04c0,1.21-1.12,1.82-3.35,1.82-.89,0-1.65-.19-2.3-.57s-.97-.91-.97-1.57.31-1.24.92-1.65c.61-.41,1.35-.61,2.21-.61.9,0,1.69.09,2.37.26v-2.08h-5.34v-.92h5.34v-2.15h-5.71v-.92h5.71v-1.51h1.09v1.51h5.23v.92h-5.23v2.15h4.62v.92h-4.62v2.32c2.16.82,3.79,1.58,4.88,2.3Zm-5.95-.59v-.99c-.6-.22-1.4-.33-2.39-.33-.52,0-.99.12-1.43.35-.44.23-.66.54-.66.93,0,.41.22.72.66.93.44.21.99.32,1.65.32s1.09-.05,1.38-.16c.28-.1.49-.22.61-.36.12-.14.18-.37.18-.7Z"/>
        <path class="cls-1" d="m335.21,174.83h-4.45v2.71c.31.54.47,1.29.47,2.24,0,1.24-.46,2.28-1.38,3.12-.91.84-2.04,1.31-3.39,1.39l-.29-.88c1.13-.08,2.07-.47,2.84-1.16.77-.69,1.15-1.56,1.15-2.59,0-.17,0-.33-.03-.47-.12.54-.39.97-.82,1.29-.43.31-.95.47-1.56.47-.69,0-1.27-.22-1.74-.65-.47-.43-.71-.98-.71-1.64,0-.76.27-1.39.8-1.89.53-.5,1.19-.76,1.96-.76.58,0,1.1.17,1.56.51v-1.7h-7.06v-.92h7.06v-1.68h1.13v1.68h4.45v.92Zm-5.57,2.86c-.27-.53-.83-.8-1.68-.8-.41,0-.78.18-1.11.51-.32.34-.48.72-.48,1.13,0,.46.13.82.38,1.1.25.28.6.42,1.04.42.55,0,1-.18,1.33-.54.33-.36.5-.84.52-1.42v-.4Z"/>
        <path class="cls-1" d="m337.07,182.47c0-.51.19-.95.56-1.31.37-.36.82-.54,1.35-.54s.97.18,1.35.54c.37.36.56.8.56,1.31s-.19.95-.56,1.31c-.37.36-.82.54-1.35.54s-.97-.18-1.35-.54c-.37-.36-.56-.8-.56-1.31Zm.82,0c0,.3.11.55.32.76s.46.32.76.32.55-.11.76-.32c.21-.21.32-.46.32-.76s-.11-.55-.32-.76c-.21-.21-.46-.32-.76-.32s-.55.11-.76.32c-.21.21-.32.46-.32.76Z"/>
      </g>
    </g>
  </g>
</svg>