<?xml version="1.0" encoding="UTF-8"?>
<svg id="_レイヤー_2" data-name="レイヤー 2" xmlns="http://www.w3.org/2000/svg" viewBox="0 0 563.68 111.88">
  <defs>
    <style>
      .cls-1 {
        fill: #d80c18;
      }

      .cls-2 {
        stroke: #231815;
        stroke-width: 2.38px;
      }

      .cls-2, .cls-3 {
        fill: none;
        stroke-miterlimit: 10;
      }

      .cls-4 {
        fill: #231815;
      }

      .cls-3 {
        stroke: #e60012;
        stroke-width: 2px;
      }
    </style>
  </defs>
  <g id="_レイヤー_1-2" data-name="レイヤー 1">
    <g>
      <path class="cls-4" d="m182.44,44.53c-.98,1.39-2.53,3.56-2.53,7.42s1.5,5.94,2.53,7.41h-.64c-.37-.42-.92-1.03-1.43-1.93-1.23-2.15-1.42-4.37-1.42-5.49,0-2.73,1-5.4,2.85-7.41h.64Z"/>
      <path class="cls-4" d="m184.27,56.49c.67-1,2.11-3.38,2.96-6.5h-1.29c-.23,0-.61,0-1.17.06l-.28-.75c.45.03.94.06,1.58.06h1.25v-2.81c-1.31.25-1.87.31-2.67.39l-.05-.25c.97-.27,3.57-1.01,4.85-1.92l.72.87c.08.09.14.16.14.28s-.11.17-.19.17c-.11,0-.22-.03-.48-.14-.72.22-.98.28-1.48.41v2.99h.79l.45-.66s.08-.11.17-.11c.06,0,.12.05.19.09l.95.83s.14.12.14.25c0,.22-.28.22-.37.22h-2.32v1.12c1.28.75,2.17,1.57,2.17,2.53,0,.45-.19.65-.39.65s-.23-.06-.53-.75c-.3-.69-.55-1.15-1.25-1.96v5.04c0,.33.03,1.75.03,2.04,0,.17,0,.45-.59.45-.28,0-.31-.12-.31-.3,0-.36.03-1.89.03-2.2v-4.63c-.95,2.4-2.04,3.96-2.85,4.68l-.19-.17Zm8.81-8.44c-.16-.06-.19-.14-.47-.87-.39-1.03-.73-1.48-1.26-2.18l.17-.19c.53.34,2.09,1.43,2.09,2.59,0,.36-.17.58-.37.65h1.89c.51-1.04.97-2.14,1.26-3.26l1.04.48c.33.16.33.27.33.33,0,.25-.27.25-.64.25-.36.61-.97,1.56-1.56,2.2h1.09l.3-.44c.05-.06.08-.11.17-.11.06,0,.12.05.17.08l.78.64c.08.06.11.12.11.22,0,.11-.05.14-.47.45v1.79c0,.33.06,1.78.06,2.07,0,.14,0,.45-.65.45-.3,0-.3-.05-.3-.48h-1.14v4.41c0,.48.11.56.67.56h.41c.67,0,.78,0,1.29-2.43l.23.02c.05.62.11,1.73.16,1.89.03.09.33.5.33.59,0,.17-.14.76-1.95.76h-.81c-1.04,0-1.17-.45-1.17-1.12v-4.68h-1.39c.53.16.59.17.59.34,0,.22-.25.28-.51.34-.41,3.42-2.25,5.01-3.52,5.72l-.14-.2c2.07-2.03,2.7-3.91,2.82-6.21h-.48c0,.33,0,.51-.59.51-.36,0-.36-.2-.36-.3,0-.31.06-1.72.06-2.01v-1.73c0-.37-.03-1.29-.06-1.75l1.06.59h.76Zm-.87.62v3.43h4.62v-3.43h-4.62Z"/>
      <path class="cls-4" d="m202.98,50.77c.05-.08.09-.12.16-.12s.12.05.19.08l.81.65s.11.11.11.22c0,.14-.05.19-.51.5v3.38c0,.53,0,.95.58,1.43.76.64,2.12.72,3.4.72,1.68,0,5.5-.22,6.86-.3l.02.25c-.3.09-.95.36-1.03.92h-4.48c-3.85,0-4.96-.42-5.72-2.29-.17.22-.47.62-2.15,2.11,0,.08.03.22.03.34,0,.08,0,.27-.17.27-.12,0-.22-.09-.37-.33l-.67-1c.39-.12,2.1-.83,2.84-1.43v-4.27h-1.33c-.34,0-.69.02-1.22.06l-.27-.75c.45.03.94.06,1.58.06h1.03l.33-.5Zm-1.76-5.52c.47.22,2.9,1.37,2.9,2.73,0,.45-.23.69-.45.69-.23,0-.28-.09-.69-.87-.47-.89-1.11-1.68-1.89-2.32l.12-.22Zm2.81,11.1c1.89-1.78,3.91-4.44,4.23-8.14l.5.12c-.05-.56-.08-.94-.08-1.65h-1.67c-.31,0-.59,0-1.23.06l-.25-.75c.48.03.95.06,1.58.06h1.34l.39-.47c.08-.09.12-.12.2-.12s.12.05.22.12l.72.67c.11.11.19.2.19.33,0,.22-.16.25-1.01.36.06,5.63,3.04,7.84,4.94,8.7v.25c-.41.05-.78.23-1.03.61-3.13-2.23-3.8-5.36-4.07-6.66-.5,2.25-2.57,5.36-4.82,6.69l-.14-.19Z"/>
      <path class="cls-4" d="m216.36,59.36c1.03-1.47,2.53-3.59,2.53-7.42s-1.54-6.02-2.53-7.41h.64c1.86,2.01,2.85,4.68,2.85,7.41,0,1.12-.19,3.34-1.42,5.49-.51.9-1.06,1.51-1.43,1.93h-.64Z"/>
    </g>
    <g>
      <path class="cls-4" d="m192.7,69.27l.45-.65c.04-.07.11-.18.22-.18s.22.09.27.11l1.23,1.01c.07.07.18.16.18.31,0,.22-.22.36-.78.69-.07,2.3-.25,6.89-1.39,9.52-.54,1.27-1.5,1.81-3.6,1.81,0-.58.02-1.07-2.66-1.63l.04-.36c3.06.29,3.4.31,3.8.31.81,0,1.32-.29,1.79-2.32.58-2.41.74-6.15.74-7.73h-8.23c-.38,3.46-1.12,8.61-7.44,11.76l-.16-.31c6.1-4.49,6.55-9.28,6.57-17.5h-4.72c-.45,0-.85,0-1.74.09l-.38-1.07c.65.04,1.34.09,2.26.09h15.29l.78-1.14c.07-.09.13-.18.27-.18.09,0,.16.04.27.13l1.5,1.39c.07.07.2.22.2.38,0,.31-.34.31-.47.31h-11.98c0,1.77-.04,2.77-.18,5.16h7.87Z"/>
      <path class="cls-4" d="m216.55,63.21l.45-.63c.07-.09.13-.18.25-.18s.2.09.25.11l1.05.94c.11.09.18.16.18.31,0,.2-.07.25-.74.69v13.64c0,.31.04,1.68.04,1.94,0,.89,0,1.72-2.01,1.94-.02-.51-.07-1.05-2.57-1.56v-.36l2.5.09c.67.02.78-.2.78-.69v-6.71h-14.4v5.7c0,.47.04,2.46.04,2.86,0,.36,0,.72-.92.72-.36,0-.45-.11-.45-.47,0-.49.04-2.66.04-3.11v-13.37c0-.6,0-1.86-.09-2.68l1.65.8h13.93Zm-14.22.89v7.76h6.59v-7.76h-6.59Zm14.4,7.76v-7.76h-6.55v7.76h6.55Z"/>
    </g>
    <g>
      <path class="cls-4" d="m21.69,59.17c0-.76.06-3.53,0-8.17-.06-2-.29-3.29-1.41-3.29-.53,0-1.41.18-2.35.47l-4.11,1.35c-.24.06-.47.06-.59-.18l-.47-1.06c-.12-.23-.06-.47.35-.71l12.16-6.99c.29-.18.53-.35.82-.35.35,0,.41.35.41.82,0,.53-.18,9.75-.18,17.33v2.47c0,.71.06,13.16.06,13.93.06,3.06.29,3.47,4.11,3.47h2.12c.41,0,.59.18.59.47v1.35c0,.35-.12.47-.53.47-.53,0-8.52-.18-9.05-.18s-8.81.18-9.11.18-.47-.12-.47-.47v-1.47c0-.29.35-.35.82-.35h2.7c3.82,0,3.94-.18,4.05-3.29.06-.76.06-12.63.06-13.69v-2.12Z"/>
      <path class="cls-4" d="m39.62,62.75c0-13.46,5.58-22.51,13.1-22.51,8.64,0,12.63,11.22,12.63,20.16,0,13.46-4.99,20.86-12.57,20.86-9.52,0-13.16-11.4-13.16-18.51Zm18.86,12.22c1.29-2.82,1.82-7.29,1.82-15.87s-2.94-16.75-7.93-16.75c-2.29,0-3.94.88-5.29,3.53-2.12,4.11-2.35,10.99-2.35,15.87,0,5.58.71,9.7,2,12.4,1.82,3.88,4.05,4.99,6.11,4.99,1.82,0,4.05-.71,5.64-4.17Z"/>
      <path class="cls-4" d="m79.05,79.26c0,6.17-5.7,10.34-6.88,11.05-.35.18-.76.53-1.18.53-.47,0-.71-.18-.71-.53s.06-.47.53-.88c1.41-1.29,4.17-4.17,4.17-7.4,0-.76-.53-1.59-1-1.76-.59-.23-3.35-.94-3.35-3.88,0-1.47,1.18-2.76,3.29-2.76s5.11,1.94,5.11,5.64Z"/>
      <path class="cls-4" d="m85.99,72.86c0-5.05,2.64-8.05,7.64-11.28-4.41-2.47-8.05-5.52-8.05-10.05,0-5.11,4.23-11.28,12.58-11.28,5.41,0,9.99,3.7,9.99,7.58,0,5.58-1.88,8.17-8.11,12.52,4.7,2.23,8.29,5.23,8.29,10.58,0,4.58-4.47,10.34-11.58,10.34-8.05,0-10.75-4.64-10.75-8.4Zm18.1-.76c0-4.76-3.88-6.93-8.52-9.4-3.76,2.12-5.88,5.52-5.88,9.23,0,5.11,4,7.35,7.4,7.35,4.23,0,6.99-2.29,6.99-7.17Zm-13.93-21.98c0,4.23,2.76,5.93,7.93,8.99,2.88-1.82,5.94-5.29,6.17-9.23.18-4.29-3-7.23-7.05-7.23s-7.05,3.35-7.05,7.46Z"/>
      <path class="cls-4" d="m113.31,62.75c0-13.46,5.58-22.51,13.1-22.51,8.64,0,12.63,11.22,12.63,20.16,0,13.46-4.99,20.86-12.57,20.86-9.52,0-13.16-11.4-13.16-18.51Zm18.86,12.22c1.29-2.82,1.82-7.29,1.82-15.87s-2.94-16.75-7.93-16.75c-2.29,0-3.94.88-5.29,3.53-2.12,4.11-2.35,10.99-2.35,15.87,0,5.58.71,9.7,2,12.4,1.82,3.88,4.05,4.99,6.11,4.99,1.82,0,4.05-.71,5.64-4.17Z"/>
      <path class="cls-4" d="m142.7,62.75c0-13.46,5.58-22.51,13.1-22.51,8.64,0,12.63,11.22,12.63,20.16,0,13.46-4.99,20.86-12.57,20.86-9.52,0-13.16-11.4-13.16-18.51Zm18.86,12.22c1.29-2.82,1.82-7.29,1.82-15.87s-2.94-16.75-7.93-16.75c-2.29,0-3.94.88-5.29,3.53-2.12,4.11-2.35,10.99-2.35,15.87,0,5.58.71,9.7,2,12.4,1.82,3.88,4.05,4.99,6.11,4.99,1.82,0,4.05-.71,5.64-4.17Z"/>
    </g>
    <g>
      <path class="cls-4" d="m333.69,10.23c.09.04.29.13.29.27,0,.2-.26.21-.44.23-.6,1.13-1.22,1.79-2.05,2.52l-.17-.14c.3-.4,1.27-1.75,1.62-3.21l.76.33Zm1.4-9.3l.26-.33c.04-.06.07-.1.14-.1.06,0,.11.04.16.07l.66.56c.07.06.13.13.13.21,0,.13-.09.2-.46.43v5.76c0,.32.06,1.66.06,1.93,0,.32-.34.36-.54.36-.27,0-.27-.1-.27-.36h-2.32c0,.33,0,.52-.53.52-.2,0-.29-.1-.29-.24,0-.23.06-1.72.06-2.05V2.22c0-1.3-.04-1.6-.07-1.79l.89.5h2.14Zm-2.19.57v1.99h2.32v-1.99h-2.32Zm0,2.56v2.08h2.32v-2.08h-2.32Zm0,2.65v2.18h2.32v-2.18h-2.32Zm1.53,3.32c.42.26,1.49.89,1.49,1.72,0,.29-.11.62-.4.62-.19,0-.2-.06-.4-.6-.21-.57-.39-.96-.85-1.56l.16-.17Zm2.82,3.01c1.89-1.1,2.79-2.21,3.47-3.17-.39-.63-1.25-2.02-1.68-4.96h-.74v.69c0,1.91-.19,5.63-2.49,7.49l-.17-.16c1.55-1.99,1.88-4.63,1.88-7.39v-3.22c0-.2,0-1.39-.07-1.92l.96.46h4.05l.47-.67c.04-.07.09-.11.16-.11.09,0,.14.04.2.1l.89.82s.13.14.13.24c0,.2-.22.2-.29.2h-5.72v2.91h4.04l.33-.43s.1-.1.16-.1c.1,0,.14.04.2.1l.69.67c.06.04.1.14.1.2,0,.1,0,.16-.6.4-.24,1.23-.64,2.97-1.65,4.67.54.63,1.48,1.6,3.04,2.09v.23c-.56.14-.83.36-.99.62-.62-.44-1.62-1.19-2.46-2.31-.4.53-1.43,1.89-3.8,2.77l-.1-.21Zm2.15-8.12c.26,1.56.79,2.95,1.69,4.33.97-1.82,1.26-3.77,1.35-4.33h-3.04Z"/>
      <path class="cls-4" d="m351.25,7.12c.23.04.34.06.34.2,0,.24-.43.36-.57.4-.3,2.42-1.48,4.61-5.3,5.42l-.07-.21c2.35-.92,4.56-2.48,4.57-6l1.03.2Zm5.7-5.34l.5-.73c.04-.06.09-.11.19-.11.06,0,.11.04.16.09l.96.87s.13.14.13.24c0,.21-.21.21-.3.21h-5.92v1.55h3.07l.5-.73c.04-.06.1-.11.17-.11.06,0,.1.03.17.09l.96.87s.13.14.13.24c0,.21-.21.21-.3.21h-8.96c-.29,0-.54,0-1.12.06l-.26-.69c.42.03.86.06,1.45.06h3.37v-1.55h-4.77c-.29,0-.54,0-1.13.06l-.24-.69c.42.03.87.06,1.45.06h4.7v-.4c0-.47,0-.9-.07-1.38l1.07.13c.11.01.36.06.36.23s-.16.24-.54.4v1.02h4.28Zm-.24,4.08l.42-.49c.06-.07.1-.09.16-.09.09,0,.16.06.2.1l.87.9s.07.11.07.19c0,.16-.04.23-.87.33-.82.82-.86.86-1.35,1.29l-.17-.13c.36-.72.59-1.26.69-1.53h-8.93c-.01.26-.09,1.81-1.15,1.81-.33,0-.44-.26-.44-.39,0-.21.04-.27.49-.79.49-.57.73-1.33.85-1.82l.23.03c.03.26.03.33.03.59h8.91Zm-2.48,1.28c.14.01.37.04.37.23,0,.13-.09.21-.54.4v3.64c0,.43.06.54.62.54h2.28c.33,0,.56,0,.7-.43.17-.47.34-1.25.47-1.79h.23c.01.29.09,1.53.13,1.72.03.1.32.49.32.59,0,.64-1.32.7-2.02.7h-2.15c-1.33,0-1.39-.29-1.39-1.3v-2.98c0-.79-.03-1.15-.07-1.46l1.06.14Z"/>
      <path class="cls-4" d="m362.45,11.06c0,.21.04,1.49.04,1.76,0,.14,0,.39-.54.39-.27,0-.3-.11-.3-.27,0-.3.04-1.76.04-1.88v-5.9c-.36.73-.93,1.86-1.76,2.72l-.19-.13c1.82-3.55,2.62-6.25,2.77-7.69l.92.26c.17.04.3.1.3.26,0,.17-.09.19-.37.26-.36,1.17-.59,1.83-1.03,2.91.39.07.56.1.56.24,0,.17-.16.21-.43.3v6.78Zm4.14-6.71V1.66h-1.55c-.2,0-.54,0-1.07.06l-.24-.69c.42.03.86.06,1.43.06h5.8l.46-.66c.06-.07.1-.11.17-.11s.13.06.19.1l.95.83c.06.04.13.1.13.21,0,.16-.17.2-.34.2h-2.77v2.69h1.52l.26-.37c.04-.07.09-.11.14-.11.04,0,.11.03.16.09l.73.59c.07.06.11.11.11.2,0,.14-.06.17-.47.43v5.7c0,.13.06,1.58.06,1.86,0,.16,0,.44-.59.44-.29,0-.29-.13-.29-.24v-.82h-6.4v.59c0,.26,0,.49-.53.49-.3,0-.3-.14-.3-.23,0-.33.06-1.78.06-2.06v-5.33c0-.89-.01-1.22-.06-1.7l.99.49h1.46Zm-1.62.57v6.62h1.62v-6.62h-1.62Zm2.38-3.27v2.69h1.62V1.66h-1.62Zm0,3.27v6.62h1.62v-6.62h-1.62Zm4.03,6.62v-6.62h-1.63v6.62h1.63Z"/>
      <path class="cls-4" d="m373.97,10.06c.53-.89,1.99-3.34,2.52-6.16h-1c-.2,0-.54,0-1.07.06l-.26-.69c.42.03.87.06,1.45.06h.92v-1.66c0-.21-.01-.97-.07-1.6l.97.13c.13.01.32.06.32.21,0,.17-.13.23-.5.4v2.52h.66l.36-.5c.04-.06.09-.11.16-.11s.16.06.19.09l.77.69s.11.11.11.21c0,.2-.24.2-.33.2h-1.92v1.15c1.69.87,1.76,1.53,1.76,1.89,0,.46-.26.57-.36.57-.2,0-.21-.06-.47-.64-.1-.24-.34-.76-.93-1.43v5.46c0,.3.04,1.73.04,1.89,0,.23,0,.44-.54.44-.22,0-.26-.1-.26-.3,0-.32.04-1.72.04-2.01v-4.73c-.74,2.02-1.63,3.18-2.36,3.98l-.19-.11Zm13.7-2.64c-.57.11-.76.36-.92.64-1.89-.89-2.92-1.78-3.58-2.38-1.22,1.15-2.05,1.63-2.68,1.99l.44.23h4.1l.2-.32c.06-.07.09-.1.16-.1.06,0,.1.03.16.07l.7.59c.09.07.11.13.11.2,0,.1-.04.14-.43.43v2.09c0,.3.06,1.63.06,1.89,0,.13,0,.42-.62.42-.24,0-.26-.09-.26-.23v-.49h-4.14v.4c0,.11,0,.34-.57.34-.23,0-.3-.11-.3-.33,0-.32.06-1.69.06-1.96v-1.83c0-.34,0-.52-.03-1.2-.62.32-1.03.5-1.65.72l-.07-.21c1.56-.87,3.02-1.92,4.27-3.21-.31-.36-1.09-1.28-1.53-2.58-.79,1.3-1.69,2.31-2.49,2.85l-.14-.17c1.22-1.43,2.49-3.52,2.85-5.22l.82.3c.23.09.39.14.39.32,0,.2-.23.21-.54.23-.16.34-.21.46-.33.69h3.27l.3-.36c.06-.07.1-.11.17-.11s.14.06.2.11l.66.64c.06.04.11.13.11.23,0,.17-.06.19-.65.33-.29.49-.95,1.58-2.13,2.81.47.39,1.78,1.46,4.04,1.95v.23Zm-6.69,1.06v3.41h4.14v-3.41h-4.14Zm.37-6.25c.27.6.69,1.46,1.73,2.52,1.06-1.2,1.49-1.93,1.83-2.59h-3.52l-.04.07Z"/>
    </g>
    <g>
      <path class="cls-4" d="m525.74,41.23c-1,1.41-2.56,3.61-2.56,7.53s1.52,6.03,2.56,7.52h-.65c-.38-.43-.93-1.04-1.46-1.96-1.25-2.18-1.44-4.43-1.44-5.57,0-2.77,1.01-5.47,2.9-7.52h.65Z"/>
      <path class="cls-4" d="m527.59,53.37c.68-1.01,2.14-3.43,3.01-6.6h-1.31c-.24,0-.62,0-1.19.06l-.29-.76c.46.03.95.06,1.6.06h1.27v-2.85c-1.33.25-1.9.32-2.71.4l-.05-.25c.98-.27,3.62-1.03,4.92-1.95l.73.89c.08.09.14.16.14.28s-.11.17-.19.17c-.11,0-.22-.03-.49-.14-.73.22-1,.28-1.5.41v3.04h.81l.46-.66s.08-.11.17-.11c.06,0,.13.05.19.09l.96.84s.14.13.14.25c0,.22-.29.22-.38.22h-2.36v1.14c1.3.76,2.2,1.6,2.2,2.56,0,.46-.19.66-.4.66s-.24-.06-.54-.76c-.3-.7-.55-1.17-1.27-1.99v5.11c0,.33.03,1.77.03,2.07,0,.17,0,.46-.6.46-.29,0-.32-.13-.32-.3,0-.36.03-1.91.03-2.23v-4.7c-.96,2.44-2.07,4.02-2.9,4.75l-.19-.17Zm8.94-8.56c-.16-.06-.19-.14-.47-.89-.4-1.04-.74-1.5-1.28-2.22l.17-.19c.54.35,2.12,1.46,2.12,2.63,0,.36-.17.59-.38.66h1.92c.52-1.06.98-2.17,1.28-3.31l1.06.49c.33.16.33.27.33.33,0,.25-.27.25-.65.25-.36.62-.98,1.58-1.58,2.23h1.11l.3-.44c.05-.06.08-.11.17-.11.06,0,.13.05.17.08l.79.65c.08.06.11.13.11.22,0,.11-.05.14-.48.46v1.82c0,.33.06,1.8.06,2.1,0,.14,0,.46-.66.46-.3,0-.3-.05-.3-.49h-1.16v4.48c0,.49.11.57.68.57h.41c.68,0,.79,0,1.31-2.47l.24.02c.05.63.11,1.76.16,1.91.03.09.33.51.33.6,0,.17-.14.78-1.98.78h-.82c-1.06,0-1.19-.46-1.19-1.14v-4.75h-1.41c.54.16.6.17.6.35,0,.22-.25.28-.52.35-.41,3.47-2.28,5.08-3.58,5.81l-.14-.21c2.1-2.06,2.74-3.97,2.86-6.3h-.49c0,.33,0,.52-.6.52-.36,0-.36-.21-.36-.3,0-.32.06-1.74.06-2.04v-1.76c0-.38-.03-1.31-.06-1.77l1.08.6h.78Zm-.89.63v3.48h4.68v-3.48h-4.68Z"/>
      <path class="cls-4" d="m546.56,47.56c.05-.08.09-.13.16-.13s.13.05.19.08l.82.66s.11.11.11.22c0,.14-.05.19-.52.51v3.43c0,.54,0,.97.59,1.46.77.65,2.15.73,3.45.73,1.71,0,5.59-.22,6.96-.3l.02.25c-.3.09-.96.36-1.04.93h-4.54c-3.91,0-5.03-.43-5.81-2.33-.17.22-.47.63-2.18,2.14,0,.08.03.22.03.35,0,.08,0,.27-.17.27-.13,0-.22-.09-.38-.33l-.68-1.01c.4-.13,2.14-.84,2.88-1.46v-4.34h-1.35c-.35,0-.7.02-1.23.06l-.27-.76c.46.03.95.06,1.6.06h1.04l.33-.51Zm-1.79-5.6c.47.22,2.94,1.39,2.94,2.77,0,.46-.24.7-.46.7-.24,0-.28-.09-.7-.89-.47-.9-1.12-1.71-1.91-2.36l.13-.22Zm2.85,11.27c1.91-1.8,3.97-4.51,4.29-8.26l.51.13c-.05-.57-.08-.95-.08-1.68h-1.69c-.32,0-.6,0-1.25.06l-.25-.76c.49.03.97.06,1.6.06h1.36l.4-.47c.08-.09.13-.13.21-.13s.13.05.22.13l.73.68c.11.11.19.21.19.33,0,.22-.16.25-1.03.36.06,5.71,3.09,7.96,5.02,8.83v.25c-.41.05-.79.24-1.04.62-3.18-2.26-3.86-5.44-4.13-6.76-.51,2.28-2.61,5.44-4.89,6.79l-.14-.19Z"/>
      <path class="cls-4" d="m560.14,56.28c1.04-1.49,2.56-3.64,2.56-7.53s-1.57-6.11-2.56-7.52h.65c1.88,2.04,2.9,4.75,2.9,7.52,0,1.14-.19,3.39-1.44,5.57-.52.92-1.08,1.53-1.46,1.96h-.65Z"/>
    </g>
    <g>
      <path class="cls-4" d="m536.39,67.87l.43-.62c.04-.06.11-.17.21-.17s.21.09.26.11l1.18.96c.06.06.17.15.17.3,0,.21-.21.34-.75.66-.06,2.21-.24,6.59-1.33,9.12-.51,1.22-1.43,1.73-3.45,1.73,0-.56.02-1.03-2.55-1.56l.04-.34c2.93.28,3.25.3,3.64.3.77,0,1.26-.28,1.71-2.23.56-2.31.71-5.89.71-7.41h-7.88c-.36,3.32-1.07,8.24-7.13,11.26l-.15-.3c5.84-4.3,6.27-8.88,6.29-16.76h-4.52c-.43,0-.81,0-1.67.09l-.36-1.03c.62.04,1.28.09,2.16.09h14.64l.75-1.09c.06-.09.13-.17.26-.17.09,0,.15.04.26.13l1.43,1.33c.06.06.19.21.19.36,0,.3-.32.3-.45.3h-11.47c0,1.69-.04,2.65-.17,4.95h7.54Z"/>
      <path class="cls-4" d="m559.24,62.07l.43-.6c.06-.09.13-.17.24-.17s.19.09.24.11l1.01.9c.11.09.17.15.17.3,0,.19-.06.24-.71.66v13.06c0,.3.04,1.61.04,1.86,0,.86,0,1.65-1.93,1.86-.02-.49-.06-1.01-2.46-1.5v-.34l2.4.09c.64.02.75-.19.75-.66v-6.42h-13.79v5.46c0,.45.04,2.35.04,2.74,0,.34,0,.69-.88.69-.34,0-.43-.11-.43-.45,0-.47.04-2.55.04-2.98v-12.8c0-.58,0-1.78-.09-2.57l1.58.77h13.34Zm-13.62.86v7.43h6.32v-7.43h-6.32Zm13.79,7.43v-7.43h-6.27v7.43h6.27Z"/>
    </g>
    <g>
      <path class="cls-1" d="m333.14,82.53c.03-.76.15-1.26.36-1.5.21-.24.75-.47,1.62-.7,3.54-.9,7.35-3.01,11.42-6.34,4.07-3.33,7.43-6.86,10.05-10.61,2.63-3.75,5.1-8.43,7.42-14.05,2.32-5.62,3.48-9.9,3.48-12.85,0-2.22-.51-3.92-1.52-5.1-1.01-1.18-2.21-1.77-3.58-1.77-2.14,0-4.46.93-6.98,2.8-2.52,1.87-4.68,4.73-6.49,8.58-1.81,3.86-2.72,7.23-2.72,10.12,0,1.46.42,2.67,1.26,3.62.84.95,1.78,1.43,2.82,1.43.7,0,1.51-.13,2.42-.4.91-.27,1.76-.67,2.55-1.2.17,0,.29.07.38.21.17.25.25.62.25,1.1,0,.62-.39,1.17-1.18,1.64-1.57.98-3.56,1.48-5.94,1.48-1.35,0-2.66-.36-3.94-1.07-1.28-.72-2.28-1.84-3.01-3.39-.73-1.54-1.1-3.21-1.1-5.01,0-5.84,2.51-11.17,7.54-16,4.33-4.1,8.67-6.15,13.02-6.15,3.23,0,5.82,1.06,7.76,3.18,1.94,2.12,2.91,5.31,2.91,9.58,0,2.47-.27,4.8-.8,6.99-.98,3.9-2.59,7.79-4.83,11.65-2.23,3.86-5.09,7.45-8.58,10.76-2.64,2.53-5.58,4.86-8.81,6.99-4.19,2.72-7.64,4.48-10.37,5.26-1.83.51-2.87.81-3.12.93-.53.22-.9.34-1.1.34-.28,0-.69-.18-1.22-.55Z"/>
      <path class="cls-1" d="m369.6,94.55c2.81-1.85,4.47-3.01,4.97-3.46,1.52-1.26,2.68-2.57,3.48-3.92.8-1.35,1.2-2.54,1.2-3.58,0-.65-.44-1.45-1.31-2.4-1.26-1.46-1.9-2.75-1.9-3.88,0-1.49.52-2.91,1.56-4.26.67-.84,1.48-1.26,2.4-1.26,1.01,0,1.94.53,2.78,1.6,1.12,1.41,1.69,3.09,1.69,5.06,0,2.67-1.25,5.74-3.75,9.21-2.5,3.47-6.04,6.23-10.62,8.28l-.51-1.39Z"/>
      <path class="cls-1" d="m410.11,54.63c-3.99-4.61-5.99-9.02-5.99-13.24,0-2.11.77-4.33,2.3-6.68,1.53-2.35,3.46-4.13,5.8-5.35,2.33-1.22,5.02-1.83,8.05-1.83,3.48,0,6.15.85,8.01,2.55,1.85,1.7,2.78,3.83,2.78,6.39,0,1.57-.37,3.03-1.1,4.38-1.07,2.02-2.5,3.79-4.3,5.31-1.8,1.52-4.92,3.72-9.36,6.62,2.67,3.06,4.54,5.75,5.61,8.07,1.07,2.32,1.6,4.64,1.6,6.98,0,4.36-1.53,8.02-4.59,10.98-3.06,2.97-6.98,4.45-11.76,4.45-3.99,0-7.18-1.07-9.57-3.2-2.39-2.14-3.58-4.55-3.58-7.25,0-1.8.52-3.61,1.56-5.44,1.38-2.39,3.36-4.69,5.94-6.91,1.74-1.46,4.61-3.4,8.6-5.82Zm1.35,1.43c-2.95,2.05-5.03,3.75-6.24,5.1-1.77,1.94-3.13,4.07-4.09,6.39-.96,2.32-1.43,4.56-1.43,6.72s.71,3.79,2.13,5.14c1.42,1.35,3.31,2.02,5.67,2.02,2.95,0,5.47-1.08,7.57-3.25,2.09-2.16,3.14-4.88,3.14-8.14,0-1.99-.48-4.05-1.45-6.18-.97-2.12-2.73-4.73-5.29-7.82Zm3.5-4.76c4.33-3.23,7.25-6.01,8.77-8.35,1.52-2.33,2.28-4.75,2.28-7.25,0-1.99-.6-3.58-1.79-4.76-1.19-1.18-2.8-1.77-4.83-1.77-1.66,0-3.25.46-4.76,1.39s-2.71,2.29-3.58,4.09c-.87,1.8-1.31,3.6-1.31,5.4,0,1.6.37,3.25,1.1,4.93.73,1.69,2.11,3.79,4.13,6.32Z"/>
      <path class="cls-1" d="m450.57,54.63c-3.99-4.61-5.99-9.02-5.99-13.24,0-2.11.76-4.33,2.3-6.68,1.53-2.35,3.46-4.13,5.8-5.35,2.33-1.22,5.02-1.83,8.05-1.83,3.48,0,6.15.85,8.01,2.55,1.85,1.7,2.78,3.83,2.78,6.39,0,1.57-.37,3.03-1.1,4.38-1.07,2.02-2.5,3.79-4.3,5.31-1.8,1.52-4.92,3.72-9.36,6.62,2.67,3.06,4.54,5.75,5.61,8.07,1.07,2.32,1.6,4.64,1.6,6.98,0,4.36-1.53,8.02-4.59,10.98-3.06,2.97-6.98,4.45-11.76,4.45-3.99,0-7.18-1.07-9.57-3.2-2.39-2.14-3.58-4.55-3.58-7.25,0-1.8.52-3.61,1.56-5.44,1.38-2.39,3.36-4.69,5.94-6.91,1.74-1.46,4.61-3.4,8.6-5.82Zm1.35,1.43c-2.95,2.05-5.03,3.75-6.24,5.1-1.77,1.94-3.13,4.07-4.09,6.39-.96,2.32-1.43,4.56-1.43,6.72s.71,3.79,2.13,5.14c1.42,1.35,3.31,2.02,5.67,2.02,2.95,0,5.47-1.08,7.57-3.25,2.09-2.16,3.14-4.88,3.14-8.14,0-1.99-.48-4.05-1.45-6.18-.97-2.12-2.73-4.73-5.29-7.82Zm3.5-4.76c4.33-3.23,7.25-6.01,8.77-8.35,1.52-2.33,2.28-4.75,2.28-7.25,0-1.99-.6-3.58-1.79-4.76-1.19-1.18-2.8-1.77-4.83-1.77-1.66,0-3.25.46-4.76,1.39s-2.71,2.29-3.58,4.09c-.87,1.8-1.31,3.6-1.31,5.4,0,1.6.37,3.25,1.1,4.93.73,1.69,2.11,3.79,4.13,6.32Z"/>
      <path class="cls-1" d="m475.48,64.28c0-5.62,1.29-11.47,3.88-17.54,3.12-7.31,6.53-12.36,10.24-15.15,3.71-2.8,7.36-4.19,10.96-4.19,3.18,0,5.68,1.18,7.5,3.54,2.39,3.12,3.58,7.95,3.58,14.5,0,7.53-1.95,15.06-5.86,22.59-2.44,4.69-5.61,8.56-9.48,11.59-2.95,2.3-5.87,3.46-8.77,3.46-3.18,0-5.76-1.31-7.76-3.92-2.87-3.68-4.3-8.64-4.3-14.88Zm5.52,5.69c0,4.3.58,7.22,1.73,8.75,1.15,1.53,2.66,2.3,4.51,2.3,2.61,0,4.93-1.17,6.96-3.5,3.06-3.43,6.07-10.13,9.02-20.11,2.39-8.06,3.58-14.29,3.58-18.67,0-3.29-.7-5.8-2.11-7.55-.96-1.24-2.38-1.85-4.26-1.85-2.81,0-5.45,1.42-7.92,4.26-3.18,3.57-6,9.77-8.47,18.59-2.02,7.11-3.03,13.04-3.03,17.79Z"/>
    </g>
    <g>
      <path class="cls-4" d="m16.15,99.19c.27-.42,1.07-1.77,1.39-2.7l1.12.58c.25.13.37.18.37.35,0,.23-.27.23-.37.23-.15,0-.3-.02-.38-.03-.48.57-.97,1.07-1.55,1.57h3.42l.57-.82c.03-.07.08-.13.2-.13.07,0,.13.05.2.1l1.08,1c.05.05.15.17.15.28,0,.23-.25.23-.35.23h-13.37c-.35,0-.63,0-1.3.07l-.28-.8c.48.03,1,.07,1.69.07h3.29c-.1-.13-.45-.83-.53-.97-.43-.72-.83-1.19-1.25-1.57l.17-.22c.55.28,2.57,1.32,2.57,2.42,0,.17-.05.27-.08.33h3.27Zm-3.12,2.37l.32-.45c.05-.08.1-.12.17-.12.08,0,.15.05.18.08l.8.7c.07.07.13.12.13.23,0,.1,0,.18-.57.5v5.81c0,.33.05,1.84.05,2.14,0,.75-.15,1.19-1.24,1.24-.03-.48-.05-.63-1.9-1.1l.02-.27,1.8.1c.28.02.38-.08.38-.37v-2.59h-3.64v1.64c0,.32.05,1.97.05,2.19,0,.18,0,.48-.67.48-.3,0-.32-.17-.32-.33,0-.37.05-2,.05-2.34v-6.11c0-1.07-.03-1.64-.08-2.02l1.13.58h3.32Zm-3.49.67v1.94h3.64v-1.94h-3.64Zm0,2.6v1.97h3.64v-1.97h-3.64Zm7.91-3c.15.02.37.05.37.27,0,.15-.08.27-.55.47v3.49c0,.37.05,2.12.05,2.25,0,.18,0,.47-.65.47-.33,0-.33-.17-.33-.33,0-.38.05-2.05.05-2.39v-2.47c0-.5,0-1.42-.08-1.92l1.15.17Zm3.52-.85c.22.03.45.07.45.25s-.12.27-.65.48v6.33c0,.37.03,2.2.03,2.35,0,.8-.12,1.2-1.52,1.3-.07-.48-.1-.68-1.95-1.15v-.27l2.1.15c.38.03.38-.2.38-.35v-7.8c0-.55-.07-1.27-.08-1.47l1.24.17Z"/>
      <path class="cls-4" d="m35.13,97.54l.32-.47c.05-.08.1-.13.17-.13s.15.05.2.08l.85.7c.1.08.13.13.13.23,0,.17-.05.2-.55.52v10.53c0,.33.07,1.87.07,2.19,0,.13-.02.48-.7.48-.28,0-.32-.1-.32-.28v-.65h-11.1v.62c0,.15,0,.4-.63.4-.3,0-.38-.13-.38-.37,0-.37.07-1.99.07-2.3v-10.25c0-.42-.02-1.4-.07-1.89l1.18.58h10.77Zm-10.93.67v11.87h11.1v-11.87h-11.1Zm7.33,3l.33-.45c.05-.07.08-.12.17-.12.07,0,.13.05.18.08l.75.65c.08.07.13.13.13.23,0,.17-.05.18-.5.48v3.19c0,.3.07,1.77.07,2,0,.3-.13.5-.6.5-.37,0-.37-.17-.37-.35v-.37h-3.84v.37c0,.2,0,.38-.55.38-.37,0-.42-.13-.42-.37,0-.1.07-1.9.07-2.1v-2.89c0-.22,0-.88-.05-1.84l1.07.58h3.56Zm-3.67.67v4.52h3.84v-4.52h-3.84Z"/>
      <path class="cls-4" d="m40.16,109.32c0,.25.05,1.74.05,2.05,0,.17,0,.45-.63.45-.32,0-.35-.13-.35-.32,0-.35.05-2.05.05-2.19v-6.88c-.42.85-1.09,2.17-2.05,3.17l-.22-.15c2.12-4.14,3.05-7.28,3.22-8.96l1.07.3c.2.05.35.12.35.3,0,.2-.1.22-.43.3-.42,1.37-.68,2.14-1.2,3.39.45.08.65.12.65.28,0,.2-.18.25-.5.35v7.9Zm4.82-7.81v-3.14h-1.8c-.23,0-.63,0-1.25.07l-.28-.8c.48.03,1,.07,1.67.07h6.76l.53-.77c.07-.08.12-.13.2-.13s.15.07.22.12l1.1.97c.07.05.15.12.15.25,0,.18-.2.23-.4.23h-3.22v3.14h1.77l.3-.43c.05-.08.1-.13.17-.13.05,0,.13.03.18.1l.85.68c.08.07.13.13.13.23,0,.17-.07.2-.55.5v6.64c0,.15.07,1.84.07,2.17,0,.18,0,.52-.68.52-.33,0-.33-.15-.33-.28v-.95h-7.46v.68c0,.3,0,.57-.62.57-.35,0-.35-.17-.35-.27,0-.38.07-2.07.07-2.4v-6.21c0-1.03-.02-1.42-.07-1.99l1.15.57h1.7Zm-1.89.67v7.71h1.89v-7.71h-1.89Zm2.77-3.81v3.14h1.89v-3.14h-1.89Zm0,3.81v7.71h1.89v-7.71h-1.89Zm4.69,7.71v-7.71h-1.9v7.71h1.9Z"/>
      <path class="cls-4" d="m52.22,108.16c.62-1.03,2.32-3.89,2.94-7.18h-1.17c-.23,0-.63,0-1.25.07l-.3-.8c.48.03,1.02.07,1.69.07h1.07v-1.94c0-.25-.02-1.14-.08-1.87l1.13.15c.15.02.37.07.37.25,0,.2-.15.27-.58.47v2.94h.77l.42-.58c.05-.07.1-.13.18-.13s.18.07.22.1l.9.8c.05.05.13.13.13.25,0,.23-.28.23-.38.23h-2.24v1.34c1.97,1.02,2.05,1.79,2.05,2.2,0,.53-.3.67-.42.67-.23,0-.25-.07-.55-.75-.12-.28-.4-.88-1.08-1.67v6.36c0,.35.05,2.02.05,2.2,0,.27,0,.52-.63.52-.25,0-.3-.12-.3-.35,0-.37.05-2,.05-2.34v-5.51c-.87,2.35-1.9,3.71-2.75,4.64l-.22-.13Zm15.96-3.07c-.67.13-.88.42-1.07.75-2.2-1.03-3.41-2.07-4.17-2.77-1.42,1.34-2.39,1.9-3.12,2.32l.52.27h4.77l.23-.37c.07-.08.1-.12.18-.12.07,0,.12.03.18.08l.82.68c.1.08.13.15.13.23,0,.12-.05.17-.5.5v2.44c0,.35.07,1.9.07,2.2,0,.15,0,.48-.72.48-.28,0-.3-.1-.3-.27v-.57h-4.82v.47c0,.13,0,.4-.67.4-.27,0-.35-.13-.35-.38,0-.37.07-1.97.07-2.29v-2.14c0-.4,0-.6-.03-1.4-.72.37-1.2.58-1.92.83l-.08-.25c1.82-1.02,3.52-2.24,4.97-3.74-.37-.42-1.27-1.49-1.79-3-.92,1.52-1.97,2.69-2.9,3.32l-.17-.2c1.42-1.67,2.9-4.11,3.32-6.08l.95.35c.27.1.45.17.45.37,0,.23-.27.25-.63.27-.18.4-.25.53-.38.8h3.81l.35-.42c.07-.08.12-.13.2-.13s.17.07.23.13l.77.75c.07.05.13.15.13.27,0,.2-.07.22-.75.38-.33.57-1.1,1.84-2.49,3.27.55.45,2.07,1.7,4.71,2.27v.27Zm-7.8,1.24v3.97h4.82v-3.97h-4.82Zm.43-7.28c.32.7.8,1.7,2.02,2.94,1.24-1.4,1.74-2.25,2.14-3.02h-4.11l-.05.08Z"/>
      <path class="cls-4" d="m73.93,97.87c.33.18.4.25.4.4,0,.27-.45.32-.63.32-.73,1.47-2.34,4.61-5.26,6.46l-.18-.2c.92-.93,3.64-3.74,4.69-7.51l.99.53Zm2.02,4.52c.35.13.52.2.52.38,0,.25-.25.28-.68.35-.62,1.52-1.65,3.92-3.56,6.48,2.05-.17,5.28-.55,7.41-.88-.47-.77-1.07-1.65-2.22-2.85l.18-.2c2.52,1.65,4.14,3.82,4.14,4.97,0,.25-.08.63-.42.63-.37,0-.57-.4-.68-.65-.43-.88-.52-1.08-.8-1.57-2.79.75-8.53,1.59-9.3,1.69-.03.2-.1.48-.33.48-.15,0-.2-.07-.3-.37l-.38-1.1c.32-.02,1.2-.02,2.25-.1,2.1-3.66,3.02-6.76,3.15-7.63l1.02.37Zm2.07-5.61c.03-.05.08-.12.18-.12.07,0,.13.07.18.1l.7.67c.12.12.23.25.23.37,0,.17-.03.27-.79.42.53,1.59,2.27,4.16,5.28,5.43v.3c-.48.05-.93.23-1.17.63-2.64-1.84-3.84-4.06-4.57-6.49h-1.29c-.23,0-.65,0-1.25.07l-.3-.8c.48.03,1.02.07,1.69.07h.63l.47-.63Z"/>
      <path class="cls-4" d="m87.95,104.18c.4.17.53.27.53.42,0,.25-.28.27-.72.27-1.82,3.27-3.54,4.59-4.44,5.11l-.17-.2c1.2-1.27,2.6-2.97,3.62-5.46.1-.23.13-.32.2-.55l.97.42Zm3.61,4.66c0,.25.03,1.37.03,1.59,0,.77-.22,1.2-1.52,1.4-.07-.62-.58-.75-2.17-1.14v-.27l2.1.07c.5.02.6-.1.6-.53v-7.75h-5.66c-.23,0-.62,0-1.3.07l-.28-.8c.48.03,1.02.07,1.69.07h11.38l.57-.85c.07-.08.12-.13.2-.13.1,0,.17.07.22.12l1.1,1.02c.07.07.15.17.15.28,0,.23-.23.23-.35.23h-6.76v6.63Zm3.05-11.23l.58-.85c.07-.1.12-.13.2-.13.1,0,.15.05.2.1l1.12,1.02c.07.07.15.18.15.28,0,.25-.23.25-.35.25h-9.78c-.45,0-.67,0-1.3.07l-.28-.8c.48.03,1,.07,1.69.07h7.78Zm-1.19,6.13c3.07,1.97,4.62,4.49,4.62,5.43,0,.5-.22.75-.47.75-.27,0-.38-.25-.67-.82-.58-1.17-1.59-3.17-3.64-5.14l.15-.22Z"/>
      <path class="cls-4" d="m109.05,97.91l.37-.53c.05-.08.1-.13.17-.13s.13.03.2.08l.85.7c.07.05.13.12.13.23,0,.15-.05.18-.55.52v9.92c0,.35.07,1.92.07,2.24,0,.37-.37.43-.7.43-.32,0-.32-.1-.32-.45v-.73h-7.96v.78c0,.17,0,.4-.67.4-.35,0-.35-.17-.35-.3,0-.38.07-2.04.07-2.37v-9.43c0-1.04-.02-1.44-.07-1.97l1.3.62h7.46Zm-7.75.67v5.01h7.96v-5.01h-7.96Zm0,5.68v5.26h7.96v-5.26h-7.96Z"/>
      <path class="cls-4" d="m121.96,109.42c1.29,0,1.5-.78,1.67-1.4l.67.1-.55,2.4h-7.5v-.87c1.17-1.07,3.29-2.99,4.72-4.76.75-.9,1.67-2.14,1.67-3.84,0-1.42-.77-2.64-2.44-2.64-.27,0-2.19,0-3.17,2.27l-.57-.33c1.19-2.74,3.49-2.74,3.91-2.74,1.95,0,3.49,1.22,3.49,3.47,0,1.97-1.22,3.39-2.44,4.64-.38.38-1.64,1.55-3.92,3.69h4.46Z"/>
      <path class="cls-4" d="m129.08,97.62c2.8,0,4.32,2.65,4.32,6.59s-1.57,6.58-4.32,6.58-4.31-2.45-4.31-6.58,1.67-6.59,4.31-6.59Zm0,12.49c2.96,0,3.11-4.29,3.11-5.89s-.13-5.91-3.09-5.91-3.1,4.41-3.1,5.91c0,1.6.15,5.89,3.09,5.89Z"/>
      <path class="cls-4" d="m140.56,109.42c1.29,0,1.5-.78,1.67-1.4l.67.1-.55,2.4h-7.5v-.87c1.17-1.07,3.29-2.99,4.72-4.76.75-.9,1.67-2.14,1.67-3.84,0-1.42-.77-2.64-2.44-2.64-.27,0-2.19,0-3.17,2.27l-.57-.33c1.19-2.74,3.49-2.74,3.91-2.74,1.95,0,3.49,1.22,3.49,3.47,0,1.97-1.22,3.39-2.44,4.64-.38.38-1.64,1.55-3.92,3.69h4.46Z"/>
      <path class="cls-4" d="m146.44,103.43h.4c3.42,0,3.42-2.37,3.42-2.69,0-1.03-.68-2.35-2.5-2.35-1.39,0-2.44.7-3.17,1.9l-.55-.4c.28-.48,1.34-2.27,3.89-2.27,2.37,0,3.52,1.64,3.52,3.16,0,1.14-.73,2.27-1.94,2.64,2.59.75,2.59,3.09,2.59,3.39,0,2.47-2.32,3.99-5.16,3.99-1.74,0-3.17-.58-3.17-1.59,0-.48.38-.77.72-.77.42,0,.52.17.92.93.22.42.53.75,1.59.75,1.9,0,3.89-1.09,3.89-3.19,0-2.82-3.14-2.82-4.04-2.82h-.4v-.68Z"/>
      <path class="cls-4" d="m164.77,102.51h3.14l.55-.8c.05-.07.08-.13.2-.13.07,0,.12.03.2.1l1.07.98c.08.07.15.13.15.28,0,.23-.23.23-.33.23h-4.97v3.84h4.06l.57-.82c.05-.07.12-.13.2-.13.07,0,.13.05.2.1l1.07.98c.07.07.15.17.15.28,0,.25-.23.25-.35.25h-5.89v1.49c0,.35.05,1.9.05,2.22,0,.15,0,.45-.7.45-.3,0-.33-.13-.33-.3,0-.18.03-1.99.03-2.35v-1.5h-6.58c-.32,0-.63,0-1.3.07l-.28-.8c.48.03,1,.07,1.69.07h1.4v-3.16c0-1-.02-1.5-.07-1.95l1.27.6h3.87v-3.31h-4.34c-.28.45-1.49,2.32-3.32,3.87l-.2-.18c2.12-2.75,3.29-5.02,3.77-6.53l1,.52c.3.15.4.25.4.38,0,.23-.17.23-.68.27-.17.35-.25.5-.55,1h8.6l.57-.8c.03-.05.08-.13.2-.13.08,0,.15.07.2.1l1.07.98c.08.08.15.17.15.28,0,.23-.23.23-.35.23h-5.56v3.31Zm-5.07,4.51h4.12v-3.84h-4.12v3.84Z"/>
      <path class="cls-4" d="m175.25,103.43h.4c3.42,0,3.42-2.37,3.42-2.69,0-1.03-.68-2.35-2.5-2.35-2,0-2.94,1.52-3.17,1.9l-.55-.4c.28-.48,1.33-2.27,3.89-2.27,2.37,0,3.52,1.64,3.52,3.16,0,1.14-.74,2.27-1.94,2.64,2.2.63,2.59,2.45,2.59,3.39,0,2.54-2.44,3.99-5.12,3.99-1.5,0-3.21-.48-3.21-1.59,0-.48.37-.77.7-.77.42,0,.52.17.94.93.27.48.63.75,1.6.75,1.85,0,3.87-1.07,3.87-3.19,0-2.82-3.14-2.82-4.04-2.82h-.4v-.68Z"/>
      <path class="cls-4" d="m193.02,97.64l.28-.42c.05-.07.1-.13.18-.13.07,0,.17.07.2.1l.78.68c.07.07.13.12.13.23,0,.15-.05.2-.55.52v10.18c0,.23.03,1.24.03,1.44,0,.83-.1,1.3-1.47,1.47-.05-.52-.08-.73-1.95-1.15v-.27l1.85.07c.5.02.58-.13.58-.53v-3.84h-7.43c-.23,1.44-.72,3.96-3.56,5.89l-.17-.2c2.52-2.65,2.96-5.11,2.96-8.66v-4.11c0-.25-.02-1.35-.08-1.85l1.15.58h7.04Zm-7.16,4.41v.98c0,.72-.02,1.34-.1,2.29h7.35v-3.27h-7.25Zm0-3.74v3.07h7.25v-3.07h-7.25Z"/>
      <path class="cls-4" d="m206.3,106.92h-1.42v3.61h-1.12v-3.61h-6.51v-.8l6.74-8.55h.88v8.38h1.42v.97Zm-8.01-.97h5.47v-6.96l-5.47,6.96Z"/>
      <path class="cls-4" d="m218.25,97.91l.37-.53c.05-.08.1-.13.17-.13s.13.03.2.08l.85.7c.07.05.13.12.13.23,0,.15-.05.18-.55.52v9.92c0,.35.07,1.92.07,2.24,0,.37-.37.43-.7.43s-.32-.1-.32-.45v-.73h-7.96v.78c0,.17,0,.4-.67.4-.35,0-.35-.17-.35-.3,0-.38.07-2.04.07-2.37v-9.43c0-1.04-.02-1.44-.07-1.97l1.3.62h7.46Zm-7.75.67v5.01h7.96v-5.01h-7.96Zm0,5.68v5.26h7.96v-5.26h-7.96Z"/>
    </g>
    <line class="cls-3" x1=".17" y1="39.6" x2="234.58" y2="80.78"/>
    <line class="cls-3" x1=".17" y1="80.78" x2="234.58" y2="39.6"/>
    <g>
      <line class="cls-2" x1="245.59" y1="60.19" x2="317.5" y2="60.19"/>
      <polygon class="cls-4" points="310.23 66.38 316.42 60.19 310.23 54.01 315.49 54.01 321.67 60.19 315.49 66.38 310.23 66.38"/>
    </g>
    <g>
      <path class="cls-4" d="m353.35,103.67c-.72.07-1.05.28-1.37.63-4.52-2.94-5.88-5.66-6.44-6.76-2.29,3.66-6.03,6.16-7.93,6.96l-.13-.23c3.91-2.47,6.83-6.31,7.36-7.96l1.04.4c.38.15.4.25.4.33,0,.22-.22.23-.47.25,1.72,2.84,4.47,4.84,7.54,6.11v.27Zm-4.57,1.39c.05-.05.13-.12.2-.12.1,0,.15.07.22.13l.73.73s.17.17.17.33c0,.25-.08.27-.85.35-1,1.64-2.89,4.49-3.34,5.02-.25.3-.27.33-.43.33-.23,0-.68-.2-.68-.43,0-.12.05-.17.25-.42,1.54-1.92,2.97-4.19,3.36-4.81h-7.08c-.35,0-.63,0-1.3.07l-.28-.8c.47.03,1,.07,1.69.07h6.89l.47-.47Zm-2.34-2.55l.55-.68c.08-.1.12-.13.2-.13s.15.03.22.1l.9.87c.12.12.15.2.15.27,0,.25-.23.25-.35.25h-4.74c-.45,0-.67.02-1.3.07l-.28-.8c.48.03,1,.07,1.69.07h2.97Z"/>
      <path class="cls-4" d="m366.02,97.54l.32-.47c.05-.08.1-.13.17-.13s.15.05.2.08l.85.7c.1.08.13.13.13.23,0,.17-.05.2-.55.52v10.53c0,.33.07,1.87.07,2.19,0,.13-.02.48-.7.48-.28,0-.32-.1-.32-.28v-.65h-11.1v.62c0,.15,0,.4-.63.4-.3,0-.38-.13-.38-.37,0-.37.07-1.99.07-2.3v-10.25c0-.42-.02-1.4-.07-1.89l1.18.58h10.77Zm-10.93.67v11.87h11.1v-11.87h-11.1Zm7.33,3l.33-.45c.05-.07.08-.12.17-.12.07,0,.13.05.18.08l.75.65c.08.07.13.13.13.23,0,.17-.05.18-.5.48v3.19c0,.3.07,1.77.07,2,0,.3-.13.5-.6.5-.37,0-.37-.17-.37-.35v-.37h-3.84v.37c0,.2,0,.38-.55.38-.37,0-.42-.13-.42-.37,0-.1.07-1.9.07-2.1v-2.89c0-.22,0-.88-.05-1.84l1.07.58h3.56Zm-3.67.67v4.52h3.84v-4.52h-3.84Z"/>
      <path class="cls-4" d="m371.05,109.32c0,.25.05,1.74.05,2.05,0,.17,0,.45-.63.45-.32,0-.35-.13-.35-.32,0-.35.05-2.05.05-2.19v-6.88c-.42.85-1.08,2.17-2.05,3.17l-.22-.15c2.12-4.14,3.05-7.28,3.22-8.96l1.07.3c.2.05.35.12.35.3,0,.2-.1.22-.43.3-.42,1.37-.68,2.14-1.2,3.39.45.08.65.12.65.28,0,.2-.18.25-.5.35v7.9Zm4.82-7.81v-3.14h-1.8c-.23,0-.63,0-1.25.07l-.28-.8c.48.03,1,.07,1.67.07h6.76l.53-.77c.07-.08.12-.13.2-.13s.15.07.22.12l1.1.97c.07.05.15.12.15.25,0,.18-.2.23-.4.23h-3.22v3.14h1.77l.3-.43c.05-.08.1-.13.17-.13.05,0,.13.03.18.1l.85.68c.08.07.13.13.13.23,0,.17-.07.2-.55.5v6.64c0,.15.07,1.84.07,2.17,0,.18,0,.52-.68.52-.33,0-.33-.15-.33-.28v-.95h-7.46v.68c0,.3,0,.57-.62.57-.35,0-.35-.17-.35-.27,0-.38.07-2.07.07-2.4v-6.21c0-1.04-.02-1.42-.07-1.99l1.15.57h1.7Zm-1.89.67v7.71h1.89v-7.71h-1.89Zm2.77-3.81v3.14h1.89v-3.14h-1.89Zm0,3.81v7.71h1.89v-7.71h-1.89Zm4.69,7.71v-7.71h-1.9v7.71h1.9Z"/>
      <path class="cls-4" d="m383.11,108.16c.62-1.03,2.32-3.89,2.94-7.18h-1.17c-.23,0-.63,0-1.25.07l-.3-.8c.48.03,1.02.07,1.69.07h1.07v-1.94c0-.25-.02-1.14-.08-1.87l1.13.15c.15.02.37.07.37.25,0,.2-.15.27-.58.47v2.94h.77l.42-.58c.05-.07.1-.13.18-.13s.18.07.22.1l.9.8c.05.05.13.13.13.25,0,.23-.28.23-.38.23h-2.24v1.34c1.97,1.02,2.05,1.79,2.05,2.2,0,.53-.3.67-.42.67-.23,0-.25-.07-.55-.75-.12-.28-.4-.88-1.08-1.67v6.36c0,.35.05,2.02.05,2.2,0,.27,0,.52-.63.52-.25,0-.3-.12-.3-.35,0-.37.05-2,.05-2.34v-5.51c-.87,2.35-1.9,3.71-2.75,4.64l-.22-.13Zm15.96-3.07c-.67.13-.88.42-1.07.75-2.2-1.03-3.41-2.07-4.17-2.77-1.42,1.34-2.39,1.9-3.12,2.32l.52.27h4.77l.23-.37c.07-.08.1-.12.18-.12.07,0,.12.03.18.08l.82.68c.1.08.13.15.13.23,0,.12-.05.17-.5.5v2.44c0,.35.07,1.9.07,2.2,0,.15,0,.48-.72.48-.28,0-.3-.1-.3-.27v-.57h-4.82v.47c0,.13,0,.4-.67.4-.27,0-.35-.13-.35-.38,0-.37.07-1.97.07-2.29v-2.14c0-.4,0-.6-.03-1.4-.72.37-1.2.58-1.92.83l-.08-.25c1.82-1.02,3.52-2.24,4.97-3.74-.37-.42-1.27-1.49-1.79-3-.92,1.52-1.97,2.69-2.91,3.32l-.17-.2c1.42-1.67,2.9-4.11,3.32-6.08l.95.35c.27.1.45.17.45.37,0,.23-.27.25-.63.27-.18.4-.25.53-.38.8h3.81l.35-.42c.07-.08.12-.13.2-.13s.17.07.23.13l.77.75c.07.05.13.15.13.27,0,.2-.07.22-.75.38-.33.57-1.1,1.84-2.49,3.27.55.45,2.07,1.7,4.71,2.27v.27Zm-7.79,1.24v3.97h4.82v-3.97h-4.82Zm.43-7.28c.32.7.8,1.7,2.02,2.94,1.24-1.4,1.74-2.25,2.14-3.02h-4.11l-.05.08Z"/>
      <path class="cls-4" d="m404.82,97.87c.33.18.4.25.4.4,0,.27-.45.32-.63.32-.73,1.47-2.34,4.61-5.26,6.46l-.18-.2c.92-.93,3.64-3.74,4.69-7.51l.99.53Zm2.02,4.52c.35.13.52.2.52.38,0,.25-.25.28-.68.35-.62,1.52-1.65,3.92-3.56,6.48,2.05-.17,5.28-.55,7.41-.88-.47-.77-1.07-1.65-2.22-2.85l.18-.2c2.52,1.65,4.14,3.82,4.14,4.97,0,.25-.08.63-.42.63-.37,0-.57-.4-.68-.65-.43-.88-.52-1.09-.8-1.57-2.79.75-8.53,1.59-9.3,1.69-.03.2-.1.48-.33.48-.15,0-.2-.07-.3-.37l-.38-1.1c.32-.02,1.2-.02,2.25-.1,2.1-3.66,3.02-6.76,3.15-7.63l1.02.37Zm2.07-5.61c.03-.05.08-.12.18-.12.07,0,.13.07.18.1l.7.67c.12.12.23.25.23.37,0,.17-.03.27-.79.42.53,1.59,2.27,4.16,5.28,5.43v.3c-.48.05-.93.23-1.17.63-2.64-1.84-3.84-4.06-4.57-6.49h-1.29c-.23,0-.65,0-1.25.07l-.3-.8c.48.03,1.02.07,1.69.07h.63l.47-.63Z"/>
      <path class="cls-4" d="m418.84,104.18c.4.17.53.27.53.42,0,.25-.28.27-.72.27-1.82,3.27-3.54,4.59-4.44,5.11l-.17-.2c1.2-1.27,2.6-2.97,3.62-5.46.1-.23.13-.32.2-.55l.97.42Zm3.61,4.66c0,.25.03,1.37.03,1.59,0,.77-.22,1.2-1.52,1.4-.07-.62-.58-.75-2.17-1.14v-.27l2.1.07c.5.02.6-.1.6-.53v-7.75h-5.66c-.23,0-.62,0-1.3.07l-.28-.8c.48.03,1.02.07,1.69.07h11.38l.57-.85c.07-.08.12-.13.2-.13.1,0,.17.07.22.12l1.1,1.02c.07.07.15.17.15.28,0,.23-.23.23-.35.23h-6.76v6.63Zm3.05-11.23l.58-.85c.07-.1.12-.13.2-.13.1,0,.15.05.2.1l1.12,1.02c.07.07.15.18.15.28,0,.25-.23.25-.35.25h-9.78c-.45,0-.67,0-1.3.07l-.28-.8c.48.03,1,.07,1.69.07h7.78Zm-1.18,6.13c3.07,1.97,4.62,4.49,4.62,5.43,0,.5-.22.75-.47.75-.27,0-.38-.25-.67-.82-.58-1.17-1.59-3.17-3.64-5.14l.15-.22Z"/>
      <path class="cls-4" d="m439.94,97.91l.37-.53c.05-.08.1-.13.17-.13s.13.03.2.08l.85.7c.07.05.13.12.13.23,0,.15-.05.18-.55.52v9.92c0,.35.07,1.92.07,2.24,0,.37-.37.43-.7.43s-.32-.1-.32-.45v-.73h-7.96v.78c0,.17,0,.4-.67.4-.35,0-.35-.17-.35-.3,0-.38.07-2.04.07-2.37v-9.43c0-1.04-.02-1.44-.07-1.97l1.3.62h7.46Zm-7.75.67v5.01h7.96v-5.01h-7.96Zm0,5.68v5.26h7.96v-5.26h-7.96Z"/>
      <path class="cls-4" d="m452.85,109.42c1.29,0,1.5-.78,1.67-1.4l.67.1-.55,2.4h-7.5v-.87c1.17-1.07,3.29-2.99,4.72-4.76.75-.9,1.67-2.14,1.67-3.84,0-1.42-.77-2.64-2.44-2.64-.27,0-2.19,0-3.17,2.27l-.57-.33c1.19-2.74,3.49-2.74,3.91-2.74,1.95,0,3.49,1.22,3.49,3.47,0,1.97-1.22,3.39-2.44,4.64-.38.38-1.64,1.55-3.92,3.69h4.46Z"/>
      <path class="cls-4" d="m460.63,97.62c2.8,0,4.32,2.65,4.32,6.59s-1.57,6.58-4.32,6.58-4.31-2.45-4.31-6.58,1.67-6.59,4.31-6.59Zm0,12.49c2.95,0,3.1-4.29,3.1-5.89s-.13-5.91-3.09-5.91-3.1,4.41-3.1,5.91c0,1.6.15,5.89,3.09,5.89Z"/>
      <path class="cls-4" d="m472.11,109.42c1.29,0,1.5-.78,1.67-1.4l.67.1-.55,2.4h-7.5v-.87c1.17-1.07,3.29-2.99,4.72-4.76.75-.9,1.67-2.14,1.67-3.84,0-1.42-.77-2.64-2.44-2.64-.27,0-2.19,0-3.17,2.27l-.57-.33c1.19-2.74,3.49-2.74,3.91-2.74,1.95,0,3.49,1.22,3.49,3.47,0,1.97-1.22,3.39-2.44,4.64-.38.38-1.64,1.55-3.92,3.69h4.46Z"/>
      <path class="cls-4" d="m479.33,103.43h.4c3.42,0,3.42-2.37,3.42-2.69,0-1.03-.68-2.35-2.5-2.35-1.39,0-2.44.7-3.17,1.9l-.55-.4c.28-.48,1.34-2.27,3.89-2.27,2.37,0,3.52,1.64,3.52,3.16,0,1.14-.73,2.27-1.94,2.64,2.59.75,2.59,3.09,2.59,3.39,0,2.47-2.32,3.99-5.16,3.99-1.74,0-3.17-.58-3.17-1.59,0-.48.38-.77.72-.77.42,0,.52.17.92.93.22.42.53.75,1.59.75,1.9,0,3.89-1.09,3.89-3.19,0-2.82-3.14-2.82-4.04-2.82h-.4v-.68Z"/>
      <path class="cls-4" d="m497.32,102.51h3.14l.55-.8c.05-.07.08-.13.2-.13.07,0,.12.03.2.1l1.07.98c.08.07.15.13.15.28,0,.23-.23.23-.33.23h-4.97v3.84h4.06l.57-.82c.05-.07.12-.13.2-.13.07,0,.13.05.2.1l1.07.99c.07.07.15.17.15.28,0,.25-.23.25-.35.25h-5.89v1.49c0,.35.05,1.9.05,2.22,0,.15,0,.45-.7.45-.3,0-.33-.13-.33-.3,0-.18.03-1.99.03-2.35v-1.5h-6.58c-.32,0-.63,0-1.3.07l-.28-.8c.48.03,1,.07,1.69.07h1.4v-3.16c0-1-.02-1.5-.07-1.95l1.27.6h3.87v-3.31h-4.34c-.28.45-1.49,2.32-3.32,3.87l-.2-.18c2.12-2.75,3.29-5.02,3.77-6.53l1,.52c.3.15.4.25.4.38,0,.23-.17.23-.68.27-.17.35-.25.5-.55,1h8.6l.57-.8c.03-.05.08-.13.2-.13.08,0,.15.07.2.1l1.07.98c.08.08.15.17.15.28,0,.23-.23.23-.35.23h-5.56v3.31Zm-5.08,4.51h4.12v-3.84h-4.12v3.84Z"/>
      <path class="cls-4" d="m506.35,97.89h6.16l-.18,1.1h-5.34l-.28,3.81c.37-.03.88-.08,1.55-.08,3.91,0,5.24,1.74,5.24,3.84,0,2.64-2.57,4.24-5.29,4.24-1.4,0-3.14-.47-3.14-1.6,0-.3.23-.75.7-.75.42,0,.53.17.92.92.27.5.7.75,1.64.75,1.79,0,3.96-1.08,3.96-3.39,0-2.87-2.94-2.94-4.29-2.94-.99,0-1.65.1-2.09.15l.45-6.04Z"/>
      <path class="cls-4" d="m525.54,97.64l.28-.42c.05-.07.1-.13.18-.13.07,0,.17.07.2.1l.79.68c.07.07.13.12.13.23,0,.15-.05.2-.55.52v10.18c0,.23.03,1.24.03,1.44,0,.83-.1,1.3-1.47,1.47-.05-.52-.08-.73-1.95-1.15v-.27l1.85.07c.5.02.58-.13.58-.53v-3.84h-7.43c-.23,1.44-.72,3.96-3.56,5.89l-.17-.2c2.52-2.65,2.95-5.11,2.95-8.66v-4.11c0-.25-.02-1.35-.08-1.85l1.15.58h7.04Zm-7.16,4.41v.98c0,.72-.02,1.34-.1,2.29h7.34v-3.27h-7.25Zm0-3.74v3.07h7.25v-3.07h-7.25Z"/>
      <path class="cls-4" d="m539.37,98.31c-2.69.5-4.89,2.89-5.28,5.79.28-.37,1.3-1.6,3.39-1.6,2.45,0,3.77,1.74,3.77,3.99,0,2.72-1.9,4.31-4.17,4.31-2.54,0-4.29-1.9-4.29-5.21,0-4.12,2.67-7.4,6.58-7.96v.68Zm-2.3,11.8c2.32,0,2.97-2.1,2.97-3.47,0-1.19-.48-3.24-2.82-3.24-1.97,0-2.85,1.35-3.21,1.9-.02,1.09-.07,4.81,3.05,4.81Z"/>
      <path class="cls-4" d="m555.93,97.91l.37-.53c.05-.08.1-.13.17-.13s.13.03.2.08l.85.7c.07.05.13.12.13.23,0,.15-.05.18-.55.52v9.92c0,.35.07,1.92.07,2.24,0,.37-.37.43-.7.43-.32,0-.32-.1-.32-.45v-.73h-7.96v.78c0,.17,0,.4-.67.4-.35,0-.35-.17-.35-.3,0-.38.07-2.04.07-2.37v-9.43c0-1.04-.02-1.44-.07-1.97l1.3.62h7.46Zm-7.75.67v5.01h7.96v-5.01h-7.96Zm0,5.68v5.26h7.96v-5.26h-7.96Z"/>
    </g>
  </g>
</svg>